<?xml version="1.0" encoding="UTF-8" standalone="no"?>
<!DOCTYPE svg PUBLIC "-//W3C//DTD SVG 1.1//EN"
 "http://www.w3.org/Graphics/SVG/1.1/DTD/svg11.dtd">
<!-- Generated by graphviz version 2.40.1 (20161225.0304)
 -->
<!-- Title: a_works Pages: 1 -->
<svg width="747pt" height="809pt"
 viewBox="0.00 0.00 747.00 809.00" xmlns="http://www.w3.org/2000/svg" xmlns:xlink="http://www.w3.org/1999/xlink">
<g id="graph0" class="graph" transform="scale(1 1) rotate(0) translate(4 805)">
<title>a_works</title>
<polygon fill="#ffffff" stroke="transparent" points="-4,4 -4,-805 743,-805 743,4 -4,4"/>
<!-- a_works -->
<g id="node1" class="node">
<title>a_works</title>
<polygon fill="#efefef" stroke="transparent" points="249,-442.5 249,-477.5 441,-477.5 441,-442.5 249,-442.5"/>
<polygon fill="none" stroke="#000000" points="249,-442.5 249,-477.5 441,-477.5 441,-442.5 249,-442.5"/>
<text text-anchor="start" x="262.8706" y="-455.3" font-family="Arial Bold" font-size="18.00" fill="#000000">a_works</text>
<text text-anchor="start" x="329.8756" y="-455.3" font-family="Arial" font-size="14.00" fill="#000000"> </text>
<text text-anchor="start" x="333.7662" y="-455.3" font-family="Arial" font-size="14.00" fill="#666666">[BASE TABLE]</text>
<polygon fill="none" stroke="#000000" points="249,-412.5 249,-442.5 441,-442.5 441,-412.5 249,-412.5"/>
<text text-anchor="start" x="256" y="-423.9" font-family="Arial" font-size="14.00" fill="#000000">id </text>
<text text-anchor="start" x="270.7798" y="-423.9" font-family="Arial" font-size="14.00" fill="#666666">[bigint unsigned]</text>
<polygon fill="none" stroke="#000000" points="249,-382.5 249,-412.5 441,-412.5 441,-382.5 249,-382.5"/>
<text text-anchor="start" x="256" y="-393.9" font-family="Arial" font-size="14.00" fill="#000000">office_id </text>
<text text-anchor="start" x="312.0154" y="-393.9" font-family="Arial" font-size="14.00" fill="#666666">[bigint unsigned]</text>
<polygon fill="none" stroke="#000000" points="249,-352.5 249,-382.5 441,-382.5 441,-352.5 249,-352.5"/>
<text text-anchor="start" x="256" y="-363.9" font-family="Arial" font-size="14.00" fill="#000000">work_name </text>
<text text-anchor="start" x="332.2314" y="-363.9" font-family="Arial" font-size="14.00" fill="#666666">[varchar(64)]</text>
<polygon fill="none" stroke="#000000" points="249,-322.5 249,-352.5 441,-352.5 441,-322.5 249,-322.5"/>
<text text-anchor="start" x="255.9152" y="-333.9" font-family="Arial" font-size="14.00" fill="#000000">car_type_id </text>
<text text-anchor="start" x="332.1592" y="-333.9" font-family="Arial" font-size="14.00" fill="#666666">[bigint unsigned]</text>
<polygon fill="none" stroke="#000000" stroke-width="3" points="247.5,-321.5 247.5,-479.5 442.5,-479.5 442.5,-321.5 247.5,-321.5"/>
</g>
<!-- offices -->
<g id="node3" class="node">
<title>offices</title>
<polygon fill="#efefef" stroke="transparent" points="98,-162.5 98,-197.5 293,-197.5 293,-162.5 98,-162.5"/>
<polygon fill="none" stroke="#000000" points="98,-162.5 98,-197.5 293,-197.5 293,-162.5 98,-162.5"/>
<text text-anchor="start" x="120.8676" y="-175.3" font-family="Arial Bold" font-size="18.00" fill="#000000">offices</text>
<text text-anchor="start" x="172.8786" y="-175.3" font-family="Arial" font-size="14.00" fill="#000000"> </text>
<text text-anchor="start" x="176.7692" y="-175.3" font-family="Arial" font-size="14.00" fill="#666666">[BASE TABLE]</text>
<polygon fill="none" stroke="#000000" points="98,-132.5 98,-162.5 293,-162.5 293,-132.5 98,-132.5"/>
<text text-anchor="start" x="105" y="-143.9" font-family="Arial" font-size="14.00" fill="#000000">id </text>
<text text-anchor="start" x="119.7798" y="-143.9" font-family="Arial" font-size="14.00" fill="#666666">[bigint unsigned]</text>
<polygon fill="none" stroke="#000000" points="98,-102.5 98,-132.5 293,-132.5 293,-102.5 98,-102.5"/>
<text text-anchor="start" x="104.864" y="-113.9" font-family="Arial" font-size="14.00" fill="#000000">train_line_id </text>
<text text-anchor="start" x="184.2104" y="-113.9" font-family="Arial" font-size="14.00" fill="#666666">[bigint unsigned]</text>
<polygon fill="none" stroke="#000000" points="98,-72.5 98,-102.5 293,-102.5 293,-72.5 98,-72.5"/>
<text text-anchor="start" x="105" y="-83.9" font-family="Arial" font-size="14.00" fill="#000000">office_name </text>
<text text-anchor="start" x="185.1346" y="-83.9" font-family="Arial" font-size="14.00" fill="#666666">[varchar(64)]</text>
<polygon fill="none" stroke="#000000" points="98,-42.5 98,-72.5 293,-72.5 293,-42.5 98,-42.5"/>
<text text-anchor="start" x="105" y="-53.9" font-family="Arial" font-size="14.00" fill="#000000">office_description </text>
<text text-anchor="start" x="217.8036" y="-53.9" font-family="Arial" font-size="14.00" fill="#666666">[text]</text>
</g>
<!-- a_works&#45;&gt;offices -->
<g id="edge2" class="edge">
<title>a_works:office_id&#45;&gt;offices:id</title>
<path fill="none" stroke="#000000" d="M238.8287,-397.3839C39.25,-392.6813 290.292,-246.7146 293,-241 310.7953,-203.4475 334.5556,-147.5 293,-147.5"/>
<polygon fill="#000000" stroke="#000000" points="239.0007,-397.3857 248.9486,-401.9997 244.0003,-397.4429 249,-397.5 249,-397.5 249,-397.5 244.0003,-397.4429 249.0514,-393.0003 239.0007,-397.3857 239.0007,-397.3857"/>
<text text-anchor="start" x="7.497" y="-407.5" font-family="Arial" font-size="10.00" fill="#000000">FOREIGN KEY (office_id) REFERENCES offices (id)</text>
</g>
<!-- car_types -->
<g id="node4" class="node">
<title>car_types</title>
<polygon fill="#efefef" stroke="transparent" points="397,-162.5 397,-197.5 592,-197.5 592,-162.5 397,-162.5"/>
<polygon fill="none" stroke="#000000" points="397,-162.5 397,-197.5 592,-197.5 592,-162.5 397,-162.5"/>
<text text-anchor="start" x="406.8635" y="-175.3" font-family="Arial Bold" font-size="18.00" fill="#000000">car_types</text>
<text text-anchor="start" x="484.8827" y="-175.3" font-family="Arial" font-size="14.00" fill="#000000"> </text>
<text text-anchor="start" x="488.7733" y="-175.3" font-family="Arial" font-size="14.00" fill="#666666">[BASE TABLE]</text>
<polygon fill="none" stroke="#000000" points="397,-132.5 397,-162.5 592,-162.5 592,-132.5 397,-132.5"/>
<text text-anchor="start" x="404" y="-143.9" font-family="Arial" font-size="14.00" fill="#000000">id </text>
<text text-anchor="start" x="418.7798" y="-143.9" font-family="Arial" font-size="14.00" fill="#666666">[bigint unsigned]</text>
<polygon fill="none" stroke="#000000" points="397,-102.5 397,-132.5 592,-132.5 592,-102.5 397,-102.5"/>
<text text-anchor="start" x="403.864" y="-113.9" font-family="Arial" font-size="14.00" fill="#000000">train_line_id </text>
<text text-anchor="start" x="483.2104" y="-113.9" font-family="Arial" font-size="14.00" fill="#666666">[bigint unsigned]</text>
<polygon fill="none" stroke="#000000" points="397,-72.5 397,-102.5 592,-102.5 592,-72.5 397,-72.5"/>
<text text-anchor="start" x="404" y="-83.9" font-family="Arial" font-size="14.00" fill="#000000">car_type_name </text>
<text text-anchor="start" x="504.3632" y="-83.9" font-family="Arial" font-size="14.00" fill="#666666">[varchar(64)]</text>
<polygon fill="none" stroke="#000000" points="397,-42.5 397,-72.5 592,-72.5 592,-42.5 397,-42.5"/>
<text text-anchor="start" x="404" y="-53.9" font-family="Arial" font-size="14.00" fill="#000000">car_length </text>
<text text-anchor="start" x="473.244" y="-53.9" font-family="Arial" font-size="14.00" fill="#666666">[int]</text>
</g>
<!-- a_works&#45;&gt;car_types -->
<g id="edge3" class="edge">
<title>a_works:car_type_id&#45;&gt;car_types:id</title>
<path fill="none" stroke="#000000" d="M451.0253,-334.7892C462.9481,-325.9418 450.6255,-297.3122 441,-277 430.1799,-254.167 407.8201,-263.833 397,-241 379.2047,-203.4475 355.4444,-147.5 397,-147.5"/>
<polygon fill="#000000" stroke="#000000" points="450.6533,-334.8897 439.8254,-333.156 445.8267,-336.1949 441,-337.5 441,-337.5 441,-337.5 445.8267,-336.1949 442.1746,-341.844 450.6533,-334.8897 450.6533,-334.8897"/>
<text text-anchor="start" x="448.048" y="-347.5" font-family="Arial" font-size="10.00" fill="#000000">FOREIGN KEY (car_type_id) REFERENCES car_types (id)</text>
</g>
<!-- a_work_sta_relations -->
<g id="node2" class="node">
<title>a_work_sta_relations</title>
<polygon fill="#efefef" stroke="transparent" points="204,-722.5 204,-757.5 485,-757.5 485,-722.5 204,-722.5"/>
<polygon fill="none" stroke="#000000" points="204,-722.5 204,-757.5 485,-757.5 485,-722.5 204,-722.5"/>
<text text-anchor="start" x="210.8564" y="-735.3" font-family="Arial Bold" font-size="18.00" fill="#000000">a_work_sta_relations</text>
<text text-anchor="start" x="380.8898" y="-735.3" font-family="Arial" font-size="14.00" fill="#000000"> </text>
<text text-anchor="start" x="384.7804" y="-735.3" font-family="Arial" font-size="14.00" fill="#666666">[BASE TABLE]</text>
<polygon fill="none" stroke="#000000" points="204,-692.5 204,-722.5 485,-722.5 485,-692.5 204,-692.5"/>
<text text-anchor="start" x="211" y="-703.9" font-family="Arial" font-size="14.00" fill="#000000">work_id </text>
<text text-anchor="start" x="263.1122" y="-703.9" font-family="Arial" font-size="14.00" fill="#666666">[bigint unsigned]</text>
<polygon fill="none" stroke="#000000" points="204,-662.5 204,-692.5 485,-692.5 485,-662.5 204,-662.5"/>
<text text-anchor="start" x="211" y="-673.9" font-family="Arial" font-size="14.00" fill="#000000">sta_time_from_id </text>
<text text-anchor="start" x="322.2356" y="-673.9" font-family="Arial" font-size="14.00" fill="#666666">[bigint unsigned]</text>
<polygon fill="none" stroke="#000000" points="204,-632.5 204,-662.5 485,-662.5 485,-632.5 204,-632.5"/>
<text text-anchor="start" x="211" y="-643.9" font-family="Arial" font-size="14.00" fill="#000000">sta_time_to_id </text>
<text text-anchor="start" x="305.9144" y="-643.9" font-family="Arial" font-size="14.00" fill="#666666">[bigint unsigned]</text>
<polygon fill="none" stroke="#000000" points="204,-602.5 204,-632.5 485,-632.5 485,-602.5 204,-602.5"/>
<text text-anchor="start" x="211" y="-613.9" font-family="Arial" font-size="14.00" fill="#000000">is_no_work </text>
<text text-anchor="start" x="285.6774" y="-613.9" font-family="Arial" font-size="14.00" fill="#666666">[bit(1)]</text>
</g>
<!-- a_work_sta_relations&#45;&gt;a_works -->
<g id="edge1" class="edge">
<title>a_work_sta_relations:work_id&#45;&gt;a_works:id</title>
<path fill="none" stroke="#000000" d="M494.9733,-706.6466C547.9981,-696.9498 525.3808,-607.0077 485,-560 415.8623,-479.5161 318.1377,-604.4839 249,-524 221.053,-491.4666 206.1111,-427.5 249,-427.5"/>
<polygon fill="#000000" stroke="#000000" points="494.9636,-706.6474 484.6163,-703.0164 489.9818,-707.0737 485,-707.5 485,-707.5 485,-707.5 489.9818,-707.0737 485.3837,-711.9836 494.9636,-706.6474 494.9636,-706.6474"/>
<text text-anchor="start" x="491.726" y="-717.5" font-family="Arial" font-size="10.00" fill="#000000">FOREIGN KEY (work_id) REFERENCES a_works (id)</text>
</g>
</g>
</svg>
