<?xml version="1.0" encoding="UTF-8" standalone="no"?>
<!DOCTYPE svg PUBLIC "-//W3C//DTD SVG 1.1//EN"
 "http://www.w3.org/Graphics/SVG/1.1/DTD/svg11.dtd">
<!-- Generated by graphviz version 2.40.1 (20161225.0304)
 -->
<!-- Title: a_work_sta_relations Pages: 1 -->
<svg width="632pt" height="712pt"
 viewBox="0.00 0.00 631.50 712.00" xmlns="http://www.w3.org/2000/svg" xmlns:xlink="http://www.w3.org/1999/xlink">
<g id="graph0" class="graph" transform="scale(1 1) rotate(0) translate(4 708)">
<title>a_work_sta_relations</title>
<polygon fill="#ffffff" stroke="transparent" points="-4,4 -4,-708 627.5,-708 627.5,4 -4,4"/>
<!-- a_work_sta_relations -->
<g id="node1" class="node">
<title>a_work_sta_relations</title>
<polygon fill="#efefef" stroke="transparent" points="297,-622.5 297,-657.5 578,-657.5 578,-622.5 297,-622.5"/>
<polygon fill="none" stroke="#000000" points="297,-622.5 297,-657.5 578,-657.5 578,-622.5 297,-622.5"/>
<text text-anchor="start" x="303.8564" y="-635.3" font-family="Arial Bold" font-size="18.00" fill="#000000">a_work_sta_relations</text>
<text text-anchor="start" x="473.8898" y="-635.3" font-family="Arial" font-size="14.00" fill="#000000"> </text>
<text text-anchor="start" x="477.7804" y="-635.3" font-family="Arial" font-size="14.00" fill="#666666">[BASE TABLE]</text>
<polygon fill="none" stroke="#000000" points="297,-592.5 297,-622.5 578,-622.5 578,-592.5 297,-592.5"/>
<text text-anchor="start" x="304" y="-603.9" font-family="Arial" font-size="14.00" fill="#000000">work_id </text>
<text text-anchor="start" x="356.1122" y="-603.9" font-family="Arial" font-size="14.00" fill="#666666">[bigint unsigned]</text>
<polygon fill="none" stroke="#000000" points="297,-562.5 297,-592.5 578,-592.5 578,-562.5 297,-562.5"/>
<text text-anchor="start" x="304" y="-573.9" font-family="Arial" font-size="14.00" fill="#000000">sta_time_from_id </text>
<text text-anchor="start" x="415.2356" y="-573.9" font-family="Arial" font-size="14.00" fill="#666666">[bigint unsigned]</text>
<polygon fill="none" stroke="#000000" points="297,-532.5 297,-562.5 578,-562.5 578,-532.5 297,-532.5"/>
<text text-anchor="start" x="304" y="-543.9" font-family="Arial" font-size="14.00" fill="#000000">sta_time_to_id </text>
<text text-anchor="start" x="398.9144" y="-543.9" font-family="Arial" font-size="14.00" fill="#666666">[bigint unsigned]</text>
<polygon fill="none" stroke="#000000" points="297,-502.5 297,-532.5 578,-532.5 578,-502.5 297,-502.5"/>
<text text-anchor="start" x="304" y="-513.9" font-family="Arial" font-size="14.00" fill="#000000">is_no_work </text>
<text text-anchor="start" x="378.6774" y="-513.9" font-family="Arial" font-size="14.00" fill="#666666">[bit(1)]</text>
<polygon fill="none" stroke="#000000" stroke-width="3" points="295,-501.5 295,-659.5 579,-659.5 579,-501.5 295,-501.5"/>
</g>
<!-- a_works -->
<g id="node2" class="node">
<title>a_works</title>
<polygon fill="#efefef" stroke="transparent" points="43,-252.5 43,-287.5 235,-287.5 235,-252.5 43,-252.5"/>
<polygon fill="none" stroke="#000000" points="43,-252.5 43,-287.5 235,-287.5 235,-252.5 43,-252.5"/>
<text text-anchor="start" x="56.8706" y="-265.3" font-family="Arial Bold" font-size="18.00" fill="#000000">a_works</text>
<text text-anchor="start" x="123.8756" y="-265.3" font-family="Arial" font-size="14.00" fill="#000000"> </text>
<text text-anchor="start" x="127.7662" y="-265.3" font-family="Arial" font-size="14.00" fill="#666666">[BASE TABLE]</text>
<polygon fill="none" stroke="#000000" points="43,-222.5 43,-252.5 235,-252.5 235,-222.5 43,-222.5"/>
<text text-anchor="start" x="50" y="-233.9" font-family="Arial" font-size="14.00" fill="#000000">id </text>
<text text-anchor="start" x="64.7798" y="-233.9" font-family="Arial" font-size="14.00" fill="#666666">[bigint unsigned]</text>
<polygon fill="none" stroke="#000000" points="43,-192.5 43,-222.5 235,-222.5 235,-192.5 43,-192.5"/>
<text text-anchor="start" x="50" y="-203.9" font-family="Arial" font-size="14.00" fill="#000000">office_id </text>
<text text-anchor="start" x="106.0154" y="-203.9" font-family="Arial" font-size="14.00" fill="#666666">[bigint unsigned]</text>
<polygon fill="none" stroke="#000000" points="43,-162.5 43,-192.5 235,-192.5 235,-162.5 43,-162.5"/>
<text text-anchor="start" x="50" y="-173.9" font-family="Arial" font-size="14.00" fill="#000000">work_name </text>
<text text-anchor="start" x="126.2314" y="-173.9" font-family="Arial" font-size="14.00" fill="#666666">[varchar(64)]</text>
<polygon fill="none" stroke="#000000" points="43,-132.5 43,-162.5 235,-162.5 235,-132.5 43,-132.5"/>
<text text-anchor="start" x="49.9152" y="-143.9" font-family="Arial" font-size="14.00" fill="#000000">car_type_id </text>
<text text-anchor="start" x="126.1592" y="-143.9" font-family="Arial" font-size="14.00" fill="#666666">[bigint unsigned]</text>
</g>
<!-- a_work_sta_relations&#45;&gt;a_works -->
<g id="edge1" class="edge">
<title>a_work_sta_relations:work_id&#45;&gt;a_works:id</title>
<path fill="none" stroke="#000000" d="M286.8695,-605.3271C222.6618,-575.0045 314.6235,-237.5 235,-237.5"/>
<polygon fill="#000000" stroke="#000000" points="287.2224,-605.4028 296.0562,-611.8999 292.1112,-606.4514 297,-607.5 297,-607.5 297,-607.5 292.1112,-606.4514 297.9438,-603.1001 287.2224,-605.4028 287.2224,-605.4028"/>
<text text-anchor="start" x="49.726" y="-617.5" font-family="Arial" font-size="10.00" fill="#000000">FOREIGN KEY (work_id) REFERENCES a_works (id)</text>
</g>
<!-- sta_time -->
<g id="node3" class="node">
<title>sta_time</title>
<polygon fill="#efefef" stroke="transparent" points="340,-342.5 340,-377.5 535,-377.5 535,-342.5 340,-342.5"/>
<polygon fill="none" stroke="#000000" points="340,-342.5 340,-377.5 535,-377.5 535,-342.5 340,-342.5"/>
<text text-anchor="start" x="354.8684" y="-355.3" font-family="Arial Bold" font-size="18.00" fill="#000000">sta_time</text>
<text text-anchor="start" x="422.8778" y="-355.3" font-family="Arial" font-size="14.00" fill="#000000"> </text>
<text text-anchor="start" x="426.7684" y="-355.3" font-family="Arial" font-size="14.00" fill="#666666">[BASE TABLE]</text>
<polygon fill="none" stroke="#000000" points="340,-312.5 340,-342.5 535,-342.5 535,-312.5 340,-312.5"/>
<text text-anchor="start" x="347" y="-323.9" font-family="Arial" font-size="14.00" fill="#000000">id </text>
<text text-anchor="start" x="361.7798" y="-323.9" font-family="Arial" font-size="14.00" fill="#666666">[bigint unsigned]</text>
<polygon fill="none" stroke="#000000" points="340,-282.5 340,-312.5 535,-312.5 535,-282.5 340,-282.5"/>
<text text-anchor="start" x="347" y="-293.9" font-family="Arial" font-size="14.00" fill="#000000">train_id </text>
<text text-anchor="start" x="396.7854" y="-293.9" font-family="Arial" font-size="14.00" fill="#666666">[bigint unsigned]</text>
<polygon fill="none" stroke="#000000" points="340,-252.5 340,-282.5 535,-282.5 535,-252.5 340,-252.5"/>
<text text-anchor="start" x="346.8542" y="-263.9" font-family="Arial" font-size="14.00" fill="#000000">stop_pos_id </text>
<text text-anchor="start" x="426.2202" y="-263.9" font-family="Arial" font-size="14.00" fill="#666666">[bigint unsigned]</text>
<polygon fill="none" stroke="#000000" points="340,-222.5 340,-252.5 535,-252.5 535,-222.5 340,-222.5"/>
<text text-anchor="start" x="347" y="-233.9" font-family="Arial" font-size="14.00" fill="#000000">arr_time </text>
<text text-anchor="start" x="402.2174" y="-233.9" font-family="Arial" font-size="14.00" fill="#666666">[time]</text>
<polygon fill="none" stroke="#000000" points="340,-192.5 340,-222.5 535,-222.5 535,-192.5 340,-192.5"/>
<text text-anchor="start" x="347" y="-203.9" font-family="Arial" font-size="14.00" fill="#000000">dep_time </text>
<text text-anchor="start" x="408.4614" y="-203.9" font-family="Arial" font-size="14.00" fill="#666666">[time]</text>
<polygon fill="none" stroke="#000000" points="340,-162.5 340,-192.5 535,-192.5 535,-162.5 340,-162.5"/>
<text text-anchor="start" x="347" y="-173.9" font-family="Arial" font-size="14.00" fill="#000000">is_pass </text>
<text text-anchor="start" x="398.345" y="-173.9" font-family="Arial" font-size="14.00" fill="#666666">[bit(1)]</text>
<polygon fill="none" stroke="#000000" points="340,-132.5 340,-162.5 535,-162.5 535,-132.5 340,-132.5"/>
<text text-anchor="start" x="347" y="-143.9" font-family="Arial" font-size="14.00" fill="#000000">track_id </text>
<text text-anchor="start" x="399.8962" y="-143.9" font-family="Arial" font-size="14.00" fill="#666666">[bigint unsigned]</text>
<polygon fill="none" stroke="#000000" points="340,-102.5 340,-132.5 535,-132.5 535,-102.5 340,-102.5"/>
<text text-anchor="start" x="347" y="-113.9" font-family="Arial" font-size="14.00" fill="#000000">radio_ch_id </text>
<text text-anchor="start" x="423.2426" y="-113.9" font-family="Arial" font-size="14.00" fill="#666666">[bigint unsigned]</text>
<polygon fill="none" stroke="#000000" points="340,-72.5 340,-102.5 535,-102.5 535,-72.5 340,-72.5"/>
<text text-anchor="start" x="347" y="-83.9" font-family="Arial" font-size="14.00" fill="#000000">sta_color </text>
<text text-anchor="start" x="407.6788" y="-83.9" font-family="Arial" font-size="14.00" fill="#666666">[char(8)]</text>
<polygon fill="none" stroke="#000000" points="340,-42.5 340,-72.5 535,-72.5 535,-42.5 340,-42.5"/>
<text text-anchor="start" x="347" y="-53.9" font-family="Arial" font-size="14.00" fill="#000000">line_color </text>
<text text-anchor="start" x="410.784" y="-53.9" font-family="Arial" font-size="14.00" fill="#666666">[char(8)]</text>
</g>
<!-- a_work_sta_relations&#45;&gt;sta_time -->
<g id="edge2" class="edge">
<title>a_work_sta_relations:sta_time_from_id&#45;&gt;sta_time:id</title>
<path fill="none" stroke="#000000" d="M290.3565,-569.7439C277.7199,-527.5465 314.787,-327.5 340,-327.5"/>
<polygon fill="#000000" stroke="#000000" points="290.4947,-569.9052 293.5823,-580.4274 293.7473,-573.7026 297,-577.5 297,-577.5 297,-577.5 293.7473,-573.7026 300.4177,-574.5726 290.4947,-569.9052 290.4947,-569.9052"/>
<text text-anchor="start" x="7.3315" y="-587.5" font-family="Arial" font-size="10.00" fill="#000000">FOREIGN KEY (sta_time_from_id) REFERENCES sta_time (id)</text>
</g>
<!-- a_work_sta_relations&#45;&gt;sta_time -->
<g id="edge3" class="edge">
<title>a_work_sta_relations:sta_time_to_id&#45;&gt;sta_time:id</title>
<path fill="none" stroke="#000000" d="M290.9632,-539.4092C281.7629,-499.7182 317.9632,-327.5 340,-327.5"/>
<polygon fill="#000000" stroke="#000000" points="291.0198,-539.4851 293.3933,-550.1911 294.0099,-543.4926 297,-547.5 297,-547.5 297,-547.5 294.0099,-543.4926 300.6067,-544.8089 291.0198,-539.4851 291.0198,-539.4851"/>
<text text-anchor="start" x="19.1605" y="-557.5" font-family="Arial" font-size="10.00" fill="#000000">FOREIGN KEY (sta_time_to_id) REFERENCES sta_time (id)</text>
</g>
</g>
</svg>
