<?xml version="1.0" encoding="UTF-8" standalone="no"?>
<!DOCTYPE svg PUBLIC "-//W3C//DTD SVG 1.1//EN"
 "http://www.w3.org/Graphics/SVG/1.1/DTD/svg11.dtd">
<!-- Generated by graphviz version 2.40.1 (20161225.0304)
 -->
<!-- Title: b_works Pages: 1 -->
<svg width="740pt" height="779pt"
 viewBox="0.00 0.00 740.00 779.00" xmlns="http://www.w3.org/2000/svg" xmlns:xlink="http://www.w3.org/1999/xlink">
<g id="graph0" class="graph" transform="scale(1 1) rotate(0) translate(4 775)">
<title>b_works</title>
<polygon fill="#ffffff" stroke="transparent" points="-4,4 -4,-775 736,-775 736,4 -4,4"/>
<!-- b_works -->
<g id="node1" class="node">
<title>b_works</title>
<polygon fill="#efefef" stroke="transparent" points="249,-412.5 249,-447.5 427,-447.5 427,-412.5 249,-412.5"/>
<polygon fill="none" stroke="#000000" points="249,-412.5 249,-447.5 427,-447.5 427,-412.5 249,-412.5"/>
<text text-anchor="start" x="255.8706" y="-425.3" font-family="Arial Bold" font-size="18.00" fill="#000000">b_works</text>
<text text-anchor="start" x="322.8756" y="-425.3" font-family="Arial" font-size="14.00" fill="#000000"> </text>
<text text-anchor="start" x="326.7662" y="-425.3" font-family="Arial" font-size="14.00" fill="#666666">[BASE TABLE]</text>
<polygon fill="none" stroke="#000000" points="249,-382.5 249,-412.5 427,-412.5 427,-382.5 249,-382.5"/>
<text text-anchor="start" x="256" y="-393.9" font-family="Arial" font-size="14.00" fill="#000000">id </text>
<text text-anchor="start" x="270.7798" y="-393.9" font-family="Arial" font-size="14.00" fill="#666666">[bigint unsigned]</text>
<polygon fill="none" stroke="#000000" points="249,-352.5 249,-382.5 427,-382.5 427,-352.5 249,-352.5"/>
<text text-anchor="start" x="256" y="-363.9" font-family="Arial" font-size="14.00" fill="#000000">office_id </text>
<text text-anchor="start" x="312.0154" y="-363.9" font-family="Arial" font-size="14.00" fill="#666666">[bigint unsigned]</text>
<polygon fill="none" stroke="#000000" points="249,-322.5 249,-352.5 427,-352.5 427,-322.5 249,-322.5"/>
<text text-anchor="start" x="256" y="-333.9" font-family="Arial" font-size="14.00" fill="#000000">work_name </text>
<text text-anchor="start" x="332.2314" y="-333.9" font-family="Arial" font-size="14.00" fill="#666666">[varchar(64)]</text>
<polygon fill="none" stroke="#000000" stroke-width="3" points="247.5,-321.5 247.5,-449.5 428.5,-449.5 428.5,-321.5 247.5,-321.5"/>
</g>
<!-- offices -->
<g id="node3" class="node">
<title>offices</title>
<polygon fill="#efefef" stroke="transparent" points="240,-162.5 240,-197.5 435,-197.5 435,-162.5 240,-162.5"/>
<polygon fill="none" stroke="#000000" points="240,-162.5 240,-197.5 435,-197.5 435,-162.5 240,-162.5"/>
<text text-anchor="start" x="262.8676" y="-175.3" font-family="Arial Bold" font-size="18.00" fill="#000000">offices</text>
<text text-anchor="start" x="314.8786" y="-175.3" font-family="Arial" font-size="14.00" fill="#000000"> </text>
<text text-anchor="start" x="318.7692" y="-175.3" font-family="Arial" font-size="14.00" fill="#666666">[BASE TABLE]</text>
<polygon fill="none" stroke="#000000" points="240,-132.5 240,-162.5 435,-162.5 435,-132.5 240,-132.5"/>
<text text-anchor="start" x="247" y="-143.9" font-family="Arial" font-size="14.00" fill="#000000">id </text>
<text text-anchor="start" x="261.7798" y="-143.9" font-family="Arial" font-size="14.00" fill="#666666">[bigint unsigned]</text>
<polygon fill="none" stroke="#000000" points="240,-102.5 240,-132.5 435,-132.5 435,-102.5 240,-102.5"/>
<text text-anchor="start" x="246.864" y="-113.9" font-family="Arial" font-size="14.00" fill="#000000">train_line_id </text>
<text text-anchor="start" x="326.2104" y="-113.9" font-family="Arial" font-size="14.00" fill="#666666">[bigint unsigned]</text>
<polygon fill="none" stroke="#000000" points="240,-72.5 240,-102.5 435,-102.5 435,-72.5 240,-72.5"/>
<text text-anchor="start" x="247" y="-83.9" font-family="Arial" font-size="14.00" fill="#000000">office_name </text>
<text text-anchor="start" x="327.1346" y="-83.9" font-family="Arial" font-size="14.00" fill="#666666">[varchar(64)]</text>
<polygon fill="none" stroke="#000000" points="240,-42.5 240,-72.5 435,-72.5 435,-42.5 240,-42.5"/>
<text text-anchor="start" x="247" y="-53.9" font-family="Arial" font-size="14.00" fill="#000000">office_description </text>
<text text-anchor="start" x="359.8036" y="-53.9" font-family="Arial" font-size="14.00" fill="#666666">[text]</text>
</g>
<!-- b_works&#45;&gt;offices -->
<g id="edge2" class="edge">
<title>b_works:office_id&#45;&gt;offices:id</title>
<path fill="none" stroke="#000000" d="M239.0975,-366.0043C211.6165,-356.5987 225.8028,-305.1175 249,-277 302.5843,-212.0501 381.4157,-305.9499 435,-241 461.4454,-208.9453 476.5556,-147.5 435,-147.5"/>
<polygon fill="#000000" stroke="#000000" points="239.1122,-366.0064 248.3279,-371.9495 244.0561,-366.7532 249,-367.5 249,-367.5 249,-367.5 244.0561,-366.7532 249.6721,-363.0505 239.1122,-366.0064 239.1122,-366.0064"/>
<text text-anchor="start" x="7.497" y="-377.5" font-family="Arial" font-size="10.00" fill="#000000">FOREIGN KEY (office_id) REFERENCES offices (id)</text>
</g>
<!-- b_work_sta_relations -->
<g id="node2" class="node">
<title>b_work_sta_relations</title>
<polygon fill="#efefef" stroke="transparent" points="197,-692.5 197,-727.5 478,-727.5 478,-692.5 197,-692.5"/>
<polygon fill="none" stroke="#000000" points="197,-692.5 197,-727.5 478,-727.5 478,-692.5 197,-692.5"/>
<text text-anchor="start" x="203.8564" y="-705.3" font-family="Arial Bold" font-size="18.00" fill="#000000">b_work_sta_relations</text>
<text text-anchor="start" x="373.8898" y="-705.3" font-family="Arial" font-size="14.00" fill="#000000"> </text>
<text text-anchor="start" x="377.7804" y="-705.3" font-family="Arial" font-size="14.00" fill="#666666">[BASE TABLE]</text>
<polygon fill="none" stroke="#000000" points="197,-662.5 197,-692.5 478,-692.5 478,-662.5 197,-662.5"/>
<text text-anchor="start" x="204" y="-673.9" font-family="Arial" font-size="14.00" fill="#000000">work_id </text>
<text text-anchor="start" x="256.1122" y="-673.9" font-family="Arial" font-size="14.00" fill="#666666">[bigint unsigned]</text>
<polygon fill="none" stroke="#000000" points="197,-632.5 197,-662.5 478,-662.5 478,-632.5 197,-632.5"/>
<text text-anchor="start" x="204" y="-643.9" font-family="Arial" font-size="14.00" fill="#000000">sta_time_from_id </text>
<text text-anchor="start" x="315.2356" y="-643.9" font-family="Arial" font-size="14.00" fill="#666666">[bigint unsigned]</text>
<polygon fill="none" stroke="#000000" points="197,-602.5 197,-632.5 478,-632.5 478,-602.5 197,-602.5"/>
<text text-anchor="start" x="204" y="-613.9" font-family="Arial" font-size="14.00" fill="#000000">sta_time_to_id </text>
<text text-anchor="start" x="298.9144" y="-613.9" font-family="Arial" font-size="14.00" fill="#666666">[bigint unsigned]</text>
<polygon fill="none" stroke="#000000" points="197,-572.5 197,-602.5 478,-602.5 478,-572.5 197,-572.5"/>
<text text-anchor="start" x="204" y="-583.9" font-family="Arial" font-size="14.00" fill="#000000">is_no_work </text>
<text text-anchor="start" x="278.6774" y="-583.9" font-family="Arial" font-size="14.00" fill="#666666">[bit(1)]</text>
</g>
<!-- b_work_sta_relations&#45;&gt;b_works -->
<g id="edge1" class="edge">
<title>b_work_sta_relations:work_id&#45;&gt;b_works:id</title>
<path fill="none" stroke="#000000" d="M487.9724,-676.6474C540.9864,-666.9598 518.2737,-577.0996 478,-530 411.0438,-451.6956 315.9562,-572.3044 249,-494 221.1271,-461.4031 206.1111,-397.5 249,-397.5"/>
<polygon fill="#000000" stroke="#000000" points="487.9637,-676.6481 477.6166,-673.0164 482.9818,-677.074 478,-677.5 478,-677.5 478,-677.5 482.9818,-677.074 478.3834,-681.9836 487.9637,-676.6481 487.9637,-676.6481"/>
<text text-anchor="start" x="484.726" y="-687.5" font-family="Arial" font-size="10.00" fill="#000000">FOREIGN KEY (work_id) REFERENCES b_works (id)</text>
</g>
</g>
</svg>
