<?xml version="1.0" encoding="UTF-8" standalone="no"?>
<!DOCTYPE svg PUBLIC "-//W3C//DTD SVG 1.1//EN"
 "http://www.w3.org/Graphics/SVG/1.1/DTD/svg11.dtd">
<!-- Generated by graphviz version 2.40.1 (20161225.0304)
 -->
<!-- Title: c_works Pages: 1 -->
<svg width="584pt" height="779pt"
 viewBox="0.00 0.00 584.00 779.00" xmlns="http://www.w3.org/2000/svg" xmlns:xlink="http://www.w3.org/1999/xlink">
<g id="graph0" class="graph" transform="scale(1 1) rotate(0) translate(4 775)">
<title>c_works</title>
<polygon fill="#ffffff" stroke="transparent" points="-4,4 -4,-775 580,-775 580,4 -4,4"/>
<!-- c_works -->
<g id="node1" class="node">
<title>c_works</title>
<polygon fill="#efefef" stroke="transparent" points="304,-412.5 304,-447.5 481,-447.5 481,-412.5 304,-412.5"/>
<polygon fill="none" stroke="#000000" points="304,-412.5 304,-447.5 481,-447.5 481,-412.5 304,-412.5"/>
<text text-anchor="start" x="310.8737" y="-425.3" font-family="Arial Bold" font-size="18.00" fill="#000000">c_works</text>
<text text-anchor="start" x="376.8725" y="-425.3" font-family="Arial" font-size="14.00" fill="#000000"> </text>
<text text-anchor="start" x="380.7631" y="-425.3" font-family="Arial" font-size="14.00" fill="#666666">[BASE TABLE]</text>
<polygon fill="none" stroke="#000000" points="304,-382.5 304,-412.5 481,-412.5 481,-382.5 304,-382.5"/>
<text text-anchor="start" x="311" y="-393.9" font-family="Arial" font-size="14.00" fill="#000000">id </text>
<text text-anchor="start" x="325.7798" y="-393.9" font-family="Arial" font-size="14.00" fill="#666666">[bigint unsigned]</text>
<polygon fill="none" stroke="#000000" points="304,-352.5 304,-382.5 481,-382.5 481,-352.5 304,-352.5"/>
<text text-anchor="start" x="311" y="-363.9" font-family="Arial" font-size="14.00" fill="#000000">office_id </text>
<text text-anchor="start" x="367.0154" y="-363.9" font-family="Arial" font-size="14.00" fill="#666666">[bigint unsigned]</text>
<polygon fill="none" stroke="#000000" points="304,-322.5 304,-352.5 481,-352.5 481,-322.5 304,-322.5"/>
<text text-anchor="start" x="311" y="-333.9" font-family="Arial" font-size="14.00" fill="#000000">work_name </text>
<text text-anchor="start" x="387.2314" y="-333.9" font-family="Arial" font-size="14.00" fill="#666666">[varchar(64)]</text>
<polygon fill="none" stroke="#000000" stroke-width="3" points="302,-321.5 302,-449.5 482,-449.5 482,-321.5 302,-321.5"/>
</g>
<!-- offices -->
<g id="node3" class="node">
<title>offices</title>
<polygon fill="#efefef" stroke="transparent" points="295,-162.5 295,-197.5 490,-197.5 490,-162.5 295,-162.5"/>
<polygon fill="none" stroke="#000000" points="295,-162.5 295,-197.5 490,-197.5 490,-162.5 295,-162.5"/>
<text text-anchor="start" x="317.8676" y="-175.3" font-family="Arial Bold" font-size="18.00" fill="#000000">offices</text>
<text text-anchor="start" x="369.8786" y="-175.3" font-family="Arial" font-size="14.00" fill="#000000"> </text>
<text text-anchor="start" x="373.7692" y="-175.3" font-family="Arial" font-size="14.00" fill="#666666">[BASE TABLE]</text>
<polygon fill="none" stroke="#000000" points="295,-132.5 295,-162.5 490,-162.5 490,-132.5 295,-132.5"/>
<text text-anchor="start" x="302" y="-143.9" font-family="Arial" font-size="14.00" fill="#000000">id </text>
<text text-anchor="start" x="316.7798" y="-143.9" font-family="Arial" font-size="14.00" fill="#666666">[bigint unsigned]</text>
<polygon fill="none" stroke="#000000" points="295,-102.5 295,-132.5 490,-132.5 490,-102.5 295,-102.5"/>
<text text-anchor="start" x="301.864" y="-113.9" font-family="Arial" font-size="14.00" fill="#000000">train_line_id </text>
<text text-anchor="start" x="381.2104" y="-113.9" font-family="Arial" font-size="14.00" fill="#666666">[bigint unsigned]</text>
<polygon fill="none" stroke="#000000" points="295,-72.5 295,-102.5 490,-102.5 490,-72.5 295,-72.5"/>
<text text-anchor="start" x="302" y="-83.9" font-family="Arial" font-size="14.00" fill="#000000">office_name </text>
<text text-anchor="start" x="382.1346" y="-83.9" font-family="Arial" font-size="14.00" fill="#666666">[varchar(64)]</text>
<polygon fill="none" stroke="#000000" points="295,-42.5 295,-72.5 490,-72.5 490,-42.5 295,-42.5"/>
<text text-anchor="start" x="302" y="-53.9" font-family="Arial" font-size="14.00" fill="#000000">office_description </text>
<text text-anchor="start" x="414.8036" y="-53.9" font-family="Arial" font-size="14.00" fill="#666666">[text]</text>
</g>
<!-- c_works&#45;&gt;offices -->
<g id="edge2" class="edge">
<title>c_works:office_id&#45;&gt;offices:id</title>
<path fill="none" stroke="#000000" d="M294.0091,-366.7034C205.6397,-352.3032 200.5808,-147.5 295,-147.5"/>
<polygon fill="#000000" stroke="#000000" points="294.0316,-366.7051 303.6423,-371.9858 299.0158,-367.1025 304,-367.5 304,-367.5 304,-367.5 299.0158,-367.1025 304.3577,-363.0142 294.0316,-366.7051 294.0316,-366.7051"/>
<text text-anchor="start" x="62.497" y="-377.5" font-family="Arial" font-size="10.00" fill="#000000">FOREIGN KEY (office_id) REFERENCES offices (id)</text>
</g>
<!-- c_work_sta_relations -->
<g id="node2" class="node">
<title>c_work_sta_relations</title>
<polygon fill="#efefef" stroke="transparent" points="253,-692.5 253,-727.5 533,-727.5 533,-692.5 253,-692.5"/>
<polygon fill="none" stroke="#000000" points="253,-692.5 253,-727.5 533,-727.5 533,-692.5 253,-692.5"/>
<text text-anchor="start" x="259.8595" y="-705.3" font-family="Arial Bold" font-size="18.00" fill="#000000">c_work_sta_relations</text>
<text text-anchor="start" x="428.8867" y="-705.3" font-family="Arial" font-size="14.00" fill="#000000"> </text>
<text text-anchor="start" x="432.7773" y="-705.3" font-family="Arial" font-size="14.00" fill="#666666">[BASE TABLE]</text>
<polygon fill="none" stroke="#000000" points="253,-662.5 253,-692.5 533,-692.5 533,-662.5 253,-662.5"/>
<text text-anchor="start" x="260" y="-673.9" font-family="Arial" font-size="14.00" fill="#000000">work_id </text>
<text text-anchor="start" x="312.1122" y="-673.9" font-family="Arial" font-size="14.00" fill="#666666">[bigint unsigned]</text>
<polygon fill="none" stroke="#000000" points="253,-632.5 253,-662.5 533,-662.5 533,-632.5 253,-632.5"/>
<text text-anchor="start" x="260" y="-643.9" font-family="Arial" font-size="14.00" fill="#000000">sta_time_from_id </text>
<text text-anchor="start" x="371.2356" y="-643.9" font-family="Arial" font-size="14.00" fill="#666666">[bigint unsigned]</text>
<polygon fill="none" stroke="#000000" points="253,-602.5 253,-632.5 533,-632.5 533,-602.5 253,-602.5"/>
<text text-anchor="start" x="260" y="-613.9" font-family="Arial" font-size="14.00" fill="#000000">sta_time_to_id </text>
<text text-anchor="start" x="354.9144" y="-613.9" font-family="Arial" font-size="14.00" fill="#666666">[bigint unsigned]</text>
<polygon fill="none" stroke="#000000" points="253,-572.5 253,-602.5 533,-602.5 533,-572.5 253,-572.5"/>
<text text-anchor="start" x="260" y="-583.9" font-family="Arial" font-size="14.00" fill="#000000">is_no_work </text>
<text text-anchor="start" x="334.6774" y="-583.9" font-family="Arial" font-size="14.00" fill="#666666">[bit(1)]</text>
</g>
<!-- c_work_sta_relations&#45;&gt;c_works -->
<g id="edge1" class="edge">
<title>c_work_sta_relations:work_id&#45;&gt;c_works:id</title>
<path fill="none" stroke="#000000" d="M243.0278,-676.6476C190.0153,-666.9613 212.7421,-577.1131 253,-530 319.6447,-452.0068 414.3553,-571.9932 481,-494 508.8619,-461.3937 523.8889,-397.5 481,-397.5"/>
<polygon fill="#000000" stroke="#000000" points="243.0363,-676.6482 252.6167,-681.9836 248.0182,-677.0741 253,-677.5 253,-677.5 253,-677.5 248.0182,-677.0741 253.3833,-673.0164 243.0363,-676.6482 243.0363,-676.6482"/>
<text text-anchor="start" x="7.0055" y="-687.5" font-family="Arial" font-size="10.00" fill="#000000">FOREIGN KEY (work_id) REFERENCES c_works (id)</text>
</g>
</g>
</svg>
