<?xml version="1.0" encoding="UTF-8" standalone="no"?>
<!DOCTYPE svg PUBLIC "-//W3C//DTD SVG 1.1//EN"
 "http://www.w3.org/Graphics/SVG/1.1/DTD/svg11.dtd">
<!-- Generated by graphviz version 2.40.1 (20161225.0304)
 -->
<!-- Title: c_work_sta_relations Pages: 1 -->
<svg width="631pt" height="712pt"
 viewBox="0.00 0.00 631.00 712.00" xmlns="http://www.w3.org/2000/svg" xmlns:xlink="http://www.w3.org/1999/xlink">
<g id="graph0" class="graph" transform="scale(1 1) rotate(0) translate(4 708)">
<title>c_work_sta_relations</title>
<polygon fill="#ffffff" stroke="transparent" points="-4,4 -4,-708 627,-708 627,4 -4,4"/>
<!-- c_work_sta_relations -->
<g id="node1" class="node">
<title>c_work_sta_relations</title>
<polygon fill="#efefef" stroke="transparent" points="297,-622.5 297,-657.5 577,-657.5 577,-622.5 297,-622.5"/>
<polygon fill="none" stroke="#000000" points="297,-622.5 297,-657.5 577,-657.5 577,-622.5 297,-622.5"/>
<text text-anchor="start" x="303.8595" y="-635.3" font-family="Arial Bold" font-size="18.00" fill="#000000">c_work_sta_relations</text>
<text text-anchor="start" x="472.8867" y="-635.3" font-family="Arial" font-size="14.00" fill="#000000"> </text>
<text text-anchor="start" x="476.7773" y="-635.3" font-family="Arial" font-size="14.00" fill="#666666">[BASE TABLE]</text>
<polygon fill="none" stroke="#000000" points="297,-592.5 297,-622.5 577,-622.5 577,-592.5 297,-592.5"/>
<text text-anchor="start" x="304" y="-603.9" font-family="Arial" font-size="14.00" fill="#000000">work_id </text>
<text text-anchor="start" x="356.1122" y="-603.9" font-family="Arial" font-size="14.00" fill="#666666">[bigint unsigned]</text>
<polygon fill="none" stroke="#000000" points="297,-562.5 297,-592.5 577,-592.5 577,-562.5 297,-562.5"/>
<text text-anchor="start" x="304" y="-573.9" font-family="Arial" font-size="14.00" fill="#000000">sta_time_from_id </text>
<text text-anchor="start" x="415.2356" y="-573.9" font-family="Arial" font-size="14.00" fill="#666666">[bigint unsigned]</text>
<polygon fill="none" stroke="#000000" points="297,-532.5 297,-562.5 577,-562.5 577,-532.5 297,-532.5"/>
<text text-anchor="start" x="304" y="-543.9" font-family="Arial" font-size="14.00" fill="#000000">sta_time_to_id </text>
<text text-anchor="start" x="398.9144" y="-543.9" font-family="Arial" font-size="14.00" fill="#666666">[bigint unsigned]</text>
<polygon fill="none" stroke="#000000" points="297,-502.5 297,-532.5 577,-532.5 577,-502.5 297,-502.5"/>
<text text-anchor="start" x="304" y="-513.9" font-family="Arial" font-size="14.00" fill="#000000">is_no_work </text>
<text text-anchor="start" x="378.6774" y="-513.9" font-family="Arial" font-size="14.00" fill="#666666">[bit(1)]</text>
<polygon fill="none" stroke="#000000" stroke-width="3" points="295.5,-501.5 295.5,-659.5 578.5,-659.5 578.5,-501.5 295.5,-501.5"/>
</g>
<!-- c_works -->
<g id="node2" class="node">
<title>c_works</title>
<polygon fill="#efefef" stroke="transparent" points="58,-237.5 58,-272.5 235,-272.5 235,-237.5 58,-237.5"/>
<polygon fill="none" stroke="#000000" points="58,-237.5 58,-272.5 235,-272.5 235,-237.5 58,-237.5"/>
<text text-anchor="start" x="64.8737" y="-250.3" font-family="Arial Bold" font-size="18.00" fill="#000000">c_works</text>
<text text-anchor="start" x="130.8725" y="-250.3" font-family="Arial" font-size="14.00" fill="#000000"> </text>
<text text-anchor="start" x="134.7631" y="-250.3" font-family="Arial" font-size="14.00" fill="#666666">[BASE TABLE]</text>
<polygon fill="none" stroke="#000000" points="58,-207.5 58,-237.5 235,-237.5 235,-207.5 58,-207.5"/>
<text text-anchor="start" x="65" y="-218.9" font-family="Arial" font-size="14.00" fill="#000000">id </text>
<text text-anchor="start" x="79.7798" y="-218.9" font-family="Arial" font-size="14.00" fill="#666666">[bigint unsigned]</text>
<polygon fill="none" stroke="#000000" points="58,-177.5 58,-207.5 235,-207.5 235,-177.5 58,-177.5"/>
<text text-anchor="start" x="65" y="-188.9" font-family="Arial" font-size="14.00" fill="#000000">office_id </text>
<text text-anchor="start" x="121.0154" y="-188.9" font-family="Arial" font-size="14.00" fill="#666666">[bigint unsigned]</text>
<polygon fill="none" stroke="#000000" points="58,-147.5 58,-177.5 235,-177.5 235,-147.5 58,-147.5"/>
<text text-anchor="start" x="65" y="-158.9" font-family="Arial" font-size="14.00" fill="#000000">work_name </text>
<text text-anchor="start" x="141.2314" y="-158.9" font-family="Arial" font-size="14.00" fill="#666666">[varchar(64)]</text>
</g>
<!-- c_work_sta_relations&#45;&gt;c_works -->
<g id="edge1" class="edge">
<title>c_work_sta_relations:work_id&#45;&gt;c_works:id</title>
<path fill="none" stroke="#000000" d="M286.8944,-605.4286C219.5428,-575.1249 317.9343,-222.5 235,-222.5"/>
<polygon fill="#000000" stroke="#000000" points="287.2037,-605.4919 296.0964,-611.9083 292.1018,-606.496 297,-607.5 297,-607.5 297,-607.5 292.1018,-606.496 297.9036,-603.0917 287.2037,-605.4919 287.2037,-605.4919"/>
<text text-anchor="start" x="51.0055" y="-617.5" font-family="Arial" font-size="10.00" fill="#000000">FOREIGN KEY (work_id) REFERENCES c_works (id)</text>
</g>
<!-- sta_time -->
<g id="node3" class="node">
<title>sta_time</title>
<polygon fill="#efefef" stroke="transparent" points="339,-342.5 339,-377.5 534,-377.5 534,-342.5 339,-342.5"/>
<polygon fill="none" stroke="#000000" points="339,-342.5 339,-377.5 534,-377.5 534,-342.5 339,-342.5"/>
<text text-anchor="start" x="353.8684" y="-355.3" font-family="Arial Bold" font-size="18.00" fill="#000000">sta_time</text>
<text text-anchor="start" x="421.8778" y="-355.3" font-family="Arial" font-size="14.00" fill="#000000"> </text>
<text text-anchor="start" x="425.7684" y="-355.3" font-family="Arial" font-size="14.00" fill="#666666">[BASE TABLE]</text>
<polygon fill="none" stroke="#000000" points="339,-312.5 339,-342.5 534,-342.5 534,-312.5 339,-312.5"/>
<text text-anchor="start" x="346" y="-323.9" font-family="Arial" font-size="14.00" fill="#000000">id </text>
<text text-anchor="start" x="360.7798" y="-323.9" font-family="Arial" font-size="14.00" fill="#666666">[bigint unsigned]</text>
<polygon fill="none" stroke="#000000" points="339,-282.5 339,-312.5 534,-312.5 534,-282.5 339,-282.5"/>
<text text-anchor="start" x="346" y="-293.9" font-family="Arial" font-size="14.00" fill="#000000">train_id </text>
<text text-anchor="start" x="395.7854" y="-293.9" font-family="Arial" font-size="14.00" fill="#666666">[bigint unsigned]</text>
<polygon fill="none" stroke="#000000" points="339,-252.5 339,-282.5 534,-282.5 534,-252.5 339,-252.5"/>
<text text-anchor="start" x="345.8542" y="-263.9" font-family="Arial" font-size="14.00" fill="#000000">stop_pos_id </text>
<text text-anchor="start" x="425.2202" y="-263.9" font-family="Arial" font-size="14.00" fill="#666666">[bigint unsigned]</text>
<polygon fill="none" stroke="#000000" points="339,-222.5 339,-252.5 534,-252.5 534,-222.5 339,-222.5"/>
<text text-anchor="start" x="346" y="-233.9" font-family="Arial" font-size="14.00" fill="#000000">arr_time </text>
<text text-anchor="start" x="401.2174" y="-233.9" font-family="Arial" font-size="14.00" fill="#666666">[time]</text>
<polygon fill="none" stroke="#000000" points="339,-192.5 339,-222.5 534,-222.5 534,-192.5 339,-192.5"/>
<text text-anchor="start" x="346" y="-203.9" font-family="Arial" font-size="14.00" fill="#000000">dep_time </text>
<text text-anchor="start" x="407.4614" y="-203.9" font-family="Arial" font-size="14.00" fill="#666666">[time]</text>
<polygon fill="none" stroke="#000000" points="339,-162.5 339,-192.5 534,-192.5 534,-162.5 339,-162.5"/>
<text text-anchor="start" x="346" y="-173.9" font-family="Arial" font-size="14.00" fill="#000000">is_pass </text>
<text text-anchor="start" x="397.345" y="-173.9" font-family="Arial" font-size="14.00" fill="#666666">[bit(1)]</text>
<polygon fill="none" stroke="#000000" points="339,-132.5 339,-162.5 534,-162.5 534,-132.5 339,-132.5"/>
<text text-anchor="start" x="346" y="-143.9" font-family="Arial" font-size="14.00" fill="#000000">track_id </text>
<text text-anchor="start" x="398.8962" y="-143.9" font-family="Arial" font-size="14.00" fill="#666666">[bigint unsigned]</text>
<polygon fill="none" stroke="#000000" points="339,-102.5 339,-132.5 534,-132.5 534,-102.5 339,-102.5"/>
<text text-anchor="start" x="346" y="-113.9" font-family="Arial" font-size="14.00" fill="#000000">radio_ch_id </text>
<text text-anchor="start" x="422.2426" y="-113.9" font-family="Arial" font-size="14.00" fill="#666666">[bigint unsigned]</text>
<polygon fill="none" stroke="#000000" points="339,-72.5 339,-102.5 534,-102.5 534,-72.5 339,-72.5"/>
<text text-anchor="start" x="346" y="-83.9" font-family="Arial" font-size="14.00" fill="#000000">sta_color </text>
<text text-anchor="start" x="406.6788" y="-83.9" font-family="Arial" font-size="14.00" fill="#666666">[char(8)]</text>
<polygon fill="none" stroke="#000000" points="339,-42.5 339,-72.5 534,-72.5 534,-42.5 339,-42.5"/>
<text text-anchor="start" x="346" y="-53.9" font-family="Arial" font-size="14.00" fill="#000000">line_color </text>
<text text-anchor="start" x="409.784" y="-53.9" font-family="Arial" font-size="14.00" fill="#666666">[char(8)]</text>
</g>
<!-- c_work_sta_relations&#45;&gt;sta_time -->
<g id="edge2" class="edge">
<title>c_work_sta_relations:sta_time_from_id&#45;&gt;sta_time:id</title>
<path fill="none" stroke="#000000" d="M287.0112,-576.4181C246.0696,-566.7616 264.4761,-494.8373 297,-457 366.4494,-376.2047 464.5506,-501.7953 534,-421 561.0881,-389.4865 575.5556,-327.5 534,-327.5"/>
<polygon fill="#000000" stroke="#000000" points="287.0581,-576.4231 296.5154,-581.9738 292.0291,-576.9616 297,-577.5 297,-577.5 297,-577.5 292.0291,-576.9616 297.4846,-573.0262 287.0581,-576.4231 287.0581,-576.4231"/>
<text text-anchor="start" x="7.3315" y="-587.5" font-family="Arial" font-size="10.00" fill="#000000">FOREIGN KEY (sta_time_from_id) REFERENCES sta_time (id)</text>
</g>
<!-- c_work_sta_relations&#45;&gt;sta_time -->
<g id="edge3" class="edge">
<title>c_work_sta_relations:sta_time_to_id&#45;&gt;sta_time:id</title>
<path fill="none" stroke="#000000" d="M287.0827,-545.9918C259.5108,-536.5097 273.2391,-484.6428 297,-457 366.4494,-376.2047 464.5506,-501.7953 534,-421 561.0881,-389.4865 575.5556,-327.5 534,-327.5"/>
<polygon fill="#000000" stroke="#000000" points="287.1137,-545.9964 296.3234,-551.9488 292.0568,-546.7482 297,-547.5 297,-547.5 297,-547.5 292.0568,-546.7482 297.6766,-543.0512 287.1137,-545.9964 287.1137,-545.9964"/>
<text text-anchor="start" x="19.1605" y="-557.5" font-family="Arial" font-size="10.00" fill="#000000">FOREIGN KEY (sta_time_to_id) REFERENCES sta_time (id)</text>
</g>
</g>
</svg>
