<?xml version="1.0" encoding="UTF-8" standalone="no"?>
<!DOCTYPE svg PUBLIC "-//W3C//DTD SVG 1.1//EN"
 "http://www.w3.org/Graphics/SVG/1.1/DTD/svg11.dtd">
<!-- Generated by graphviz version 2.40.1 (20161225.0304)
 -->
<!-- Title: car_types Pages: 1 -->
<svg width="531pt" height="839pt"
 viewBox="0.00 0.00 530.50 839.00" xmlns="http://www.w3.org/2000/svg" xmlns:xlink="http://www.w3.org/1999/xlink">
<g id="graph0" class="graph" transform="scale(1 1) rotate(0) translate(4 835)">
<title>car_types</title>
<polygon fill="#ffffff" stroke="transparent" points="-4,4 -4,-835 526.5,-835 526.5,4 -4,4"/>
<!-- car_types -->
<g id="node1" class="node">
<title>car_types</title>
<polygon fill="#efefef" stroke="transparent" points="282,-472.5 282,-507.5 477,-507.5 477,-472.5 282,-472.5"/>
<polygon fill="none" stroke="#000000" points="282,-472.5 282,-507.5 477,-507.5 477,-472.5 282,-472.5"/>
<text text-anchor="start" x="291.8635" y="-485.3" font-family="Arial Bold" font-size="18.00" fill="#000000">car_types</text>
<text text-anchor="start" x="369.8827" y="-485.3" font-family="Arial" font-size="14.00" fill="#000000"> </text>
<text text-anchor="start" x="373.7733" y="-485.3" font-family="Arial" font-size="14.00" fill="#666666">[BASE TABLE]</text>
<polygon fill="none" stroke="#000000" points="282,-442.5 282,-472.5 477,-472.5 477,-442.5 282,-442.5"/>
<text text-anchor="start" x="289" y="-453.9" font-family="Arial" font-size="14.00" fill="#000000">id </text>
<text text-anchor="start" x="303.7798" y="-453.9" font-family="Arial" font-size="14.00" fill="#666666">[bigint unsigned]</text>
<polygon fill="none" stroke="#000000" points="282,-412.5 282,-442.5 477,-442.5 477,-412.5 282,-412.5"/>
<text text-anchor="start" x="288.864" y="-423.9" font-family="Arial" font-size="14.00" fill="#000000">train_line_id </text>
<text text-anchor="start" x="368.2104" y="-423.9" font-family="Arial" font-size="14.00" fill="#666666">[bigint unsigned]</text>
<polygon fill="none" stroke="#000000" points="282,-382.5 282,-412.5 477,-412.5 477,-382.5 282,-382.5"/>
<text text-anchor="start" x="289" y="-393.9" font-family="Arial" font-size="14.00" fill="#000000">car_type_name </text>
<text text-anchor="start" x="389.3632" y="-393.9" font-family="Arial" font-size="14.00" fill="#666666">[varchar(64)]</text>
<polygon fill="none" stroke="#000000" points="282,-352.5 282,-382.5 477,-382.5 477,-352.5 282,-352.5"/>
<text text-anchor="start" x="289" y="-363.9" font-family="Arial" font-size="14.00" fill="#000000">car_length </text>
<text text-anchor="start" x="358.244" y="-363.9" font-family="Arial" font-size="14.00" fill="#666666">[int]</text>
<polygon fill="none" stroke="#000000" stroke-width="3" points="280,-351.5 280,-509.5 478,-509.5 478,-351.5 280,-351.5"/>
</g>
<!-- train_lines -->
<g id="node3" class="node">
<title>train_lines</title>
<polygon fill="#efefef" stroke="transparent" points="283,-192.5 283,-227.5 476,-227.5 476,-192.5 283,-192.5"/>
<polygon fill="none" stroke="#000000" points="283,-192.5 283,-227.5 476,-227.5 476,-192.5 283,-192.5"/>
<text text-anchor="start" x="289.8691" y="-205.3" font-family="Arial Bold" font-size="18.00" fill="#000000">train_lines</text>
<text text-anchor="start" x="371.8771" y="-205.3" font-family="Arial" font-size="14.00" fill="#000000"> </text>
<text text-anchor="start" x="375.7677" y="-205.3" font-family="Arial" font-size="14.00" fill="#666666">[BASE TABLE]</text>
<polygon fill="none" stroke="#000000" points="283,-162.5 283,-192.5 476,-192.5 476,-162.5 283,-162.5"/>
<text text-anchor="start" x="290" y="-173.9" font-family="Arial" font-size="14.00" fill="#000000">id </text>
<text text-anchor="start" x="304.7798" y="-173.9" font-family="Arial" font-size="14.00" fill="#666666">[bigint unsigned]</text>
<polygon fill="none" stroke="#000000" points="283,-132.5 283,-162.5 476,-162.5 476,-132.5 283,-132.5"/>
<text text-anchor="start" x="290" y="-143.9" font-family="Arial" font-size="14.00" fill="#000000">line_name </text>
<text text-anchor="start" x="358.46" y="-143.9" font-family="Arial" font-size="14.00" fill="#666666">[varchar(255)]</text>
<polygon fill="none" stroke="#000000" points="283,-102.5 283,-132.5 476,-132.5 476,-102.5 283,-102.5"/>
<text text-anchor="start" x="290" y="-113.9" font-family="Arial" font-size="14.00" fill="#000000">created_at </text>
<text text-anchor="start" x="360.028" y="-113.9" font-family="Arial" font-size="14.00" fill="#666666">[date]</text>
<polygon fill="none" stroke="#000000" points="283,-72.5 283,-102.5 476,-102.5 476,-72.5 283,-72.5"/>
<text text-anchor="start" x="290" y="-83.9" font-family="Arial" font-size="14.00" fill="#000000">effected_at </text>
<text text-anchor="start" x="363.1486" y="-83.9" font-family="Arial" font-size="14.00" fill="#666666">[date]</text>
<polygon fill="none" stroke="#000000" points="283,-42.5 283,-72.5 476,-72.5 476,-42.5 283,-42.5"/>
<text text-anchor="start" x="290" y="-53.9" font-family="Arial" font-size="14.00" fill="#000000">line_description </text>
<text text-anchor="start" x="391.129" y="-53.9" font-family="Arial" font-size="14.00" fill="#666666">[text]</text>
</g>
<!-- car_types&#45;&gt;train_lines -->
<g id="edge2" class="edge">
<title>car_types:train_line_id&#45;&gt;train_lines:id</title>
<path fill="none" stroke="#000000" d="M271.9116,-426.7828C171.058,-412.1191 175.3603,-177.5 283,-177.5"/>
<polygon fill="#000000" stroke="#000000" points="272.0252,-426.7908 281.6809,-431.9887 277.0126,-427.1454 282,-427.5 282,-427.5 282,-427.5 277.0126,-427.1454 282.3191,-423.0113 272.0252,-426.7908 272.0252,-426.7908"/>
<text text-anchor="start" x="6.832" y="-437.5" font-family="Arial" font-size="10.00" fill="#000000">FOREIGN KEY (train_line_id) REFERENCES train_lines (id)</text>
</g>
<!-- a_works -->
<g id="node2" class="node">
<title>a_works</title>
<polygon fill="#efefef" stroke="transparent" points="284,-752.5 284,-787.5 476,-787.5 476,-752.5 284,-752.5"/>
<polygon fill="none" stroke="#000000" points="284,-752.5 284,-787.5 476,-787.5 476,-752.5 284,-752.5"/>
<text text-anchor="start" x="297.8706" y="-765.3" font-family="Arial Bold" font-size="18.00" fill="#000000">a_works</text>
<text text-anchor="start" x="364.8756" y="-765.3" font-family="Arial" font-size="14.00" fill="#000000"> </text>
<text text-anchor="start" x="368.7662" y="-765.3" font-family="Arial" font-size="14.00" fill="#666666">[BASE TABLE]</text>
<polygon fill="none" stroke="#000000" points="284,-722.5 284,-752.5 476,-752.5 476,-722.5 284,-722.5"/>
<text text-anchor="start" x="291" y="-733.9" font-family="Arial" font-size="14.00" fill="#000000">id </text>
<text text-anchor="start" x="305.7798" y="-733.9" font-family="Arial" font-size="14.00" fill="#666666">[bigint unsigned]</text>
<polygon fill="none" stroke="#000000" points="284,-692.5 284,-722.5 476,-722.5 476,-692.5 284,-692.5"/>
<text text-anchor="start" x="291" y="-703.9" font-family="Arial" font-size="14.00" fill="#000000">office_id </text>
<text text-anchor="start" x="347.0154" y="-703.9" font-family="Arial" font-size="14.00" fill="#666666">[bigint unsigned]</text>
<polygon fill="none" stroke="#000000" points="284,-662.5 284,-692.5 476,-692.5 476,-662.5 284,-662.5"/>
<text text-anchor="start" x="291" y="-673.9" font-family="Arial" font-size="14.00" fill="#000000">work_name </text>
<text text-anchor="start" x="367.2314" y="-673.9" font-family="Arial" font-size="14.00" fill="#666666">[varchar(64)]</text>
<polygon fill="none" stroke="#000000" points="284,-632.5 284,-662.5 476,-662.5 476,-632.5 284,-632.5"/>
<text text-anchor="start" x="290.9152" y="-643.9" font-family="Arial" font-size="14.00" fill="#000000">car_type_id </text>
<text text-anchor="start" x="367.1592" y="-643.9" font-family="Arial" font-size="14.00" fill="#666666">[bigint unsigned]</text>
</g>
<!-- a_works&#45;&gt;car_types -->
<g id="edge1" class="edge">
<title>a_works:car_type_id&#45;&gt;car_types:id</title>
<path fill="none" stroke="#000000" d="M380.9315,-622.4957C389.4936,-580.288 454.7023,-600.7298 477,-554 495.4701,-515.2919 519.8889,-457.5 477,-457.5"/>
<polygon fill="#000000" stroke="#000000" points="380.9271,-622.5431 375.5194,-632.0828 380.4636,-627.5215 380,-632.5 380,-632.5 380,-632.5 380.4636,-627.5215 384.4806,-632.9172 380.9271,-622.5431 380.9271,-622.5431"/>
<text text-anchor="start" x="110.048" y="-642.5" font-family="Arial" font-size="10.00" fill="#000000">FOREIGN KEY (car_type_id) REFERENCES car_types (id)</text>
</g>
</g>
</svg>
