<?xml version="1.0" encoding="UTF-8" standalone="no"?>
<!DOCTYPE svg PUBLIC "-//W3C//DTD SVG 1.1//EN"
 "http://www.w3.org/Graphics/SVG/1.1/DTD/svg11.dtd">
<!-- Generated by graphviz version 2.40.1 (20161225.0304)
 -->
<!-- Title: line_tag_relations Pages: 1 -->
<svg width="822pt" height="502pt"
 viewBox="0.00 0.00 822.00 502.00" xmlns="http://www.w3.org/2000/svg" xmlns:xlink="http://www.w3.org/1999/xlink">
<g id="graph0" class="graph" transform="scale(1 1) rotate(0) translate(4 498)">
<title>line_tag_relations</title>
<polygon fill="#ffffff" stroke="transparent" points="-4,4 -4,-498 818,-498 818,4 -4,4"/>
<!-- line_tag_relations -->
<g id="node1" class="node">
<title>line_tag_relations</title>
<polygon fill="#efefef" stroke="transparent" points="280,-412.5 280,-447.5 532,-447.5 532,-412.5 280,-412.5"/>
<polygon fill="none" stroke="#000000" points="280,-412.5 280,-447.5 532,-447.5 532,-412.5 280,-412.5"/>
<text text-anchor="start" x="286.8554" y="-425.3" font-family="Arial Bold" font-size="18.00" fill="#000000">line_tag_relations</text>
<text text-anchor="start" x="427.8908" y="-425.3" font-family="Arial" font-size="14.00" fill="#000000"> </text>
<text text-anchor="start" x="431.7814" y="-425.3" font-family="Arial" font-size="14.00" fill="#666666">[BASE TABLE]</text>
<polygon fill="none" stroke="#000000" points="280,-382.5 280,-412.5 532,-412.5 532,-382.5 280,-382.5"/>
<text text-anchor="start" x="287" y="-393.9" font-family="Arial" font-size="14.00" fill="#000000">tag_id </text>
<text text-anchor="start" x="329.0182" y="-393.9" font-family="Arial" font-size="14.00" fill="#666666">[bigint unsigned]</text>
<polygon fill="none" stroke="#000000" points="280,-352.5 280,-382.5 532,-382.5 532,-352.5 280,-352.5"/>
<text text-anchor="start" x="287" y="-363.9" font-family="Arial" font-size="14.00" fill="#000000">train_line_id </text>
<text text-anchor="start" x="366.3464" y="-363.9" font-family="Arial" font-size="14.00" fill="#666666">[bigint unsigned]</text>
<polygon fill="none" stroke="#000000" stroke-width="3" points="278.5,-351.5 278.5,-449.5 533.5,-449.5 533.5,-351.5 278.5,-351.5"/>
</g>
<!-- line_tag_names -->
<g id="node2" class="node">
<title>line_tag_names</title>
<polygon fill="#efefef" stroke="transparent" points="127,-162.5 127,-197.5 365,-197.5 365,-162.5 127,-162.5"/>
<polygon fill="none" stroke="#000000" points="127,-162.5 127,-197.5 365,-197.5 365,-162.5 127,-162.5"/>
<text text-anchor="start" x="133.8538" y="-175.3" font-family="Arial Bold" font-size="18.00" fill="#000000">line_tag_names</text>
<text text-anchor="start" x="260.8924" y="-175.3" font-family="Arial" font-size="14.00" fill="#000000"> </text>
<text text-anchor="start" x="264.783" y="-175.3" font-family="Arial" font-size="14.00" fill="#666666">[BASE TABLE]</text>
<polygon fill="none" stroke="#000000" points="127,-132.5 127,-162.5 365,-162.5 365,-132.5 127,-132.5"/>
<text text-anchor="start" x="134" y="-143.9" font-family="Arial" font-size="14.00" fill="#000000">id </text>
<text text-anchor="start" x="148.7798" y="-143.9" font-family="Arial" font-size="14.00" fill="#666666">[bigint unsigned]</text>
<polygon fill="none" stroke="#000000" points="127,-102.5 127,-132.5 365,-132.5 365,-102.5 127,-102.5"/>
<text text-anchor="start" x="134" y="-113.9" font-family="Arial" font-size="14.00" fill="#000000">tag_name </text>
<text text-anchor="start" x="200.1374" y="-113.9" font-family="Arial" font-size="14.00" fill="#666666">[varchar(255)]</text>
<polygon fill="none" stroke="#000000" points="127,-72.5 127,-102.5 365,-102.5 365,-72.5 127,-72.5"/>
<text text-anchor="start" x="134" y="-83.9" font-family="Arial" font-size="14.00" fill="#000000">tag_description </text>
<text text-anchor="start" x="232.8064" y="-83.9" font-family="Arial" font-size="14.00" fill="#666666">[text]</text>
</g>
<!-- line_tag_relations&#45;&gt;line_tag_names -->
<g id="edge1" class="edge">
<title>line_tag_relations:tag_id&#45;&gt;line_tag_names:id</title>
<path fill="none" stroke="#000000" d="M269.9487,-396.012C244.1331,-387.0539 264.0408,-339.5972 280,-307 301.0312,-264.0431 343.9688,-283.9569 365,-241 383.2727,-203.6775 406.5556,-147.5 365,-147.5"/>
<polygon fill="#000000" stroke="#000000" points="270.1078,-396.0354 279.3409,-401.9515 275.0539,-396.7677 280,-397.5 280,-397.5 280,-397.5 275.0539,-396.7677 280.6591,-393.0485 270.1078,-396.0354 270.1078,-396.0354"/>
<text text-anchor="start" x="6.655" y="-407.5" font-family="Arial" font-size="10.00" fill="#000000">FOREIGN KEY (tag_id) REFERENCES line_tag_names (id)</text>
</g>
<!-- train_lines -->
<g id="node3" class="node">
<title>train_lines</title>
<polygon fill="#efefef" stroke="transparent" points="470,-192.5 470,-227.5 663,-227.5 663,-192.5 470,-192.5"/>
<polygon fill="none" stroke="#000000" points="470,-192.5 470,-227.5 663,-227.5 663,-192.5 470,-192.5"/>
<text text-anchor="start" x="476.8691" y="-205.3" font-family="Arial Bold" font-size="18.00" fill="#000000">train_lines</text>
<text text-anchor="start" x="558.8771" y="-205.3" font-family="Arial" font-size="14.00" fill="#000000"> </text>
<text text-anchor="start" x="562.7677" y="-205.3" font-family="Arial" font-size="14.00" fill="#666666">[BASE TABLE]</text>
<polygon fill="none" stroke="#000000" points="470,-162.5 470,-192.5 663,-192.5 663,-162.5 470,-162.5"/>
<text text-anchor="start" x="477" y="-173.9" font-family="Arial" font-size="14.00" fill="#000000">id </text>
<text text-anchor="start" x="491.7798" y="-173.9" font-family="Arial" font-size="14.00" fill="#666666">[bigint unsigned]</text>
<polygon fill="none" stroke="#000000" points="470,-132.5 470,-162.5 663,-162.5 663,-132.5 470,-132.5"/>
<text text-anchor="start" x="477" y="-143.9" font-family="Arial" font-size="14.00" fill="#000000">line_name </text>
<text text-anchor="start" x="545.46" y="-143.9" font-family="Arial" font-size="14.00" fill="#666666">[varchar(255)]</text>
<polygon fill="none" stroke="#000000" points="470,-102.5 470,-132.5 663,-132.5 663,-102.5 470,-102.5"/>
<text text-anchor="start" x="477" y="-113.9" font-family="Arial" font-size="14.00" fill="#000000">created_at </text>
<text text-anchor="start" x="547.028" y="-113.9" font-family="Arial" font-size="14.00" fill="#666666">[date]</text>
<polygon fill="none" stroke="#000000" points="470,-72.5 470,-102.5 663,-102.5 663,-72.5 470,-72.5"/>
<text text-anchor="start" x="477" y="-83.9" font-family="Arial" font-size="14.00" fill="#000000">effected_at </text>
<text text-anchor="start" x="550.1486" y="-83.9" font-family="Arial" font-size="14.00" fill="#666666">[date]</text>
<polygon fill="none" stroke="#000000" points="470,-42.5 470,-72.5 663,-72.5 663,-42.5 470,-42.5"/>
<text text-anchor="start" x="477" y="-53.9" font-family="Arial" font-size="14.00" fill="#000000">line_description </text>
<text text-anchor="start" x="578.129" y="-53.9" font-family="Arial" font-size="14.00" fill="#666666">[text]</text>
</g>
<!-- line_tag_relations&#45;&gt;train_lines -->
<g id="edge2" class="edge">
<title>line_tag_relations:train_line_id&#45;&gt;train_lines:id</title>
<path fill="none" stroke="#000000" d="M541.8021,-364.9705C554.6799,-356.2152 543.3195,-326.6619 532,-307 516.1021,-279.3854 485.8979,-298.6146 470,-271 449.2666,-234.9862 428.4444,-177.5 470,-177.5"/>
<polygon fill="#000000" stroke="#000000" points="541.6828,-365.0012 530.8756,-363.1427 536.8414,-366.2506 532,-367.5 532,-367.5 532,-367.5 536.8414,-366.2506 533.1244,-371.8573 541.6828,-365.0012 541.6828,-365.0012"/>
<text text-anchor="start" x="538.832" y="-377.5" font-family="Arial" font-size="10.00" fill="#000000">FOREIGN KEY (train_line_id) REFERENCES train_lines (id)</text>
</g>
</g>
</svg>
