<?xml version="1.0" encoding="UTF-8" standalone="no"?>
<!DOCTYPE svg PUBLIC "-//W3C//DTD SVG 1.1//EN"
 "http://www.w3.org/Graphics/SVG/1.1/DTD/svg11.dtd">
<!-- Generated by graphviz version 2.40.1 (20161225.0304)
 -->
<!-- Title: line_tag_names Pages: 1 -->
<svg width="583pt" height="442pt"
 viewBox="0.00 0.00 583.00 442.00" xmlns="http://www.w3.org/2000/svg" xmlns:xlink="http://www.w3.org/1999/xlink">
<g id="graph0" class="graph" transform="scale(1 1) rotate(0) translate(4 438)">
<title>line_tag_names</title>
<polygon fill="#ffffff" stroke="transparent" points="-4,4 -4,-438 579,-438 579,4 -4,4"/>
<!-- line_tag_names -->
<g id="node1" class="node">
<title>line_tag_names</title>
<polygon fill="#efefef" stroke="transparent" points="50,-135.5 50,-170.5 288,-170.5 288,-135.5 50,-135.5"/>
<polygon fill="none" stroke="#000000" points="50,-135.5 50,-170.5 288,-170.5 288,-135.5 50,-135.5"/>
<text text-anchor="start" x="56.8538" y="-148.3" font-family="Arial Bold" font-size="18.00" fill="#000000">line_tag_names</text>
<text text-anchor="start" x="183.8924" y="-148.3" font-family="Arial" font-size="14.00" fill="#000000"> </text>
<text text-anchor="start" x="187.783" y="-148.3" font-family="Arial" font-size="14.00" fill="#666666">[BASE TABLE]</text>
<polygon fill="none" stroke="#000000" points="50,-105.5 50,-135.5 288,-135.5 288,-105.5 50,-105.5"/>
<text text-anchor="start" x="57" y="-116.9" font-family="Arial" font-size="14.00" fill="#000000">id </text>
<text text-anchor="start" x="71.7798" y="-116.9" font-family="Arial" font-size="14.00" fill="#666666">[bigint unsigned]</text>
<polygon fill="none" stroke="#000000" points="50,-75.5 50,-105.5 288,-105.5 288,-75.5 50,-75.5"/>
<text text-anchor="start" x="57" y="-86.9" font-family="Arial" font-size="14.00" fill="#000000">tag_name </text>
<text text-anchor="start" x="123.1374" y="-86.9" font-family="Arial" font-size="14.00" fill="#666666">[varchar(255)]</text>
<polygon fill="none" stroke="#000000" points="50,-45.5 50,-75.5 288,-75.5 288,-45.5 50,-45.5"/>
<text text-anchor="start" x="57" y="-56.9" font-family="Arial" font-size="14.00" fill="#000000">tag_description </text>
<text text-anchor="start" x="155.8064" y="-56.9" font-family="Arial" font-size="14.00" fill="#666666">[text]</text>
<polygon fill="none" stroke="#000000" stroke-width="3" points="48.5,-44.5 48.5,-172.5 289.5,-172.5 289.5,-44.5 48.5,-44.5"/>
</g>
<!-- line_tag_relations -->
<g id="node2" class="node">
<title>line_tag_relations</title>
<polygon fill="#efefef" stroke="transparent" points="43,-355.5 43,-390.5 295,-390.5 295,-355.5 43,-355.5"/>
<polygon fill="none" stroke="#000000" points="43,-355.5 43,-390.5 295,-390.5 295,-355.5 43,-355.5"/>
<text text-anchor="start" x="49.8554" y="-368.3" font-family="Arial Bold" font-size="18.00" fill="#000000">line_tag_relations</text>
<text text-anchor="start" x="190.8908" y="-368.3" font-family="Arial" font-size="14.00" fill="#000000"> </text>
<text text-anchor="start" x="194.7814" y="-368.3" font-family="Arial" font-size="14.00" fill="#666666">[BASE TABLE]</text>
<polygon fill="none" stroke="#000000" points="43,-325.5 43,-355.5 295,-355.5 295,-325.5 43,-325.5"/>
<text text-anchor="start" x="50" y="-336.9" font-family="Arial" font-size="14.00" fill="#000000">tag_id </text>
<text text-anchor="start" x="92.0182" y="-336.9" font-family="Arial" font-size="14.00" fill="#666666">[bigint unsigned]</text>
<polygon fill="none" stroke="#000000" points="43,-295.5 43,-325.5 295,-325.5 295,-295.5 43,-295.5"/>
<text text-anchor="start" x="50" y="-306.9" font-family="Arial" font-size="14.00" fill="#000000">train_line_id </text>
<text text-anchor="start" x="129.3464" y="-306.9" font-family="Arial" font-size="14.00" fill="#666666">[bigint unsigned]</text>
</g>
<!-- line_tag_relations&#45;&gt;line_tag_names -->
<g id="edge1" class="edge">
<title>line_tag_relations:tag_id&#45;&gt;line_tag_names:id</title>
<path fill="none" stroke="#000000" d="M305.1944,-339.6591C392.2028,-324.8888 382.2925,-120.5 288,-120.5"/>
<polygon fill="#000000" stroke="#000000" points="304.9662,-339.6778 294.63,-336.0152 299.9831,-340.0889 295,-340.5 295,-340.5 295,-340.5 299.9831,-340.0889 295.37,-344.9848 304.9662,-339.6778 304.9662,-339.6778"/>
<text text-anchor="start" x="301.655" y="-350.5" font-family="Arial" font-size="10.00" fill="#000000">FOREIGN KEY (tag_id) REFERENCES line_tag_names (id)</text>
</g>
</g>
</svg>
