<?xml version="1.0" encoding="UTF-8" standalone="no"?>
<!DOCTYPE svg PUBLIC "-//W3C//DTD SVG 1.1//EN"
 "http://www.w3.org/Graphics/SVG/1.1/DTD/svg11.dtd">
<!-- Generated by graphviz version 2.40.1 (20161225.0304)
 -->
<!-- Title: offices Pages: 1 -->
<svg width="879pt" height="839pt"
 viewBox="0.00 0.00 879.00 839.00" xmlns="http://www.w3.org/2000/svg" xmlns:xlink="http://www.w3.org/1999/xlink">
<g id="graph0" class="graph" transform="scale(1 1) rotate(0) translate(4 835)">
<title>offices</title>
<polygon fill="#ffffff" stroke="transparent" points="-4,4 -4,-835 875,-835 875,4 -4,4"/>
<!-- offices -->
<g id="node1" class="node">
<title>offices</title>
<polygon fill="#efefef" stroke="transparent" points="330,-472.5 330,-507.5 525,-507.5 525,-472.5 330,-472.5"/>
<polygon fill="none" stroke="#000000" points="330,-472.5 330,-507.5 525,-507.5 525,-472.5 330,-472.5"/>
<text text-anchor="start" x="352.8676" y="-485.3" font-family="Arial Bold" font-size="18.00" fill="#000000">offices</text>
<text text-anchor="start" x="404.8786" y="-485.3" font-family="Arial" font-size="14.00" fill="#000000"> </text>
<text text-anchor="start" x="408.7692" y="-485.3" font-family="Arial" font-size="14.00" fill="#666666">[BASE TABLE]</text>
<polygon fill="none" stroke="#000000" points="330,-442.5 330,-472.5 525,-472.5 525,-442.5 330,-442.5"/>
<text text-anchor="start" x="337" y="-453.9" font-family="Arial" font-size="14.00" fill="#000000">id </text>
<text text-anchor="start" x="351.7798" y="-453.9" font-family="Arial" font-size="14.00" fill="#666666">[bigint unsigned]</text>
<polygon fill="none" stroke="#000000" points="330,-412.5 330,-442.5 525,-442.5 525,-412.5 330,-412.5"/>
<text text-anchor="start" x="336.864" y="-423.9" font-family="Arial" font-size="14.00" fill="#000000">train_line_id </text>
<text text-anchor="start" x="416.2104" y="-423.9" font-family="Arial" font-size="14.00" fill="#666666">[bigint unsigned]</text>
<polygon fill="none" stroke="#000000" points="330,-382.5 330,-412.5 525,-412.5 525,-382.5 330,-382.5"/>
<text text-anchor="start" x="337" y="-393.9" font-family="Arial" font-size="14.00" fill="#000000">office_name </text>
<text text-anchor="start" x="417.1346" y="-393.9" font-family="Arial" font-size="14.00" fill="#666666">[varchar(64)]</text>
<polygon fill="none" stroke="#000000" points="330,-352.5 330,-382.5 525,-382.5 525,-352.5 330,-352.5"/>
<text text-anchor="start" x="337" y="-363.9" font-family="Arial" font-size="14.00" fill="#000000">office_description </text>
<text text-anchor="start" x="449.8036" y="-363.9" font-family="Arial" font-size="14.00" fill="#666666">[text]</text>
<polygon fill="none" stroke="#000000" stroke-width="3" points="328,-351.5 328,-509.5 526,-509.5 526,-351.5 328,-351.5"/>
</g>
<!-- train_lines -->
<g id="node5" class="node">
<title>train_lines</title>
<polygon fill="#efefef" stroke="transparent" points="331,-192.5 331,-227.5 524,-227.5 524,-192.5 331,-192.5"/>
<polygon fill="none" stroke="#000000" points="331,-192.5 331,-227.5 524,-227.5 524,-192.5 331,-192.5"/>
<text text-anchor="start" x="337.8691" y="-205.3" font-family="Arial Bold" font-size="18.00" fill="#000000">train_lines</text>
<text text-anchor="start" x="419.8771" y="-205.3" font-family="Arial" font-size="14.00" fill="#000000"> </text>
<text text-anchor="start" x="423.7677" y="-205.3" font-family="Arial" font-size="14.00" fill="#666666">[BASE TABLE]</text>
<polygon fill="none" stroke="#000000" points="331,-162.5 331,-192.5 524,-192.5 524,-162.5 331,-162.5"/>
<text text-anchor="start" x="338" y="-173.9" font-family="Arial" font-size="14.00" fill="#000000">id </text>
<text text-anchor="start" x="352.7798" y="-173.9" font-family="Arial" font-size="14.00" fill="#666666">[bigint unsigned]</text>
<polygon fill="none" stroke="#000000" points="331,-132.5 331,-162.5 524,-162.5 524,-132.5 331,-132.5"/>
<text text-anchor="start" x="338" y="-143.9" font-family="Arial" font-size="14.00" fill="#000000">line_name </text>
<text text-anchor="start" x="406.46" y="-143.9" font-family="Arial" font-size="14.00" fill="#666666">[varchar(255)]</text>
<polygon fill="none" stroke="#000000" points="331,-102.5 331,-132.5 524,-132.5 524,-102.5 331,-102.5"/>
<text text-anchor="start" x="338" y="-113.9" font-family="Arial" font-size="14.00" fill="#000000">created_at </text>
<text text-anchor="start" x="408.028" y="-113.9" font-family="Arial" font-size="14.00" fill="#666666">[date]</text>
<polygon fill="none" stroke="#000000" points="331,-72.5 331,-102.5 524,-102.5 524,-72.5 331,-72.5"/>
<text text-anchor="start" x="338" y="-83.9" font-family="Arial" font-size="14.00" fill="#000000">effected_at </text>
<text text-anchor="start" x="411.1486" y="-83.9" font-family="Arial" font-size="14.00" fill="#666666">[date]</text>
<polygon fill="none" stroke="#000000" points="331,-42.5 331,-72.5 524,-72.5 524,-42.5 331,-42.5"/>
<text text-anchor="start" x="338" y="-53.9" font-family="Arial" font-size="14.00" fill="#000000">line_description </text>
<text text-anchor="start" x="439.129" y="-53.9" font-family="Arial" font-size="14.00" fill="#666666">[text]</text>
</g>
<!-- offices&#45;&gt;train_lines -->
<g id="edge4" class="edge">
<title>offices:train_line_id&#45;&gt;train_lines:id</title>
<path fill="none" stroke="#000000" d="M319.9116,-426.7828C219.058,-412.1191 223.3603,-177.5 331,-177.5"/>
<polygon fill="#000000" stroke="#000000" points="320.0252,-426.7908 329.6809,-431.9887 325.0126,-427.1454 330,-427.5 330,-427.5 330,-427.5 325.0126,-427.1454 330.3191,-423.0113 320.0252,-426.7908 320.0252,-426.7908"/>
<text text-anchor="start" x="54.832" y="-437.5" font-family="Arial" font-size="10.00" fill="#000000">FOREIGN KEY (train_line_id) REFERENCES train_lines (id)</text>
</g>
<!-- a_works -->
<g id="node2" class="node">
<title>a_works</title>
<polygon fill="#efefef" stroke="transparent" points="43,-752.5 43,-787.5 235,-787.5 235,-752.5 43,-752.5"/>
<polygon fill="none" stroke="#000000" points="43,-752.5 43,-787.5 235,-787.5 235,-752.5 43,-752.5"/>
<text text-anchor="start" x="56.8706" y="-765.3" font-family="Arial Bold" font-size="18.00" fill="#000000">a_works</text>
<text text-anchor="start" x="123.8756" y="-765.3" font-family="Arial" font-size="14.00" fill="#000000"> </text>
<text text-anchor="start" x="127.7662" y="-765.3" font-family="Arial" font-size="14.00" fill="#666666">[BASE TABLE]</text>
<polygon fill="none" stroke="#000000" points="43,-722.5 43,-752.5 235,-752.5 235,-722.5 43,-722.5"/>
<text text-anchor="start" x="50" y="-733.9" font-family="Arial" font-size="14.00" fill="#000000">id </text>
<text text-anchor="start" x="64.7798" y="-733.9" font-family="Arial" font-size="14.00" fill="#666666">[bigint unsigned]</text>
<polygon fill="none" stroke="#000000" points="43,-692.5 43,-722.5 235,-722.5 235,-692.5 43,-692.5"/>
<text text-anchor="start" x="50" y="-703.9" font-family="Arial" font-size="14.00" fill="#000000">office_id </text>
<text text-anchor="start" x="106.0154" y="-703.9" font-family="Arial" font-size="14.00" fill="#666666">[bigint unsigned]</text>
<polygon fill="none" stroke="#000000" points="43,-662.5 43,-692.5 235,-692.5 235,-662.5 43,-662.5"/>
<text text-anchor="start" x="50" y="-673.9" font-family="Arial" font-size="14.00" fill="#000000">work_name </text>
<text text-anchor="start" x="126.2314" y="-673.9" font-family="Arial" font-size="14.00" fill="#666666">[varchar(64)]</text>
<polygon fill="none" stroke="#000000" points="43,-632.5 43,-662.5 235,-662.5 235,-632.5 43,-632.5"/>
<text text-anchor="start" x="49.9152" y="-643.9" font-family="Arial" font-size="14.00" fill="#000000">car_type_id </text>
<text text-anchor="start" x="126.1592" y="-643.9" font-family="Arial" font-size="14.00" fill="#666666">[bigint unsigned]</text>
</g>
<!-- a_works&#45;&gt;offices -->
<g id="edge1" class="edge">
<title>a_works:office_id&#45;&gt;offices:id</title>
<path fill="none" stroke="#000000" d="M245.0905,-706.8265C345.4611,-692.5924 214.7355,-457.5 330,-457.5"/>
<polygon fill="#000000" stroke="#000000" points="244.9778,-706.8339 234.7003,-703.01 239.9889,-707.167 235,-707.5 235,-707.5 235,-707.5 239.9889,-707.167 235.2997,-711.99 244.9778,-706.8339 244.9778,-706.8339"/>
<text text-anchor="start" x="242.497" y="-717.5" font-family="Arial" font-size="10.00" fill="#000000">FOREIGN KEY (office_id) REFERENCES offices (id)</text>
</g>
<!-- b_works -->
<g id="node3" class="node">
<title>b_works</title>
<polygon fill="#efefef" stroke="transparent" points="339,-737.5 339,-772.5 517,-772.5 517,-737.5 339,-737.5"/>
<polygon fill="none" stroke="#000000" points="339,-737.5 339,-772.5 517,-772.5 517,-737.5 339,-737.5"/>
<text text-anchor="start" x="345.8706" y="-750.3" font-family="Arial Bold" font-size="18.00" fill="#000000">b_works</text>
<text text-anchor="start" x="412.8756" y="-750.3" font-family="Arial" font-size="14.00" fill="#000000"> </text>
<text text-anchor="start" x="416.7662" y="-750.3" font-family="Arial" font-size="14.00" fill="#666666">[BASE TABLE]</text>
<polygon fill="none" stroke="#000000" points="339,-707.5 339,-737.5 517,-737.5 517,-707.5 339,-707.5"/>
<text text-anchor="start" x="346" y="-718.9" font-family="Arial" font-size="14.00" fill="#000000">id </text>
<text text-anchor="start" x="360.7798" y="-718.9" font-family="Arial" font-size="14.00" fill="#666666">[bigint unsigned]</text>
<polygon fill="none" stroke="#000000" points="339,-677.5 339,-707.5 517,-707.5 517,-677.5 339,-677.5"/>
<text text-anchor="start" x="346" y="-688.9" font-family="Arial" font-size="14.00" fill="#000000">office_id </text>
<text text-anchor="start" x="402.0154" y="-688.9" font-family="Arial" font-size="14.00" fill="#666666">[bigint unsigned]</text>
<polygon fill="none" stroke="#000000" points="339,-647.5 339,-677.5 517,-677.5 517,-647.5 339,-647.5"/>
<text text-anchor="start" x="346" y="-658.9" font-family="Arial" font-size="14.00" fill="#000000">work_name </text>
<text text-anchor="start" x="422.2314" y="-658.9" font-family="Arial" font-size="14.00" fill="#666666">[varchar(64)]</text>
</g>
<!-- b_works&#45;&gt;offices -->
<g id="edge2" class="edge">
<title>b_works:office_id&#45;&gt;offices:id</title>
<path fill="none" stroke="#000000" d="M329.1145,-690.9579C303.1793,-681.6942 317.7189,-632.9017 339,-605 390.9837,-536.844 473.0163,-622.156 525,-554 551.01,-519.8982 567.8889,-457.5 525,-457.5"/>
<polygon fill="#000000" stroke="#000000" points="329.1195,-690.9586 338.3064,-696.9462 334.0598,-691.7293 339,-692.5 339,-692.5 339,-692.5 334.0598,-691.7293 339.6936,-688.0538 329.1195,-690.9586 329.1195,-690.9586"/>
<text text-anchor="start" x="159.747" y="-676.5" font-family="Arial" font-size="10.00" fill="#000000">FOREIGN KEY (office_id) REFERENCES offices (id)</text>
</g>
<!-- c_works -->
<g id="node4" class="node">
<title>c_works</title>
<polygon fill="#efefef" stroke="transparent" points="622,-737.5 622,-772.5 799,-772.5 799,-737.5 622,-737.5"/>
<polygon fill="none" stroke="#000000" points="622,-737.5 622,-772.5 799,-772.5 799,-737.5 622,-737.5"/>
<text text-anchor="start" x="628.8737" y="-750.3" font-family="Arial Bold" font-size="18.00" fill="#000000">c_works</text>
<text text-anchor="start" x="694.8725" y="-750.3" font-family="Arial" font-size="14.00" fill="#000000"> </text>
<text text-anchor="start" x="698.7631" y="-750.3" font-family="Arial" font-size="14.00" fill="#666666">[BASE TABLE]</text>
<polygon fill="none" stroke="#000000" points="622,-707.5 622,-737.5 799,-737.5 799,-707.5 622,-707.5"/>
<text text-anchor="start" x="629" y="-718.9" font-family="Arial" font-size="14.00" fill="#000000">id </text>
<text text-anchor="start" x="643.7798" y="-718.9" font-family="Arial" font-size="14.00" fill="#666666">[bigint unsigned]</text>
<polygon fill="none" stroke="#000000" points="622,-677.5 622,-707.5 799,-707.5 799,-677.5 622,-677.5"/>
<text text-anchor="start" x="629" y="-688.9" font-family="Arial" font-size="14.00" fill="#000000">office_id </text>
<text text-anchor="start" x="685.0154" y="-688.9" font-family="Arial" font-size="14.00" fill="#666666">[bigint unsigned]</text>
<polygon fill="none" stroke="#000000" points="622,-647.5 622,-677.5 799,-677.5 799,-647.5 622,-647.5"/>
<text text-anchor="start" x="629" y="-658.9" font-family="Arial" font-size="14.00" fill="#000000">work_name </text>
<text text-anchor="start" x="705.2314" y="-658.9" font-family="Arial" font-size="14.00" fill="#666666">[varchar(64)]</text>
</g>
<!-- c_works&#45;&gt;offices -->
<g id="edge3" class="edge">
<title>c_works:office_id&#45;&gt;offices:id</title>
<path fill="none" stroke="#000000" d="M611.8137,-691.7836C517.07,-677.5976 634.3507,-457.5 525,-457.5"/>
<polygon fill="#000000" stroke="#000000" points="612.0246,-691.7983 621.6842,-696.9889 617.0123,-692.1491 622,-692.5 622,-692.5 622,-692.5 617.0123,-692.1491 622.3158,-688.0111 612.0246,-691.7983 612.0246,-691.7983"/>
<text text-anchor="start" x="629.497" y="-702.5" font-family="Arial" font-size="10.00" fill="#000000">FOREIGN KEY (office_id) REFERENCES offices (id)</text>
</g>
</g>
</svg>
