<?xml version="1.0" encoding="UTF-8" standalone="no"?>
<!DOCTYPE svg PUBLIC "-//W3C//DTD SVG 1.1//EN"
 "http://www.w3.org/Graphics/SVG/1.1/DTD/svg11.dtd">
<!-- Generated by graphviz version 2.40.1 (20161225.0304)
 -->
<!-- Title: perm_write_line Pages: 1 -->
<svg width="768pt" height="502pt"
 viewBox="0.00 0.00 768.00 502.00" xmlns="http://www.w3.org/2000/svg" xmlns:xlink="http://www.w3.org/1999/xlink">
<g id="graph0" class="graph" transform="scale(1 1) rotate(0) translate(4 498)">
<title>perm_write_line</title>
<polygon fill="#ffffff" stroke="transparent" points="-4,4 -4,-498 764,-498 764,4 -4,4"/>
<!-- perm_write_line -->
<g id="node1" class="node">
<title>perm_write_line</title>
<polygon fill="#efefef" stroke="transparent" points="282,-412.5 282,-447.5 520,-447.5 520,-412.5 282,-412.5"/>
<polygon fill="none" stroke="#000000" points="282,-412.5 282,-447.5 520,-447.5 520,-412.5 282,-412.5"/>
<text text-anchor="start" x="288.8736" y="-425.3" font-family="Arial Bold" font-size="18.00" fill="#000000">perm_write_line</text>
<text text-anchor="start" x="415.8726" y="-425.3" font-family="Arial" font-size="14.00" fill="#000000"> </text>
<text text-anchor="start" x="419.7632" y="-425.3" font-family="Arial" font-size="14.00" fill="#666666">[BASE TABLE]</text>
<polygon fill="none" stroke="#000000" points="282,-382.5 282,-412.5 520,-412.5 520,-382.5 282,-382.5"/>
<text text-anchor="start" x="289" y="-393.9" font-family="Arial" font-size="14.00" fill="#000000">train_line_id </text>
<text text-anchor="start" x="368.3464" y="-393.9" font-family="Arial" font-size="14.00" fill="#666666">[bigint unsigned]</text>
<polygon fill="none" stroke="#000000" points="282,-352.5 282,-382.5 520,-382.5 520,-352.5 282,-352.5"/>
<text text-anchor="start" x="289" y="-363.9" font-family="Arial" font-size="14.00" fill="#000000">user_id </text>
<text text-anchor="start" x="338.7882" y="-363.9" font-family="Arial" font-size="14.00" fill="#666666">[varchar(128)]</text>
<polygon fill="none" stroke="#000000" stroke-width="3" points="280.5,-351.5 280.5,-449.5 521.5,-449.5 521.5,-351.5 280.5,-351.5"/>
</g>
<!-- train_lines -->
<g id="node2" class="node">
<title>train_lines</title>
<polygon fill="#efefef" stroke="transparent" points="165,-192.5 165,-227.5 358,-227.5 358,-192.5 165,-192.5"/>
<polygon fill="none" stroke="#000000" points="165,-192.5 165,-227.5 358,-227.5 358,-192.5 165,-192.5"/>
<text text-anchor="start" x="171.8691" y="-205.3" font-family="Arial Bold" font-size="18.00" fill="#000000">train_lines</text>
<text text-anchor="start" x="253.8771" y="-205.3" font-family="Arial" font-size="14.00" fill="#000000"> </text>
<text text-anchor="start" x="257.7677" y="-205.3" font-family="Arial" font-size="14.00" fill="#666666">[BASE TABLE]</text>
<polygon fill="none" stroke="#000000" points="165,-162.5 165,-192.5 358,-192.5 358,-162.5 165,-162.5"/>
<text text-anchor="start" x="172" y="-173.9" font-family="Arial" font-size="14.00" fill="#000000">id </text>
<text text-anchor="start" x="186.7798" y="-173.9" font-family="Arial" font-size="14.00" fill="#666666">[bigint unsigned]</text>
<polygon fill="none" stroke="#000000" points="165,-132.5 165,-162.5 358,-162.5 358,-132.5 165,-132.5"/>
<text text-anchor="start" x="172" y="-143.9" font-family="Arial" font-size="14.00" fill="#000000">line_name </text>
<text text-anchor="start" x="240.46" y="-143.9" font-family="Arial" font-size="14.00" fill="#666666">[varchar(255)]</text>
<polygon fill="none" stroke="#000000" points="165,-102.5 165,-132.5 358,-132.5 358,-102.5 165,-102.5"/>
<text text-anchor="start" x="172" y="-113.9" font-family="Arial" font-size="14.00" fill="#000000">created_at </text>
<text text-anchor="start" x="242.028" y="-113.9" font-family="Arial" font-size="14.00" fill="#666666">[date]</text>
<polygon fill="none" stroke="#000000" points="165,-72.5 165,-102.5 358,-102.5 358,-72.5 165,-72.5"/>
<text text-anchor="start" x="172" y="-83.9" font-family="Arial" font-size="14.00" fill="#000000">effected_at </text>
<text text-anchor="start" x="245.1486" y="-83.9" font-family="Arial" font-size="14.00" fill="#666666">[date]</text>
<polygon fill="none" stroke="#000000" points="165,-42.5 165,-72.5 358,-72.5 358,-42.5 165,-42.5"/>
<text text-anchor="start" x="172" y="-53.9" font-family="Arial" font-size="14.00" fill="#000000">line_description </text>
<text text-anchor="start" x="273.129" y="-53.9" font-family="Arial" font-size="14.00" fill="#666666">[text]</text>
</g>
<!-- perm_write_line&#45;&gt;train_lines -->
<g id="edge1" class="edge">
<title>perm_write_line:train_line_id&#45;&gt;train_lines:id</title>
<path fill="none" stroke="#000000" d="M271.85,-395.9568C245.4594,-386.6773 262.5917,-337.669 282,-307 301.9866,-275.4172 338.0134,-302.5828 358,-271 380.2218,-235.8851 399.5556,-177.5 358,-177.5"/>
<polygon fill="#000000" stroke="#000000" points="272.1136,-395.9968 281.3236,-401.9489 277.0568,-396.7484 282,-397.5 282,-397.5 282,-397.5 277.0568,-396.7484 282.6764,-393.0511 272.1136,-395.9968 272.1136,-395.9968"/>
<text text-anchor="start" x="6.832" y="-407.5" font-family="Arial" font-size="10.00" fill="#000000">FOREIGN KEY (train_line_id) REFERENCES train_lines (id)</text>
</g>
<!-- users -->
<g id="node3" class="node">
<title>users</title>
<polygon fill="#efefef" stroke="transparent" points="462,-132.5 462,-167.5 617,-167.5 617,-132.5 462,-132.5"/>
<polygon fill="none" stroke="#000000" points="462,-132.5 462,-167.5 617,-167.5 617,-132.5 462,-132.5"/>
<text text-anchor="start" x="468.8708" y="-145.3" font-family="Arial Bold" font-size="18.00" fill="#000000">users</text>
<text text-anchor="start" x="512.8754" y="-145.3" font-family="Arial" font-size="14.00" fill="#000000"> </text>
<text text-anchor="start" x="516.766" y="-145.3" font-family="Arial" font-size="14.00" fill="#666666">[BASE TABLE]</text>
<polygon fill="none" stroke="#000000" points="462,-102.5 462,-132.5 617,-132.5 617,-102.5 462,-102.5"/>
<text text-anchor="start" x="469" y="-113.9" font-family="Arial" font-size="14.00" fill="#000000">id </text>
<text text-anchor="start" x="483.7798" y="-113.9" font-family="Arial" font-size="14.00" fill="#666666">[varchar(128)]</text>
</g>
<!-- perm_write_line&#45;&gt;users -->
<g id="edge2" class="edge">
<title>perm_write_line:user_id&#45;&gt;users:id</title>
<path fill="none" stroke="#000000" d="M529.7352,-364.8974C540.7693,-356.3817 526.0331,-328.6526 520,-307 506.6201,-258.98 475.3799,-259.02 462,-211 450.8462,-170.9693 420.4444,-117.5 462,-117.5"/>
<polygon fill="#000000" stroke="#000000" points="529.6607,-364.9173 518.8378,-363.1527 524.8304,-366.2086 520,-367.5 520,-367.5 520,-367.5 524.8304,-366.2086 521.1622,-371.8473 529.6607,-364.9173 529.6607,-364.9173"/>
<text text-anchor="start" x="526.945" y="-377.5" font-family="Arial" font-size="10.00" fill="#000000">FOREIGN KEY (user_id) REFERENCES users (id)</text>
</g>
</g>
</svg>
