<?xml version="1.0" encoding="UTF-8" standalone="no"?>
<!DOCTYPE svg PUBLIC "-//W3C//DTD SVG 1.1//EN"
 "http://www.w3.org/Graphics/SVG/1.1/DTD/svg11.dtd">
<!-- Generated by graphviz version 2.40.1 (20161225.0304)
 -->
<!-- Title: perm_password Pages: 1 -->
<svg width="785pt" height="622pt"
 viewBox="0.00 0.00 785.00 622.00" xmlns="http://www.w3.org/2000/svg" xmlns:xlink="http://www.w3.org/1999/xlink">
<g id="graph0" class="graph" transform="scale(1 1) rotate(0) translate(4 618)">
<title>perm_password</title>
<polygon fill="#ffffff" stroke="transparent" points="-4,4 -4,-618 781,-618 781,4 -4,4"/>
<!-- perm_password -->
<g id="node1" class="node">
<title>perm_password</title>
<polygon fill="#efefef" stroke="transparent" points="282,-532.5 282,-567.5 521,-567.5 521,-532.5 282,-532.5"/>
<polygon fill="none" stroke="#000000" points="282,-532.5 282,-567.5 521,-567.5 521,-532.5 282,-532.5"/>
<text text-anchor="start" x="288.866" y="-545.3" font-family="Arial Bold" font-size="18.00" fill="#000000">perm_password</text>
<text text-anchor="start" x="416.8802" y="-545.3" font-family="Arial" font-size="14.00" fill="#000000"> </text>
<text text-anchor="start" x="420.7708" y="-545.3" font-family="Arial" font-size="14.00" fill="#666666">[BASE TABLE]</text>
<polygon fill="none" stroke="#000000" points="282,-502.5 282,-532.5 521,-532.5 521,-502.5 282,-502.5"/>
<text text-anchor="start" x="289" y="-513.9" font-family="Arial" font-size="14.00" fill="#000000">train_line_id </text>
<text text-anchor="start" x="368.3464" y="-513.9" font-family="Arial" font-size="14.00" fill="#666666">[bigint unsigned]</text>
<polygon fill="none" stroke="#000000" points="282,-472.5 282,-502.5 521,-502.5 521,-472.5 282,-472.5"/>
<text text-anchor="start" x="289" y="-483.9" font-family="Arial" font-size="14.00" fill="#000000">pw_hash </text>
<text text-anchor="start" x="348.9102" y="-483.9" font-family="Arial" font-size="14.00" fill="#666666">[varbinary(64)]</text>
<polygon fill="none" stroke="#000000" points="282,-442.5 282,-472.5 521,-472.5 521,-442.5 282,-442.5"/>
<text text-anchor="start" x="289" y="-453.9" font-family="Arial" font-size="14.00" fill="#000000">expires_at </text>
<text text-anchor="start" x="357.4614" y="-453.9" font-family="Arial" font-size="14.00" fill="#666666">[date]</text>
<polygon fill="none" stroke="#000000" points="282,-412.5 282,-442.5 521,-442.5 521,-412.5 282,-412.5"/>
<text text-anchor="start" x="289" y="-423.9" font-family="Arial" font-size="14.00" fill="#000000">allow_read </text>
<text text-anchor="start" x="360.5666" y="-423.9" font-family="Arial" font-size="14.00" fill="#666666">[bit(1)]</text>
<polygon fill="none" stroke="#000000" points="282,-382.5 282,-412.5 521,-412.5 521,-382.5 282,-382.5"/>
<text text-anchor="start" x="289" y="-393.9" font-family="Arial" font-size="14.00" fill="#000000">allow_write </text>
<text text-anchor="start" x="362.1052" y="-393.9" font-family="Arial" font-size="14.00" fill="#666666">[bit(1)]</text>
<polygon fill="none" stroke="#000000" points="282,-352.5 282,-382.5 521,-382.5 521,-352.5 282,-352.5"/>
<text text-anchor="start" x="289" y="-363.9" font-family="Arial" font-size="14.00" fill="#000000">created_by </text>
<text text-anchor="start" x="362.1374" y="-363.9" font-family="Arial" font-size="14.00" fill="#666666">[varchar(128)]</text>
<polygon fill="none" stroke="#000000" stroke-width="3" points="280,-351.5 280,-569.5 522,-569.5 522,-351.5 280,-351.5"/>
</g>
<!-- train_lines -->
<g id="node2" class="node">
<title>train_lines</title>
<polygon fill="#efefef" stroke="transparent" points="166,-192.5 166,-227.5 359,-227.5 359,-192.5 166,-192.5"/>
<polygon fill="none" stroke="#000000" points="166,-192.5 166,-227.5 359,-227.5 359,-192.5 166,-192.5"/>
<text text-anchor="start" x="172.8691" y="-205.3" font-family="Arial Bold" font-size="18.00" fill="#000000">train_lines</text>
<text text-anchor="start" x="254.8771" y="-205.3" font-family="Arial" font-size="14.00" fill="#000000"> </text>
<text text-anchor="start" x="258.7677" y="-205.3" font-family="Arial" font-size="14.00" fill="#666666">[BASE TABLE]</text>
<polygon fill="none" stroke="#000000" points="166,-162.5 166,-192.5 359,-192.5 359,-162.5 166,-162.5"/>
<text text-anchor="start" x="173" y="-173.9" font-family="Arial" font-size="14.00" fill="#000000">id </text>
<text text-anchor="start" x="187.7798" y="-173.9" font-family="Arial" font-size="14.00" fill="#666666">[bigint unsigned]</text>
<polygon fill="none" stroke="#000000" points="166,-132.5 166,-162.5 359,-162.5 359,-132.5 166,-132.5"/>
<text text-anchor="start" x="173" y="-143.9" font-family="Arial" font-size="14.00" fill="#000000">line_name </text>
<text text-anchor="start" x="241.46" y="-143.9" font-family="Arial" font-size="14.00" fill="#666666">[varchar(255)]</text>
<polygon fill="none" stroke="#000000" points="166,-102.5 166,-132.5 359,-132.5 359,-102.5 166,-102.5"/>
<text text-anchor="start" x="173" y="-113.9" font-family="Arial" font-size="14.00" fill="#000000">created_at </text>
<text text-anchor="start" x="243.028" y="-113.9" font-family="Arial" font-size="14.00" fill="#666666">[date]</text>
<polygon fill="none" stroke="#000000" points="166,-72.5 166,-102.5 359,-102.5 359,-72.5 166,-72.5"/>
<text text-anchor="start" x="173" y="-83.9" font-family="Arial" font-size="14.00" fill="#000000">effected_at </text>
<text text-anchor="start" x="246.1486" y="-83.9" font-family="Arial" font-size="14.00" fill="#666666">[date]</text>
<polygon fill="none" stroke="#000000" points="166,-42.5 166,-72.5 359,-72.5 359,-42.5 166,-42.5"/>
<text text-anchor="start" x="173" y="-53.9" font-family="Arial" font-size="14.00" fill="#000000">line_description </text>
<text text-anchor="start" x="274.129" y="-53.9" font-family="Arial" font-size="14.00" fill="#666666">[text]</text>
</g>
<!-- perm_password&#45;&gt;train_lines -->
<g id="edge1" class="edge">
<title>perm_password:train_line_id&#45;&gt;train_lines:id</title>
<path fill="none" stroke="#000000" d="M271.6553,-516.9087C191.84,-507.3014 233.7343,-382.846 282,-307 302.282,-275.1283 338.718,-302.8717 359,-271 381.3102,-235.9412 400.5556,-177.5 359,-177.5"/>
<polygon fill="#000000" stroke="#000000" points="272.0163,-516.9292 281.7432,-521.9927 277.0081,-517.2146 282,-517.5 282,-517.5 282,-517.5 277.0081,-517.2146 282.2568,-513.0073 272.0163,-516.9292 272.0163,-516.9292"/>
<text text-anchor="start" x="6.832" y="-527.5" font-family="Arial" font-size="10.00" fill="#000000">FOREIGN KEY (train_line_id) REFERENCES train_lines (id)</text>
</g>
<!-- users -->
<g id="node3" class="node">
<title>users</title>
<polygon fill="#efefef" stroke="transparent" points="463,-132.5 463,-167.5 618,-167.5 618,-132.5 463,-132.5"/>
<polygon fill="none" stroke="#000000" points="463,-132.5 463,-167.5 618,-167.5 618,-132.5 463,-132.5"/>
<text text-anchor="start" x="469.8708" y="-145.3" font-family="Arial Bold" font-size="18.00" fill="#000000">users</text>
<text text-anchor="start" x="513.8754" y="-145.3" font-family="Arial" font-size="14.00" fill="#000000"> </text>
<text text-anchor="start" x="517.766" y="-145.3" font-family="Arial" font-size="14.00" fill="#666666">[BASE TABLE]</text>
<polygon fill="none" stroke="#000000" points="463,-102.5 463,-132.5 618,-132.5 618,-102.5 463,-102.5"/>
<text text-anchor="start" x="470" y="-113.9" font-family="Arial" font-size="14.00" fill="#000000">id </text>
<text text-anchor="start" x="484.7798" y="-113.9" font-family="Arial" font-size="14.00" fill="#666666">[varchar(128)]</text>
</g>
<!-- perm_password&#45;&gt;users -->
<g id="edge2" class="edge">
<title>perm_password:created_by&#45;&gt;users:id</title>
<path fill="none" stroke="#000000" d="M530.7352,-364.8974C541.7693,-356.3817 527.0331,-328.6526 521,-307 507.6201,-258.98 476.3799,-259.02 463,-211 451.8462,-170.9693 421.4444,-117.5 463,-117.5"/>
<polygon fill="#000000" stroke="#000000" points="530.6607,-364.9173 519.8378,-363.1527 525.8304,-366.2086 521,-367.5 521,-367.5 521,-367.5 525.8304,-366.2086 522.1622,-371.8473 530.6607,-364.9173 530.6607,-364.9173"/>
<text text-anchor="start" x="527.606" y="-377.5" font-family="Arial" font-size="10.00" fill="#000000">FOREIGN KEY (created_by) REFERENCES users (id)</text>
</g>
</g>
</svg>
