<?xml version="1.0" encoding="UTF-8" standalone="no"?>
<!DOCTYPE svg PUBLIC "-//W3C//DTD SVG 1.1//EN"
 "http://www.w3.org/Graphics/SVG/1.1/DTD/svg11.dtd">
<!-- Generated by graphviz version 2.40.1 (20161225.0304)
 -->
<!-- Title: perm_read_line Pages: 1 -->
<svg width="766pt" height="502pt"
 viewBox="0.00 0.00 766.00 502.00" xmlns="http://www.w3.org/2000/svg" xmlns:xlink="http://www.w3.org/1999/xlink">
<g id="graph0" class="graph" transform="scale(1 1) rotate(0) translate(4 498)">
<title>perm_read_line</title>
<polygon fill="#ffffff" stroke="transparent" points="-4,4 -4,-498 762,-498 762,4 -4,4"/>
<!-- perm_read_line -->
<g id="node1" class="node">
<title>perm_read_line</title>
<polygon fill="#efefef" stroke="transparent" points="282,-412.5 282,-447.5 518,-447.5 518,-412.5 282,-412.5"/>
<polygon fill="none" stroke="#000000" points="282,-412.5 282,-447.5 518,-447.5 518,-412.5 282,-412.5"/>
<text text-anchor="start" x="288.8627" y="-425.3" font-family="Arial Bold" font-size="18.00" fill="#000000">perm_read_line</text>
<text text-anchor="start" x="413.8835" y="-425.3" font-family="Arial" font-size="14.00" fill="#000000"> </text>
<text text-anchor="start" x="417.7741" y="-425.3" font-family="Arial" font-size="14.00" fill="#666666">[BASE TABLE]</text>
<polygon fill="none" stroke="#000000" points="282,-382.5 282,-412.5 518,-412.5 518,-382.5 282,-382.5"/>
<text text-anchor="start" x="289" y="-393.9" font-family="Arial" font-size="14.00" fill="#000000">train_line_id </text>
<text text-anchor="start" x="368.3464" y="-393.9" font-family="Arial" font-size="14.00" fill="#666666">[bigint unsigned]</text>
<polygon fill="none" stroke="#000000" points="282,-352.5 282,-382.5 518,-382.5 518,-352.5 282,-352.5"/>
<text text-anchor="start" x="289" y="-363.9" font-family="Arial" font-size="14.00" fill="#000000">user_id </text>
<text text-anchor="start" x="338.7882" y="-363.9" font-family="Arial" font-size="14.00" fill="#666666">[varchar(128)]</text>
<polygon fill="none" stroke="#000000" stroke-width="3" points="280.5,-351.5 280.5,-449.5 519.5,-449.5 519.5,-351.5 280.5,-351.5"/>
</g>
<!-- train_lines -->
<g id="node2" class="node">
<title>train_lines</title>
<polygon fill="#efefef" stroke="transparent" points="164,-192.5 164,-227.5 357,-227.5 357,-192.5 164,-192.5"/>
<polygon fill="none" stroke="#000000" points="164,-192.5 164,-227.5 357,-227.5 357,-192.5 164,-192.5"/>
<text text-anchor="start" x="170.8691" y="-205.3" font-family="Arial Bold" font-size="18.00" fill="#000000">train_lines</text>
<text text-anchor="start" x="252.8771" y="-205.3" font-family="Arial" font-size="14.00" fill="#000000"> </text>
<text text-anchor="start" x="256.7677" y="-205.3" font-family="Arial" font-size="14.00" fill="#666666">[BASE TABLE]</text>
<polygon fill="none" stroke="#000000" points="164,-162.5 164,-192.5 357,-192.5 357,-162.5 164,-162.5"/>
<text text-anchor="start" x="171" y="-173.9" font-family="Arial" font-size="14.00" fill="#000000">id </text>
<text text-anchor="start" x="185.7798" y="-173.9" font-family="Arial" font-size="14.00" fill="#666666">[bigint unsigned]</text>
<polygon fill="none" stroke="#000000" points="164,-132.5 164,-162.5 357,-162.5 357,-132.5 164,-132.5"/>
<text text-anchor="start" x="171" y="-143.9" font-family="Arial" font-size="14.00" fill="#000000">line_name </text>
<text text-anchor="start" x="239.46" y="-143.9" font-family="Arial" font-size="14.00" fill="#666666">[varchar(255)]</text>
<polygon fill="none" stroke="#000000" points="164,-102.5 164,-132.5 357,-132.5 357,-102.5 164,-102.5"/>
<text text-anchor="start" x="171" y="-113.9" font-family="Arial" font-size="14.00" fill="#000000">created_at </text>
<text text-anchor="start" x="241.028" y="-113.9" font-family="Arial" font-size="14.00" fill="#666666">[date]</text>
<polygon fill="none" stroke="#000000" points="164,-72.5 164,-102.5 357,-102.5 357,-72.5 164,-72.5"/>
<text text-anchor="start" x="171" y="-83.9" font-family="Arial" font-size="14.00" fill="#000000">effected_at </text>
<text text-anchor="start" x="244.1486" y="-83.9" font-family="Arial" font-size="14.00" fill="#666666">[date]</text>
<polygon fill="none" stroke="#000000" points="164,-42.5 164,-72.5 357,-72.5 357,-42.5 164,-42.5"/>
<text text-anchor="start" x="171" y="-53.9" font-family="Arial" font-size="14.00" fill="#000000">line_description </text>
<text text-anchor="start" x="272.129" y="-53.9" font-family="Arial" font-size="14.00" fill="#666666">[text]</text>
</g>
<!-- perm_read_line&#45;&gt;train_lines -->
<g id="edge1" class="edge">
<title>perm_read_line:train_line_id&#45;&gt;train_lines:id</title>
<path fill="none" stroke="#000000" d="M271.8523,-395.9582C245.4748,-386.6871 262.6706,-337.7189 282,-307 301.6916,-275.7054 337.3084,-302.2946 357,-271 379.1314,-235.8281 398.5556,-177.5 357,-177.5"/>
<polygon fill="#000000" stroke="#000000" points="272.1135,-395.9978 281.324,-401.9489 277.0567,-396.7489 282,-397.5 282,-397.5 282,-397.5 277.0567,-396.7489 282.676,-393.0511 272.1135,-395.9978 272.1135,-395.9978"/>
<text text-anchor="start" x="6.832" y="-407.5" font-family="Arial" font-size="10.00" fill="#000000">FOREIGN KEY (train_line_id) REFERENCES train_lines (id)</text>
</g>
<!-- users -->
<g id="node3" class="node">
<title>users</title>
<polygon fill="#efefef" stroke="transparent" points="461,-132.5 461,-167.5 616,-167.5 616,-132.5 461,-132.5"/>
<polygon fill="none" stroke="#000000" points="461,-132.5 461,-167.5 616,-167.5 616,-132.5 461,-132.5"/>
<text text-anchor="start" x="467.8708" y="-145.3" font-family="Arial Bold" font-size="18.00" fill="#000000">users</text>
<text text-anchor="start" x="511.8754" y="-145.3" font-family="Arial" font-size="14.00" fill="#000000"> </text>
<text text-anchor="start" x="515.766" y="-145.3" font-family="Arial" font-size="14.00" fill="#666666">[BASE TABLE]</text>
<polygon fill="none" stroke="#000000" points="461,-102.5 461,-132.5 616,-132.5 616,-102.5 461,-102.5"/>
<text text-anchor="start" x="468" y="-113.9" font-family="Arial" font-size="14.00" fill="#000000">id </text>
<text text-anchor="start" x="482.7798" y="-113.9" font-family="Arial" font-size="14.00" fill="#666666">[varchar(128)]</text>
</g>
<!-- perm_read_line&#45;&gt;users -->
<g id="edge2" class="edge">
<title>perm_read_line:user_id&#45;&gt;users:id</title>
<path fill="none" stroke="#000000" d="M527.7285,-364.8993C538.7421,-356.3892 523.9501,-328.6756 518,-307 504.8648,-259.1493 474.1352,-258.8507 461,-211 449.9997,-170.9268 419.4444,-117.5 461,-117.5"/>
<polygon fill="#000000" stroke="#000000" points="527.6608,-364.9173 516.8378,-363.1527 522.8304,-366.2087 518,-367.5 518,-367.5 518,-367.5 522.8304,-366.2087 519.1622,-371.8473 527.6608,-364.9173 527.6608,-364.9173"/>
<text text-anchor="start" x="524.945" y="-377.5" font-family="Arial" font-size="10.00" fill="#000000">FOREIGN KEY (user_id) REFERENCES users (id)</text>
</g>
</g>
</svg>
