<?xml version="1.0" encoding="UTF-8" standalone="no"?>
<!DOCTYPE svg PUBLIC "-//W3C//DTD SVG 1.1//EN"
 "http://www.w3.org/Graphics/SVG/1.1/DTD/svg11.dtd">
<!-- Generated by graphviz version 2.40.1 (20161225.0304)
 -->
<!-- Title: radio_ch Pages: 1 -->
<svg width="519pt" height="682pt"
 viewBox="0.00 0.00 518.50 682.00" xmlns="http://www.w3.org/2000/svg" xmlns:xlink="http://www.w3.org/1999/xlink">
<g id="graph0" class="graph" transform="scale(1 1) rotate(0) translate(4 678)">
<title>radio_ch</title>
<polygon fill="#ffffff" stroke="transparent" points="-4,4 -4,-678 514.5,-678 514.5,4 -4,4"/>
<!-- radio_ch -->
<g id="node1" class="node">
<title>radio_ch</title>
<polygon fill="#efefef" stroke="transparent" points="51.5,-135.5 51.5,-170.5 231.5,-170.5 231.5,-135.5 51.5,-135.5"/>
<polygon fill="none" stroke="#000000" points="51.5,-135.5 51.5,-170.5 231.5,-170.5 231.5,-135.5 51.5,-135.5"/>
<text text-anchor="start" x="58.3644" y="-148.3" font-family="Arial Bold" font-size="18.00" fill="#000000">radio_ch</text>
<text text-anchor="start" x="127.3818" y="-148.3" font-family="Arial" font-size="14.00" fill="#000000"> </text>
<text text-anchor="start" x="131.2724" y="-148.3" font-family="Arial" font-size="14.00" fill="#666666">[BASE TABLE]</text>
<polygon fill="none" stroke="#000000" points="51.5,-105.5 51.5,-135.5 231.5,-135.5 231.5,-105.5 51.5,-105.5"/>
<text text-anchor="start" x="58.5" y="-116.9" font-family="Arial" font-size="14.00" fill="#000000">id </text>
<text text-anchor="start" x="73.2798" y="-116.9" font-family="Arial" font-size="14.00" fill="#666666">[bigint unsigned]</text>
<polygon fill="none" stroke="#000000" points="51.5,-75.5 51.5,-105.5 231.5,-105.5 231.5,-75.5 51.5,-75.5"/>
<text text-anchor="start" x="58.5" y="-86.9" font-family="Arial" font-size="14.00" fill="#000000">ch_name </text>
<text text-anchor="start" x="119.9642" y="-86.9" font-family="Arial" font-size="14.00" fill="#666666">[varchar(4)]</text>
<polygon fill="none" stroke="#000000" points="51.5,-45.5 51.5,-75.5 231.5,-75.5 231.5,-45.5 51.5,-45.5"/>
<text text-anchor="start" x="58.5" y="-56.9" font-family="Arial" font-size="14.00" fill="#000000">ch_description </text>
<text text-anchor="start" x="152.6332" y="-56.9" font-family="Arial" font-size="14.00" fill="#666666">[text]</text>
<polygon fill="none" stroke="#000000" stroke-width="3" points="50,-44.5 50,-172.5 233,-172.5 233,-44.5 50,-44.5"/>
</g>
<!-- sta_time -->
<g id="node2" class="node">
<title>sta_time</title>
<polygon fill="#efefef" stroke="transparent" points="43.5,-595.5 43.5,-630.5 238.5,-630.5 238.5,-595.5 43.5,-595.5"/>
<polygon fill="none" stroke="#000000" points="43.5,-595.5 43.5,-630.5 238.5,-630.5 238.5,-595.5 43.5,-595.5"/>
<text text-anchor="start" x="58.3684" y="-608.3" font-family="Arial Bold" font-size="18.00" fill="#000000">sta_time</text>
<text text-anchor="start" x="126.3778" y="-608.3" font-family="Arial" font-size="14.00" fill="#000000"> </text>
<text text-anchor="start" x="130.2684" y="-608.3" font-family="Arial" font-size="14.00" fill="#666666">[BASE TABLE]</text>
<polygon fill="none" stroke="#000000" points="43.5,-565.5 43.5,-595.5 238.5,-595.5 238.5,-565.5 43.5,-565.5"/>
<text text-anchor="start" x="50.5" y="-576.9" font-family="Arial" font-size="14.00" fill="#000000">id </text>
<text text-anchor="start" x="65.2798" y="-576.9" font-family="Arial" font-size="14.00" fill="#666666">[bigint unsigned]</text>
<polygon fill="none" stroke="#000000" points="43.5,-535.5 43.5,-565.5 238.5,-565.5 238.5,-535.5 43.5,-535.5"/>
<text text-anchor="start" x="50.5" y="-546.9" font-family="Arial" font-size="14.00" fill="#000000">train_id </text>
<text text-anchor="start" x="100.2854" y="-546.9" font-family="Arial" font-size="14.00" fill="#666666">[bigint unsigned]</text>
<polygon fill="none" stroke="#000000" points="43.5,-505.5 43.5,-535.5 238.5,-535.5 238.5,-505.5 43.5,-505.5"/>
<text text-anchor="start" x="50.3542" y="-516.9" font-family="Arial" font-size="14.00" fill="#000000">stop_pos_id </text>
<text text-anchor="start" x="129.7202" y="-516.9" font-family="Arial" font-size="14.00" fill="#666666">[bigint unsigned]</text>
<polygon fill="none" stroke="#000000" points="43.5,-475.5 43.5,-505.5 238.5,-505.5 238.5,-475.5 43.5,-475.5"/>
<text text-anchor="start" x="50.5" y="-486.9" font-family="Arial" font-size="14.00" fill="#000000">arr_time </text>
<text text-anchor="start" x="105.7174" y="-486.9" font-family="Arial" font-size="14.00" fill="#666666">[time]</text>
<polygon fill="none" stroke="#000000" points="43.5,-445.5 43.5,-475.5 238.5,-475.5 238.5,-445.5 43.5,-445.5"/>
<text text-anchor="start" x="50.5" y="-456.9" font-family="Arial" font-size="14.00" fill="#000000">dep_time </text>
<text text-anchor="start" x="111.9614" y="-456.9" font-family="Arial" font-size="14.00" fill="#666666">[time]</text>
<polygon fill="none" stroke="#000000" points="43.5,-415.5 43.5,-445.5 238.5,-445.5 238.5,-415.5 43.5,-415.5"/>
<text text-anchor="start" x="50.5" y="-426.9" font-family="Arial" font-size="14.00" fill="#000000">is_pass </text>
<text text-anchor="start" x="101.845" y="-426.9" font-family="Arial" font-size="14.00" fill="#666666">[bit(1)]</text>
<polygon fill="none" stroke="#000000" points="43.5,-385.5 43.5,-415.5 238.5,-415.5 238.5,-385.5 43.5,-385.5"/>
<text text-anchor="start" x="50.5" y="-396.9" font-family="Arial" font-size="14.00" fill="#000000">track_id </text>
<text text-anchor="start" x="103.3962" y="-396.9" font-family="Arial" font-size="14.00" fill="#666666">[bigint unsigned]</text>
<polygon fill="none" stroke="#000000" points="43.5,-355.5 43.5,-385.5 238.5,-385.5 238.5,-355.5 43.5,-355.5"/>
<text text-anchor="start" x="50.5" y="-366.9" font-family="Arial" font-size="14.00" fill="#000000">radio_ch_id </text>
<text text-anchor="start" x="126.7426" y="-366.9" font-family="Arial" font-size="14.00" fill="#666666">[bigint unsigned]</text>
<polygon fill="none" stroke="#000000" points="43.5,-325.5 43.5,-355.5 238.5,-355.5 238.5,-325.5 43.5,-325.5"/>
<text text-anchor="start" x="50.5" y="-336.9" font-family="Arial" font-size="14.00" fill="#000000">sta_color </text>
<text text-anchor="start" x="111.1788" y="-336.9" font-family="Arial" font-size="14.00" fill="#666666">[char(8)]</text>
<polygon fill="none" stroke="#000000" points="43.5,-295.5 43.5,-325.5 238.5,-325.5 238.5,-295.5 43.5,-295.5"/>
<text text-anchor="start" x="50.5" y="-306.9" font-family="Arial" font-size="14.00" fill="#000000">line_color </text>
<text text-anchor="start" x="114.284" y="-306.9" font-family="Arial" font-size="14.00" fill="#666666">[char(8)]</text>
</g>
<!-- sta_time&#45;&gt;radio_ch -->
<g id="edge1" class="edge">
<title>sta_time:radio_ch_id&#45;&gt;radio_ch:id</title>
<path fill="none" stroke="#000000" d="M248.4795,-369.3942C287.9841,-359.8217 269.4155,-290.4348 238.5,-253 184.6054,-187.7403 105.3946,-282.2597 51.5,-217 24.1895,-183.9304 8.6111,-120.5 51.5,-120.5"/>
<polygon fill="#000000" stroke="#000000" points="248.4392,-369.3986 238.0044,-366.0274 243.4696,-369.9493 238.5,-370.5 238.5,-370.5 238.5,-370.5 243.4696,-369.9493 238.9956,-374.9726 248.4392,-369.3986 248.4392,-369.3986"/>
<text text-anchor="start" x="245.049" y="-380.5" font-family="Arial" font-size="10.00" fill="#000000">FOREIGN KEY (radio_ch_id) REFERENCES radio_ch (id)</text>
</g>
</g>
</svg>
