<?xml version="1.0" encoding="UTF-8" standalone="no"?>
<!DOCTYPE svg PUBLIC "-//W3C//DTD SVG 1.1//EN"
 "http://www.w3.org/Graphics/SVG/1.1/DTD/svg11.dtd">
<!-- Generated by graphviz version 2.40.1 (20161225.0304)
 -->
<!-- Title: sta_time Pages: 1 -->
<svg width="1224pt" height="1079pt"
 viewBox="0.00 0.00 1223.50 1079.00" xmlns="http://www.w3.org/2000/svg" xmlns:xlink="http://www.w3.org/1999/xlink">
<g id="graph0" class="graph" transform="scale(1 1) rotate(0) translate(4 1075)">
<title>sta_time</title>
<polygon fill="#ffffff" stroke="transparent" points="-4,4 -4,-1075 1219.5,-1075 1219.5,4 -4,4"/>
<!-- sta_time -->
<g id="node1" class="node">
<title>sta_time</title>
<polygon fill="#efefef" stroke="transparent" points="530.5,-712.5 530.5,-747.5 725.5,-747.5 725.5,-712.5 530.5,-712.5"/>
<polygon fill="none" stroke="#000000" points="530.5,-712.5 530.5,-747.5 725.5,-747.5 725.5,-712.5 530.5,-712.5"/>
<text text-anchor="start" x="545.3684" y="-725.3" font-family="Arial Bold" font-size="18.00" fill="#000000">sta_time</text>
<text text-anchor="start" x="613.3778" y="-725.3" font-family="Arial" font-size="14.00" fill="#000000"> </text>
<text text-anchor="start" x="617.2684" y="-725.3" font-family="Arial" font-size="14.00" fill="#666666">[BASE TABLE]</text>
<polygon fill="none" stroke="#000000" points="530.5,-682.5 530.5,-712.5 725.5,-712.5 725.5,-682.5 530.5,-682.5"/>
<text text-anchor="start" x="537.5" y="-693.9" font-family="Arial" font-size="14.00" fill="#000000">id </text>
<text text-anchor="start" x="552.2798" y="-693.9" font-family="Arial" font-size="14.00" fill="#666666">[bigint unsigned]</text>
<polygon fill="none" stroke="#000000" points="530.5,-652.5 530.5,-682.5 725.5,-682.5 725.5,-652.5 530.5,-652.5"/>
<text text-anchor="start" x="537.5" y="-663.9" font-family="Arial" font-size="14.00" fill="#000000">train_id </text>
<text text-anchor="start" x="587.2854" y="-663.9" font-family="Arial" font-size="14.00" fill="#666666">[bigint unsigned]</text>
<polygon fill="none" stroke="#000000" points="530.5,-622.5 530.5,-652.5 725.5,-652.5 725.5,-622.5 530.5,-622.5"/>
<text text-anchor="start" x="537.3542" y="-633.9" font-family="Arial" font-size="14.00" fill="#000000">stop_pos_id </text>
<text text-anchor="start" x="616.7202" y="-633.9" font-family="Arial" font-size="14.00" fill="#666666">[bigint unsigned]</text>
<polygon fill="none" stroke="#000000" points="530.5,-592.5 530.5,-622.5 725.5,-622.5 725.5,-592.5 530.5,-592.5"/>
<text text-anchor="start" x="537.5" y="-603.9" font-family="Arial" font-size="14.00" fill="#000000">arr_time </text>
<text text-anchor="start" x="592.7174" y="-603.9" font-family="Arial" font-size="14.00" fill="#666666">[time]</text>
<polygon fill="none" stroke="#000000" points="530.5,-562.5 530.5,-592.5 725.5,-592.5 725.5,-562.5 530.5,-562.5"/>
<text text-anchor="start" x="537.5" y="-573.9" font-family="Arial" font-size="14.00" fill="#000000">dep_time </text>
<text text-anchor="start" x="598.9614" y="-573.9" font-family="Arial" font-size="14.00" fill="#666666">[time]</text>
<polygon fill="none" stroke="#000000" points="530.5,-532.5 530.5,-562.5 725.5,-562.5 725.5,-532.5 530.5,-532.5"/>
<text text-anchor="start" x="537.5" y="-543.9" font-family="Arial" font-size="14.00" fill="#000000">is_pass </text>
<text text-anchor="start" x="588.845" y="-543.9" font-family="Arial" font-size="14.00" fill="#666666">[bit(1)]</text>
<polygon fill="none" stroke="#000000" points="530.5,-502.5 530.5,-532.5 725.5,-532.5 725.5,-502.5 530.5,-502.5"/>
<text text-anchor="start" x="537.5" y="-513.9" font-family="Arial" font-size="14.00" fill="#000000">track_id </text>
<text text-anchor="start" x="590.3962" y="-513.9" font-family="Arial" font-size="14.00" fill="#666666">[bigint unsigned]</text>
<polygon fill="none" stroke="#000000" points="530.5,-472.5 530.5,-502.5 725.5,-502.5 725.5,-472.5 530.5,-472.5"/>
<text text-anchor="start" x="537.5" y="-483.9" font-family="Arial" font-size="14.00" fill="#000000">radio_ch_id </text>
<text text-anchor="start" x="613.7426" y="-483.9" font-family="Arial" font-size="14.00" fill="#666666">[bigint unsigned]</text>
<polygon fill="none" stroke="#000000" points="530.5,-442.5 530.5,-472.5 725.5,-472.5 725.5,-442.5 530.5,-442.5"/>
<text text-anchor="start" x="537.5" y="-453.9" font-family="Arial" font-size="14.00" fill="#000000">sta_color </text>
<text text-anchor="start" x="598.1788" y="-453.9" font-family="Arial" font-size="14.00" fill="#666666">[char(8)]</text>
<polygon fill="none" stroke="#000000" points="530.5,-412.5 530.5,-442.5 725.5,-442.5 725.5,-412.5 530.5,-412.5"/>
<text text-anchor="start" x="537.5" y="-423.9" font-family="Arial" font-size="14.00" fill="#000000">line_color </text>
<text text-anchor="start" x="601.284" y="-423.9" font-family="Arial" font-size="14.00" fill="#666666">[char(8)]</text>
<polygon fill="none" stroke="#000000" stroke-width="3" points="528.5,-411.5 528.5,-749.5 726.5,-749.5 726.5,-411.5 528.5,-411.5"/>
</g>
<!-- trains -->
<g id="node5" class="node">
<title>trains</title>
<polygon fill="#efefef" stroke="transparent" points="43.5,-192.5 43.5,-227.5 238.5,-227.5 238.5,-192.5 43.5,-192.5"/>
<polygon fill="none" stroke="#000000" points="43.5,-192.5 43.5,-227.5 238.5,-227.5 238.5,-192.5 43.5,-192.5"/>
<text text-anchor="start" x="70.3726" y="-205.3" font-family="Arial Bold" font-size="18.00" fill="#000000">trains</text>
<text text-anchor="start" x="114.3736" y="-205.3" font-family="Arial" font-size="14.00" fill="#000000"> </text>
<text text-anchor="start" x="118.2642" y="-205.3" font-family="Arial" font-size="14.00" fill="#666666">[BASE TABLE]</text>
<polygon fill="none" stroke="#000000" points="43.5,-162.5 43.5,-192.5 238.5,-192.5 238.5,-162.5 43.5,-162.5"/>
<text text-anchor="start" x="50.5" y="-173.9" font-family="Arial" font-size="14.00" fill="#000000">id </text>
<text text-anchor="start" x="65.2798" y="-173.9" font-family="Arial" font-size="14.00" fill="#666666">[bigint unsigned]</text>
<polygon fill="none" stroke="#000000" points="43.5,-132.5 43.5,-162.5 238.5,-162.5 238.5,-132.5 43.5,-132.5"/>
<text text-anchor="start" x="50.364" y="-143.9" font-family="Arial" font-size="14.00" fill="#000000">train_line_id </text>
<text text-anchor="start" x="129.7104" y="-143.9" font-family="Arial" font-size="14.00" fill="#666666">[bigint unsigned]</text>
<polygon fill="none" stroke="#000000" points="43.5,-102.5 43.5,-132.5 238.5,-132.5 238.5,-102.5 43.5,-102.5"/>
<text text-anchor="start" x="50.5" y="-113.9" font-family="Arial" font-size="14.00" fill="#000000">train_number </text>
<text text-anchor="start" x="136.8478" y="-113.9" font-family="Arial" font-size="14.00" fill="#666666">[varchar(64)]</text>
</g>
<!-- sta_time&#45;&gt;trains -->
<g id="edge7" class="edge">
<title>sta_time:train_id&#45;&gt;trains:id</title>
<path fill="none" stroke="#000000" d="M520.4756,-667.3229C347.4883,-661.0984 371.4491,-491.8722 289.5,-331 256.8691,-266.9432 310.3891,-177.5 238.5,-177.5"/>
<polygon fill="#000000" stroke="#000000" points="520.5016,-667.3233 530.4205,-671.9993 525.5008,-667.4116 530.5,-667.5 530.5,-667.5 530.5,-667.5 525.5008,-667.4116 530.5795,-663.0007 520.5016,-667.3233 520.5016,-667.3233"/>
<text text-anchor="start" x="297.447" y="-677.5" font-family="Arial" font-size="10.00" fill="#000000">FOREIGN KEY (train_id) REFERENCES trains (id)</text>
</g>
<!-- station_stop_pos -->
<g id="node6" class="node">
<title>station_stop_pos</title>
<polygon fill="#efefef" stroke="transparent" points="342.5,-252.5 342.5,-287.5 589.5,-287.5 589.5,-252.5 342.5,-252.5"/>
<polygon fill="none" stroke="#000000" points="342.5,-252.5 342.5,-287.5 589.5,-287.5 589.5,-252.5 342.5,-252.5"/>
<text text-anchor="start" x="349.3448" y="-265.3" font-family="Arial Bold" font-size="18.00" fill="#000000">station_stop_pos</text>
<text text-anchor="start" x="485.4014" y="-265.3" font-family="Arial" font-size="14.00" fill="#000000"> </text>
<text text-anchor="start" x="489.292" y="-265.3" font-family="Arial" font-size="14.00" fill="#666666">[BASE TABLE]</text>
<polygon fill="none" stroke="#000000" points="342.5,-222.5 342.5,-252.5 589.5,-252.5 589.5,-222.5 342.5,-222.5"/>
<text text-anchor="start" x="349.5" y="-233.9" font-family="Arial" font-size="14.00" fill="#000000">id </text>
<text text-anchor="start" x="364.2798" y="-233.9" font-family="Arial" font-size="14.00" fill="#666666">[bigint unsigned]</text>
<polygon fill="none" stroke="#000000" points="342.5,-192.5 342.5,-222.5 589.5,-222.5 589.5,-192.5 342.5,-192.5"/>
<text text-anchor="start" x="349.5" y="-203.9" font-family="Arial" font-size="14.00" fill="#000000">station_id </text>
<text text-anchor="start" x="413.298" y="-203.9" font-family="Arial" font-size="14.00" fill="#666666">[bigint unsigned]</text>
<polygon fill="none" stroke="#000000" points="342.5,-162.5 342.5,-192.5 589.5,-192.5 589.5,-162.5 342.5,-162.5"/>
<text text-anchor="start" x="349.5" y="-173.9" font-family="Arial" font-size="14.00" fill="#000000">pos_name </text>
<text text-anchor="start" x="418.7468" y="-173.9" font-family="Arial" font-size="14.00" fill="#666666">[varchar(64)]</text>
<polygon fill="none" stroke="#000000" points="342.5,-132.5 342.5,-162.5 589.5,-162.5 589.5,-132.5 342.5,-132.5"/>
<text text-anchor="start" x="349.5" y="-143.9" font-family="Arial" font-size="14.00" fill="#000000">track_name_short </text>
<text text-anchor="start" x="465.4144" y="-143.9" font-family="Arial" font-size="14.00" fill="#666666">[varchar(16)]</text>
<polygon fill="none" stroke="#000000" points="342.5,-102.5 342.5,-132.5 589.5,-132.5 589.5,-102.5 342.5,-102.5"/>
<text text-anchor="start" x="349.5" y="-113.9" font-family="Arial" font-size="14.00" fill="#000000">stop_pos_location </text>
<text text-anchor="start" x="466.211" y="-113.9" font-family="Arial" font-size="14.00" fill="#666666">[double]</text>
<polygon fill="none" stroke="#000000" points="342.5,-72.5 342.5,-102.5 589.5,-102.5 589.5,-72.5 342.5,-72.5"/>
<text text-anchor="start" x="349.5" y="-83.9" font-family="Arial" font-size="14.00" fill="#000000">run_in_limit </text>
<text text-anchor="start" x="424.9418" y="-83.9" font-family="Arial" font-size="14.00" fill="#666666">[smallint]</text>
<polygon fill="none" stroke="#000000" points="342.5,-42.5 342.5,-72.5 589.5,-72.5 589.5,-42.5 342.5,-42.5"/>
<text text-anchor="start" x="349.5" y="-53.9" font-family="Arial" font-size="14.00" fill="#000000">run_out_limit </text>
<text text-anchor="start" x="433.5084" y="-53.9" font-family="Arial" font-size="14.00" fill="#666666">[smallint]</text>
</g>
<!-- sta_time&#45;&gt;station_stop_pos -->
<g id="edge8" class="edge">
<title>sta_time:stop_pos_id&#45;&gt;station_stop_pos:id</title>
<path fill="none" stroke="#000000" d="M520.3966,-637.0791C413.872,-627.8454 473.3804,-468.7657 530.5,-367 545.5352,-340.2129 574.4648,-357.7871 589.5,-331 609.8396,-294.7624 631.0556,-237.5 589.5,-237.5"/>
<polygon fill="#000000" stroke="#000000" points="520.5087,-637.0837 530.3127,-641.9961 525.5043,-637.2919 530.5,-637.5 530.5,-637.5 530.5,-637.5 525.5043,-637.2919 530.6873,-633.0039 520.5087,-637.0837 520.5087,-637.0837"/>
<text text-anchor="start" x="225.3115" y="-647.5" font-family="Arial" font-size="10.00" fill="#000000">FOREIGN KEY (stop_pos_id) REFERENCES station_stop_pos (id)</text>
</g>
<!-- tracks -->
<g id="node7" class="node">
<title>tracks</title>
<polygon fill="#efefef" stroke="transparent" points="693.5,-207.5 693.5,-242.5 888.5,-242.5 888.5,-207.5 693.5,-207.5"/>
<polygon fill="none" stroke="#000000" points="693.5,-207.5 693.5,-242.5 888.5,-242.5 888.5,-207.5 693.5,-207.5"/>
<text text-anchor="start" x="718.3728" y="-220.3" font-family="Arial Bold" font-size="18.00" fill="#000000">tracks</text>
<text text-anchor="start" x="766.3734" y="-220.3" font-family="Arial" font-size="14.00" fill="#000000"> </text>
<text text-anchor="start" x="770.264" y="-220.3" font-family="Arial" font-size="14.00" fill="#666666">[BASE TABLE]</text>
<polygon fill="none" stroke="#000000" points="693.5,-177.5 693.5,-207.5 888.5,-207.5 888.5,-177.5 693.5,-177.5"/>
<text text-anchor="start" x="700.5" y="-188.9" font-family="Arial" font-size="14.00" fill="#000000">id </text>
<text text-anchor="start" x="715.2798" y="-188.9" font-family="Arial" font-size="14.00" fill="#666666">[bigint unsigned]</text>
<polygon fill="none" stroke="#000000" points="693.5,-147.5 693.5,-177.5 888.5,-177.5 888.5,-147.5 693.5,-147.5"/>
<text text-anchor="start" x="700.364" y="-158.9" font-family="Arial" font-size="14.00" fill="#000000">train_line_id </text>
<text text-anchor="start" x="779.7104" y="-158.9" font-family="Arial" font-size="14.00" fill="#666666">[bigint unsigned]</text>
<polygon fill="none" stroke="#000000" points="693.5,-117.5 693.5,-147.5 888.5,-147.5 888.5,-117.5 693.5,-117.5"/>
<text text-anchor="start" x="700.5" y="-128.9" font-family="Arial" font-size="14.00" fill="#000000">track_name </text>
<text text-anchor="start" x="777.5154" y="-128.9" font-family="Arial" font-size="14.00" fill="#666666">[varchar(64)]</text>
<polygon fill="none" stroke="#000000" points="693.5,-87.5 693.5,-117.5 888.5,-117.5 888.5,-87.5 693.5,-87.5"/>
<text text-anchor="start" x="700.5" y="-98.9" font-family="Arial" font-size="14.00" fill="#000000">track_description </text>
<text text-anchor="start" x="810.1844" y="-98.9" font-family="Arial" font-size="14.00" fill="#666666">[text]</text>
</g>
<!-- sta_time&#45;&gt;tracks -->
<g id="edge9" class="edge">
<title>sta_time:track_id&#45;&gt;tracks:id</title>
<path fill="none" stroke="#000000" d="M735.7284,-516.7028C786.363,-507.956 737.3006,-428.987 725.5,-367 718.2612,-328.9754 700.7388,-324.0246 693.5,-286 685.7286,-245.1776 651.9444,-192.5 693.5,-192.5"/>
<polygon fill="#000000" stroke="#000000" points="735.4698,-516.7229 725.1503,-513.0136 730.4849,-517.1114 725.5,-517.5 725.5,-517.5 725.5,-517.5 730.4849,-517.1114 725.8497,-521.9864 735.4698,-516.7229 735.4698,-516.7229"/>
<text text-anchor="start" x="732.225" y="-527.5" font-family="Arial" font-size="10.00" fill="#000000">FOREIGN KEY (track_id) REFERENCES tracks (id)</text>
</g>
<!-- radio_ch -->
<g id="node8" class="node">
<title>radio_ch</title>
<polygon fill="#efefef" stroke="transparent" points="992.5,-192.5 992.5,-227.5 1172.5,-227.5 1172.5,-192.5 992.5,-192.5"/>
<polygon fill="none" stroke="#000000" points="992.5,-192.5 992.5,-227.5 1172.5,-227.5 1172.5,-192.5 992.5,-192.5"/>
<text text-anchor="start" x="999.3644" y="-205.3" font-family="Arial Bold" font-size="18.00" fill="#000000">radio_ch</text>
<text text-anchor="start" x="1068.3818" y="-205.3" font-family="Arial" font-size="14.00" fill="#000000"> </text>
<text text-anchor="start" x="1072.2724" y="-205.3" font-family="Arial" font-size="14.00" fill="#666666">[BASE TABLE]</text>
<polygon fill="none" stroke="#000000" points="992.5,-162.5 992.5,-192.5 1172.5,-192.5 1172.5,-162.5 992.5,-162.5"/>
<text text-anchor="start" x="999.5" y="-173.9" font-family="Arial" font-size="14.00" fill="#000000">id </text>
<text text-anchor="start" x="1014.2798" y="-173.9" font-family="Arial" font-size="14.00" fill="#666666">[bigint unsigned]</text>
<polygon fill="none" stroke="#000000" points="992.5,-132.5 992.5,-162.5 1172.5,-162.5 1172.5,-132.5 992.5,-132.5"/>
<text text-anchor="start" x="999.5" y="-143.9" font-family="Arial" font-size="14.00" fill="#000000">ch_name </text>
<text text-anchor="start" x="1060.9642" y="-143.9" font-family="Arial" font-size="14.00" fill="#666666">[varchar(4)]</text>
<polygon fill="none" stroke="#000000" points="992.5,-102.5 992.5,-132.5 1172.5,-132.5 1172.5,-102.5 992.5,-102.5"/>
<text text-anchor="start" x="999.5" y="-113.9" font-family="Arial" font-size="14.00" fill="#000000">ch_description </text>
<text text-anchor="start" x="1093.6332" y="-113.9" font-family="Arial" font-size="14.00" fill="#666666">[text]</text>
</g>
<!-- sta_time&#45;&gt;radio_ch -->
<g id="edge10" class="edge">
<title>sta_time:radio_ch_id&#45;&gt;radio_ch:id</title>
<path fill="none" stroke="#000000" d="M735.6558,-487.3429C845.2965,-483.8799 872.5289,-423.4244 940.5,-331 983.1751,-272.9721 920.4695,-177.5 992.5,-177.5"/>
<polygon fill="#000000" stroke="#000000" points="735.4988,-487.3452 725.4303,-483.0005 730.4994,-487.4226 725.5,-487.5 725.5,-487.5 725.5,-487.5 730.4994,-487.4226 725.5697,-491.9995 735.4988,-487.3452 735.4988,-487.3452"/>
<text text-anchor="start" x="732.049" y="-497.5" font-family="Arial" font-size="10.00" fill="#000000">FOREIGN KEY (radio_ch_id) REFERENCES radio_ch (id)</text>
</g>
<!-- a_work_sta_relations -->
<g id="node2" class="node">
<title>a_work_sta_relations</title>
<polygon fill="#efefef" stroke="transparent" points="102.5,-992.5 102.5,-1027.5 383.5,-1027.5 383.5,-992.5 102.5,-992.5"/>
<polygon fill="none" stroke="#000000" points="102.5,-992.5 102.5,-1027.5 383.5,-1027.5 383.5,-992.5 102.5,-992.5"/>
<text text-anchor="start" x="109.3564" y="-1005.3" font-family="Arial Bold" font-size="18.00" fill="#000000">a_work_sta_relations</text>
<text text-anchor="start" x="279.3898" y="-1005.3" font-family="Arial" font-size="14.00" fill="#000000"> </text>
<text text-anchor="start" x="283.2804" y="-1005.3" font-family="Arial" font-size="14.00" fill="#666666">[BASE TABLE]</text>
<polygon fill="none" stroke="#000000" points="102.5,-962.5 102.5,-992.5 383.5,-992.5 383.5,-962.5 102.5,-962.5"/>
<text text-anchor="start" x="109.5" y="-973.9" font-family="Arial" font-size="14.00" fill="#000000">work_id </text>
<text text-anchor="start" x="161.6122" y="-973.9" font-family="Arial" font-size="14.00" fill="#666666">[bigint unsigned]</text>
<polygon fill="none" stroke="#000000" points="102.5,-932.5 102.5,-962.5 383.5,-962.5 383.5,-932.5 102.5,-932.5"/>
<text text-anchor="start" x="109.5" y="-943.9" font-family="Arial" font-size="14.00" fill="#000000">sta_time_from_id </text>
<text text-anchor="start" x="220.7356" y="-943.9" font-family="Arial" font-size="14.00" fill="#666666">[bigint unsigned]</text>
<polygon fill="none" stroke="#000000" points="102.5,-902.5 102.5,-932.5 383.5,-932.5 383.5,-902.5 102.5,-902.5"/>
<text text-anchor="start" x="109.5" y="-913.9" font-family="Arial" font-size="14.00" fill="#000000">sta_time_to_id </text>
<text text-anchor="start" x="204.4144" y="-913.9" font-family="Arial" font-size="14.00" fill="#666666">[bigint unsigned]</text>
<polygon fill="none" stroke="#000000" points="102.5,-872.5 102.5,-902.5 383.5,-902.5 383.5,-872.5 102.5,-872.5"/>
<text text-anchor="start" x="109.5" y="-883.9" font-family="Arial" font-size="14.00" fill="#000000">is_no_work </text>
<text text-anchor="start" x="184.1774" y="-883.9" font-family="Arial" font-size="14.00" fill="#666666">[bit(1)]</text>
</g>
<!-- a_work_sta_relations&#45;&gt;sta_time -->
<g id="edge1" class="edge">
<title>a_work_sta_relations:sta_time_from_id&#45;&gt;sta_time:id</title>
<path fill="none" stroke="#000000" d="M393.6816,-946.6252C436.1712,-938.5446 408.1721,-876.1696 434.5,-830 470.5232,-766.8282 457.779,-697.5 530.5,-697.5"/>
<polygon fill="#000000" stroke="#000000" points="393.4633,-946.6438 383.1147,-943.0165 388.4816,-947.0719 383.5,-947.5 383.5,-947.5 383.5,-947.5 388.4816,-947.0719 383.8853,-951.9835 393.4633,-946.6438 393.4633,-946.6438"/>
<text text-anchor="start" x="390.8315" y="-957.5" font-family="Arial" font-size="10.00" fill="#000000">FOREIGN KEY (sta_time_from_id) REFERENCES sta_time (id)</text>
</g>
<!-- a_work_sta_relations&#45;&gt;sta_time -->
<g id="edge2" class="edge">
<title>a_work_sta_relations:sta_time_to_id&#45;&gt;sta_time:id</title>
<path fill="none" stroke="#000000" d="M393.7636,-916.4363C425.6376,-909.0325 412.043,-864.475 434.5,-830 474.1921,-769.0666 457.779,-697.5 530.5,-697.5"/>
<polygon fill="#000000" stroke="#000000" points="393.4467,-916.469 383.0361,-913.024 388.4734,-916.9845 383.5,-917.5 383.5,-917.5 383.5,-917.5 388.4734,-916.9845 383.9639,-921.976 393.4467,-916.469 393.4467,-916.469"/>
<text text-anchor="start" x="390.6605" y="-927.5" font-family="Arial" font-size="10.00" fill="#000000">FOREIGN KEY (sta_time_to_id) REFERENCES sta_time (id)</text>
</g>
<!-- b_work_sta_relations -->
<g id="node3" class="node">
<title>b_work_sta_relations</title>
<polygon fill="#efefef" stroke="transparent" points="487.5,-992.5 487.5,-1027.5 768.5,-1027.5 768.5,-992.5 487.5,-992.5"/>
<polygon fill="none" stroke="#000000" points="487.5,-992.5 487.5,-1027.5 768.5,-1027.5 768.5,-992.5 487.5,-992.5"/>
<text text-anchor="start" x="494.3564" y="-1005.3" font-family="Arial Bold" font-size="18.00" fill="#000000">b_work_sta_relations</text>
<text text-anchor="start" x="664.3898" y="-1005.3" font-family="Arial" font-size="14.00" fill="#000000"> </text>
<text text-anchor="start" x="668.2804" y="-1005.3" font-family="Arial" font-size="14.00" fill="#666666">[BASE TABLE]</text>
<polygon fill="none" stroke="#000000" points="487.5,-962.5 487.5,-992.5 768.5,-992.5 768.5,-962.5 487.5,-962.5"/>
<text text-anchor="start" x="494.5" y="-973.9" font-family="Arial" font-size="14.00" fill="#000000">work_id </text>
<text text-anchor="start" x="546.6122" y="-973.9" font-family="Arial" font-size="14.00" fill="#666666">[bigint unsigned]</text>
<polygon fill="none" stroke="#000000" points="487.5,-932.5 487.5,-962.5 768.5,-962.5 768.5,-932.5 487.5,-932.5"/>
<text text-anchor="start" x="494.5" y="-943.9" font-family="Arial" font-size="14.00" fill="#000000">sta_time_from_id </text>
<text text-anchor="start" x="605.7356" y="-943.9" font-family="Arial" font-size="14.00" fill="#666666">[bigint unsigned]</text>
<polygon fill="none" stroke="#000000" points="487.5,-902.5 487.5,-932.5 768.5,-932.5 768.5,-902.5 487.5,-902.5"/>
<text text-anchor="start" x="494.5" y="-913.9" font-family="Arial" font-size="14.00" fill="#000000">sta_time_to_id </text>
<text text-anchor="start" x="589.4144" y="-913.9" font-family="Arial" font-size="14.00" fill="#666666">[bigint unsigned]</text>
<polygon fill="none" stroke="#000000" points="487.5,-872.5 487.5,-902.5 768.5,-902.5 768.5,-872.5 487.5,-872.5"/>
<text text-anchor="start" x="494.5" y="-883.9" font-family="Arial" font-size="14.00" fill="#000000">is_no_work </text>
<text text-anchor="start" x="569.1774" y="-883.9" font-family="Arial" font-size="14.00" fill="#666666">[bit(1)]</text>
</g>
<!-- b_work_sta_relations&#45;&gt;sta_time -->
<g id="edge3" class="edge">
<title>b_work_sta_relations:sta_time_from_id&#45;&gt;sta_time:id</title>
<path fill="none" stroke="#000000" d="M477.8155,-944.5182C436.7272,-916.312 477.762,-697.5 530.5,-697.5"/>
<polygon fill="#000000" stroke="#000000" points="477.9427,-944.5573 486.1758,-951.8008 482.7214,-946.0287 487.5,-947.5 487.5,-947.5 487.5,-947.5 482.7214,-946.0287 488.8242,-943.1992 477.9427,-944.5573 477.9427,-944.5573"/>
<text text-anchor="start" x="272.0815" y="-931.5" font-family="Arial" font-size="10.00" fill="#000000">FOREIGN KEY (sta_time_from_id) REFERENCES sta_time (id)</text>
</g>
<!-- b_work_sta_relations&#45;&gt;sta_time -->
<g id="edge4" class="edge">
<title>b_work_sta_relations:sta_time_to_id&#45;&gt;sta_time:id</title>
<path fill="none" stroke="#000000" d="M477.9072,-914.0443C444.1064,-886.0556 484.3832,-697.5 530.5,-697.5"/>
<polygon fill="#000000" stroke="#000000" points="478.0918,-914.1108 485.9748,-921.7337 482.7959,-915.8054 487.5,-917.5 487.5,-917.5 487.5,-917.5 482.7959,-915.8054 489.0252,-913.2663 478.0918,-914.1108 478.0918,-914.1108"/>
<text text-anchor="start" x="494.6605" y="-901.5" font-family="Arial" font-size="10.00" fill="#000000">FOREIGN KEY (sta_time_to_id) REFERENCES sta_time (id)</text>
</g>
<!-- c_work_sta_relations -->
<g id="node4" class="node">
<title>c_work_sta_relations</title>
<polygon fill="#efefef" stroke="transparent" points="872.5,-992.5 872.5,-1027.5 1152.5,-1027.5 1152.5,-992.5 872.5,-992.5"/>
<polygon fill="none" stroke="#000000" points="872.5,-992.5 872.5,-1027.5 1152.5,-1027.5 1152.5,-992.5 872.5,-992.5"/>
<text text-anchor="start" x="879.3595" y="-1005.3" font-family="Arial Bold" font-size="18.00" fill="#000000">c_work_sta_relations</text>
<text text-anchor="start" x="1048.3867" y="-1005.3" font-family="Arial" font-size="14.00" fill="#000000"> </text>
<text text-anchor="start" x="1052.2773" y="-1005.3" font-family="Arial" font-size="14.00" fill="#666666">[BASE TABLE]</text>
<polygon fill="none" stroke="#000000" points="872.5,-962.5 872.5,-992.5 1152.5,-992.5 1152.5,-962.5 872.5,-962.5"/>
<text text-anchor="start" x="879.5" y="-973.9" font-family="Arial" font-size="14.00" fill="#000000">work_id </text>
<text text-anchor="start" x="931.6122" y="-973.9" font-family="Arial" font-size="14.00" fill="#666666">[bigint unsigned]</text>
<polygon fill="none" stroke="#000000" points="872.5,-932.5 872.5,-962.5 1152.5,-962.5 1152.5,-932.5 872.5,-932.5"/>
<text text-anchor="start" x="879.5" y="-943.9" font-family="Arial" font-size="14.00" fill="#000000">sta_time_from_id </text>
<text text-anchor="start" x="990.7356" y="-943.9" font-family="Arial" font-size="14.00" fill="#666666">[bigint unsigned]</text>
<polygon fill="none" stroke="#000000" points="872.5,-902.5 872.5,-932.5 1152.5,-932.5 1152.5,-902.5 872.5,-902.5"/>
<text text-anchor="start" x="879.5" y="-913.9" font-family="Arial" font-size="14.00" fill="#000000">sta_time_to_id </text>
<text text-anchor="start" x="974.4144" y="-913.9" font-family="Arial" font-size="14.00" fill="#666666">[bigint unsigned]</text>
<polygon fill="none" stroke="#000000" points="872.5,-872.5 872.5,-902.5 1152.5,-902.5 1152.5,-872.5 872.5,-872.5"/>
<text text-anchor="start" x="879.5" y="-883.9" font-family="Arial" font-size="14.00" fill="#000000">is_no_work </text>
<text text-anchor="start" x="954.1774" y="-883.9" font-family="Arial" font-size="14.00" fill="#666666">[bit(1)]</text>
</g>
<!-- c_work_sta_relations&#45;&gt;sta_time -->
<g id="edge5" class="edge">
<title>c_work_sta_relations:sta_time_from_id&#45;&gt;sta_time:id</title>
<path fill="none" stroke="#000000" d="M862.2765,-946.6267C819.5625,-938.56 846.9607,-876.2856 820.5,-830 784.5371,-767.093 797.9611,-697.5 725.5,-697.5"/>
<polygon fill="#000000" stroke="#000000" points="862.5363,-946.6488 872.117,-951.9837 867.5181,-947.0744 872.5,-947.5 872.5,-947.5 872.5,-947.5 867.5181,-947.0744 872.883,-943.0163 862.5363,-946.6488 862.5363,-946.6488"/>
<text text-anchor="start" x="879.8315" y="-957.5" font-family="Arial" font-size="10.00" fill="#000000">FOREIGN KEY (sta_time_from_id) REFERENCES sta_time (id)</text>
</g>
<!-- c_work_sta_relations&#45;&gt;sta_time -->
<g id="edge6" class="edge">
<title>c_work_sta_relations:sta_time_to_id&#45;&gt;sta_time:id</title>
<path fill="none" stroke="#000000" d="M862.1708,-916.4392C830.0394,-909.0554 843.1305,-864.6079 820.5,-830 780.8429,-769.354 797.9611,-697.5 725.5,-697.5"/>
<polygon fill="#000000" stroke="#000000" points="862.5523,-916.4783 872.0402,-921.9765 867.5262,-916.9891 872.5,-917.5 872.5,-917.5 872.5,-917.5 867.5262,-916.9891 872.9598,-913.0235 862.5523,-916.4783 862.5523,-916.4783"/>
<text text-anchor="start" x="879.6605" y="-927.5" font-family="Arial" font-size="10.00" fill="#000000">FOREIGN KEY (sta_time_to_id) REFERENCES sta_time (id)</text>
</g>
</g>
</svg>
