<?xml version="1.0" encoding="UTF-8" standalone="no"?>
<!DOCTYPE svg PUBLIC "-//W3C//DTD SVG 1.1//EN"
 "http://www.w3.org/Graphics/SVG/1.1/DTD/svg11.dtd">
<!-- Generated by graphviz version 2.40.1 (20161225.0304)
 -->
<!-- Title: station_stop_pos Pages: 1 -->
<svg width="587pt" height="1109pt"
 viewBox="0.00 0.00 586.50 1109.00" xmlns="http://www.w3.org/2000/svg" xmlns:xlink="http://www.w3.org/1999/xlink">
<g id="graph0" class="graph" transform="scale(1 1) rotate(0) translate(4 1105)">
<title>station_stop_pos</title>
<polygon fill="#ffffff" stroke="transparent" points="-4,4 -4,-1105 582.5,-1105 582.5,4 -4,4"/>
<!-- station_stop_pos -->
<g id="node1" class="node">
<title>station_stop_pos</title>
<polygon fill="#efefef" stroke="transparent" points="286,-562.5 286,-597.5 533,-597.5 533,-562.5 286,-562.5"/>
<polygon fill="none" stroke="#000000" points="286,-562.5 286,-597.5 533,-597.5 533,-562.5 286,-562.5"/>
<text text-anchor="start" x="292.8448" y="-575.3" font-family="Arial Bold" font-size="18.00" fill="#000000">station_stop_pos</text>
<text text-anchor="start" x="428.9014" y="-575.3" font-family="Arial" font-size="14.00" fill="#000000"> </text>
<text text-anchor="start" x="432.792" y="-575.3" font-family="Arial" font-size="14.00" fill="#666666">[BASE TABLE]</text>
<polygon fill="none" stroke="#000000" points="286,-532.5 286,-562.5 533,-562.5 533,-532.5 286,-532.5"/>
<text text-anchor="start" x="293" y="-543.9" font-family="Arial" font-size="14.00" fill="#000000">id </text>
<text text-anchor="start" x="307.7798" y="-543.9" font-family="Arial" font-size="14.00" fill="#666666">[bigint unsigned]</text>
<polygon fill="none" stroke="#000000" points="286,-502.5 286,-532.5 533,-532.5 533,-502.5 286,-502.5"/>
<text text-anchor="start" x="293" y="-513.9" font-family="Arial" font-size="14.00" fill="#000000">station_id </text>
<text text-anchor="start" x="356.798" y="-513.9" font-family="Arial" font-size="14.00" fill="#666666">[bigint unsigned]</text>
<polygon fill="none" stroke="#000000" points="286,-472.5 286,-502.5 533,-502.5 533,-472.5 286,-472.5"/>
<text text-anchor="start" x="293" y="-483.9" font-family="Arial" font-size="14.00" fill="#000000">pos_name </text>
<text text-anchor="start" x="362.2468" y="-483.9" font-family="Arial" font-size="14.00" fill="#666666">[varchar(64)]</text>
<polygon fill="none" stroke="#000000" points="286,-442.5 286,-472.5 533,-472.5 533,-442.5 286,-442.5"/>
<text text-anchor="start" x="293" y="-453.9" font-family="Arial" font-size="14.00" fill="#000000">track_name_short </text>
<text text-anchor="start" x="408.9144" y="-453.9" font-family="Arial" font-size="14.00" fill="#666666">[varchar(16)]</text>
<polygon fill="none" stroke="#000000" points="286,-412.5 286,-442.5 533,-442.5 533,-412.5 286,-412.5"/>
<text text-anchor="start" x="293" y="-423.9" font-family="Arial" font-size="14.00" fill="#000000">stop_pos_location </text>
<text text-anchor="start" x="409.711" y="-423.9" font-family="Arial" font-size="14.00" fill="#666666">[double]</text>
<polygon fill="none" stroke="#000000" points="286,-382.5 286,-412.5 533,-412.5 533,-382.5 286,-382.5"/>
<text text-anchor="start" x="293" y="-393.9" font-family="Arial" font-size="14.00" fill="#000000">run_in_limit </text>
<text text-anchor="start" x="368.4418" y="-393.9" font-family="Arial" font-size="14.00" fill="#666666">[smallint]</text>
<polygon fill="none" stroke="#000000" points="286,-352.5 286,-382.5 533,-382.5 533,-352.5 286,-352.5"/>
<text text-anchor="start" x="293" y="-363.9" font-family="Arial" font-size="14.00" fill="#000000">run_out_limit </text>
<text text-anchor="start" x="377.0084" y="-363.9" font-family="Arial" font-size="14.00" fill="#666666">[smallint]</text>
<polygon fill="none" stroke="#000000" stroke-width="3" points="284,-351.5 284,-599.5 534,-599.5 534,-351.5 284,-351.5"/>
</g>
<!-- stations -->
<g id="node3" class="node">
<title>stations</title>
<polygon fill="#efefef" stroke="transparent" points="312,-192.5 312,-227.5 507,-227.5 507,-192.5 312,-192.5"/>
<polygon fill="none" stroke="#000000" points="312,-192.5 312,-227.5 507,-227.5 507,-192.5 312,-192.5"/>
<text text-anchor="start" x="329.8645" y="-205.3" font-family="Arial Bold" font-size="18.00" fill="#000000">stations</text>
<text text-anchor="start" x="391.8817" y="-205.3" font-family="Arial" font-size="14.00" fill="#000000"> </text>
<text text-anchor="start" x="395.7723" y="-205.3" font-family="Arial" font-size="14.00" fill="#666666">[BASE TABLE]</text>
<polygon fill="none" stroke="#000000" points="312,-162.5 312,-192.5 507,-192.5 507,-162.5 312,-162.5"/>
<text text-anchor="start" x="319" y="-173.9" font-family="Arial" font-size="14.00" fill="#000000">id </text>
<text text-anchor="start" x="333.7798" y="-173.9" font-family="Arial" font-size="14.00" fill="#666666">[bigint unsigned]</text>
<polygon fill="none" stroke="#000000" points="312,-132.5 312,-162.5 507,-162.5 507,-132.5 312,-132.5"/>
<text text-anchor="start" x="318.864" y="-143.9" font-family="Arial" font-size="14.00" fill="#000000">train_line_id </text>
<text text-anchor="start" x="398.2104" y="-143.9" font-family="Arial" font-size="14.00" fill="#666666">[bigint unsigned]</text>
<polygon fill="none" stroke="#000000" points="312,-102.5 312,-132.5 507,-132.5 507,-102.5 312,-102.5"/>
<text text-anchor="start" x="319" y="-113.9" font-family="Arial" font-size="14.00" fill="#000000">station_name </text>
<text text-anchor="start" x="406.9172" y="-113.9" font-family="Arial" font-size="14.00" fill="#666666">[varchar(64)]</text>
<polygon fill="none" stroke="#000000" points="312,-72.5 312,-102.5 507,-102.5 507,-72.5 312,-72.5"/>
<text text-anchor="start" x="319" y="-83.9" font-family="Arial" font-size="14.00" fill="#000000">name_short </text>
<text text-anchor="start" x="396.798" y="-83.9" font-family="Arial" font-size="14.00" fill="#666666">[varchar(16)]</text>
<polygon fill="none" stroke="#000000" points="312,-42.5 312,-72.5 507,-72.5 507,-42.5 312,-42.5"/>
<text text-anchor="start" x="319" y="-53.9" font-family="Arial" font-size="14.00" fill="#000000">sta_location </text>
<text text-anchor="start" x="397.5806" y="-53.9" font-family="Arial" font-size="14.00" fill="#666666">[double]</text>
</g>
<!-- station_stop_pos&#45;&gt;stations -->
<g id="edge2" class="edge">
<title>station_stop_pos:station_id&#45;&gt;stations:id</title>
<path fill="none" stroke="#000000" d="M276.0095,-515.3288C212.7707,-486.3721 239.7759,-177.5 312,-177.5"/>
<polygon fill="#000000" stroke="#000000" points="276.2281,-515.3763 285.0443,-521.8974 281.114,-516.4381 286,-517.5 286,-517.5 286,-517.5 281.114,-516.4381 286.9557,-513.1026 276.2281,-515.3763 276.2281,-515.3763"/>
<text text-anchor="start" x="32.938" y="-527.5" font-family="Arial" font-size="10.00" fill="#000000">FOREIGN KEY (station_id) REFERENCES stations (id)</text>
</g>
<!-- sta_time -->
<g id="node2" class="node">
<title>sta_time</title>
<polygon fill="#efefef" stroke="transparent" points="312,-1022.5 312,-1057.5 507,-1057.5 507,-1022.5 312,-1022.5"/>
<polygon fill="none" stroke="#000000" points="312,-1022.5 312,-1057.5 507,-1057.5 507,-1022.5 312,-1022.5"/>
<text text-anchor="start" x="326.8684" y="-1035.3" font-family="Arial Bold" font-size="18.00" fill="#000000">sta_time</text>
<text text-anchor="start" x="394.8778" y="-1035.3" font-family="Arial" font-size="14.00" fill="#000000"> </text>
<text text-anchor="start" x="398.7684" y="-1035.3" font-family="Arial" font-size="14.00" fill="#666666">[BASE TABLE]</text>
<polygon fill="none" stroke="#000000" points="312,-992.5 312,-1022.5 507,-1022.5 507,-992.5 312,-992.5"/>
<text text-anchor="start" x="319" y="-1003.9" font-family="Arial" font-size="14.00" fill="#000000">id </text>
<text text-anchor="start" x="333.7798" y="-1003.9" font-family="Arial" font-size="14.00" fill="#666666">[bigint unsigned]</text>
<polygon fill="none" stroke="#000000" points="312,-962.5 312,-992.5 507,-992.5 507,-962.5 312,-962.5"/>
<text text-anchor="start" x="319" y="-973.9" font-family="Arial" font-size="14.00" fill="#000000">train_id </text>
<text text-anchor="start" x="368.7854" y="-973.9" font-family="Arial" font-size="14.00" fill="#666666">[bigint unsigned]</text>
<polygon fill="none" stroke="#000000" points="312,-932.5 312,-962.5 507,-962.5 507,-932.5 312,-932.5"/>
<text text-anchor="start" x="318.8542" y="-943.9" font-family="Arial" font-size="14.00" fill="#000000">stop_pos_id </text>
<text text-anchor="start" x="398.2202" y="-943.9" font-family="Arial" font-size="14.00" fill="#666666">[bigint unsigned]</text>
<polygon fill="none" stroke="#000000" points="312,-902.5 312,-932.5 507,-932.5 507,-902.5 312,-902.5"/>
<text text-anchor="start" x="319" y="-913.9" font-family="Arial" font-size="14.00" fill="#000000">arr_time </text>
<text text-anchor="start" x="374.2174" y="-913.9" font-family="Arial" font-size="14.00" fill="#666666">[time]</text>
<polygon fill="none" stroke="#000000" points="312,-872.5 312,-902.5 507,-902.5 507,-872.5 312,-872.5"/>
<text text-anchor="start" x="319" y="-883.9" font-family="Arial" font-size="14.00" fill="#000000">dep_time </text>
<text text-anchor="start" x="380.4614" y="-883.9" font-family="Arial" font-size="14.00" fill="#666666">[time]</text>
<polygon fill="none" stroke="#000000" points="312,-842.5 312,-872.5 507,-872.5 507,-842.5 312,-842.5"/>
<text text-anchor="start" x="319" y="-853.9" font-family="Arial" font-size="14.00" fill="#000000">is_pass </text>
<text text-anchor="start" x="370.345" y="-853.9" font-family="Arial" font-size="14.00" fill="#666666">[bit(1)]</text>
<polygon fill="none" stroke="#000000" points="312,-812.5 312,-842.5 507,-842.5 507,-812.5 312,-812.5"/>
<text text-anchor="start" x="319" y="-823.9" font-family="Arial" font-size="14.00" fill="#000000">track_id </text>
<text text-anchor="start" x="371.8962" y="-823.9" font-family="Arial" font-size="14.00" fill="#666666">[bigint unsigned]</text>
<polygon fill="none" stroke="#000000" points="312,-782.5 312,-812.5 507,-812.5 507,-782.5 312,-782.5"/>
<text text-anchor="start" x="319" y="-793.9" font-family="Arial" font-size="14.00" fill="#000000">radio_ch_id </text>
<text text-anchor="start" x="395.2426" y="-793.9" font-family="Arial" font-size="14.00" fill="#666666">[bigint unsigned]</text>
<polygon fill="none" stroke="#000000" points="312,-752.5 312,-782.5 507,-782.5 507,-752.5 312,-752.5"/>
<text text-anchor="start" x="319" y="-763.9" font-family="Arial" font-size="14.00" fill="#000000">sta_color </text>
<text text-anchor="start" x="379.6788" y="-763.9" font-family="Arial" font-size="14.00" fill="#666666">[char(8)]</text>
<polygon fill="none" stroke="#000000" points="312,-722.5 312,-752.5 507,-752.5 507,-722.5 312,-722.5"/>
<text text-anchor="start" x="319" y="-733.9" font-family="Arial" font-size="14.00" fill="#000000">line_color </text>
<text text-anchor="start" x="382.784" y="-733.9" font-family="Arial" font-size="14.00" fill="#666666">[char(8)]</text>
</g>
<!-- sta_time&#45;&gt;station_stop_pos -->
<g id="edge1" class="edge">
<title>sta_time:stop_pos_id&#45;&gt;station_stop_pos:id</title>
<path fill="none" stroke="#000000" d="M301.8532,-945.7166C221.0679,-916.8604 200.4031,-547.5 286,-547.5"/>
<polygon fill="#000000" stroke="#000000" points="302.151,-945.7689 311.221,-951.9321 307.0755,-946.6344 312,-947.5 312,-947.5 312,-947.5 307.0755,-946.6344 312.779,-943.0679 302.151,-945.7689 302.151,-945.7689"/>
<text text-anchor="start" x="6.8115" y="-957.5" font-family="Arial" font-size="10.00" fill="#000000">FOREIGN KEY (stop_pos_id) REFERENCES station_stop_pos (id)</text>
</g>
</g>
</svg>
