<?xml version="1.0" encoding="UTF-8" standalone="no"?>
<!DOCTYPE svg PUBLIC "-//W3C//DTD SVG 1.1//EN"
 "http://www.w3.org/Graphics/SVG/1.1/DTD/svg11.dtd">
<!-- Generated by graphviz version 2.40.1 (20161225.0304)
 -->
<!-- Title: stations Pages: 1 -->
<svg width="558pt" height="959pt"
 viewBox="0.00 0.00 557.50 959.00" xmlns="http://www.w3.org/2000/svg" xmlns:xlink="http://www.w3.org/1999/xlink">
<g id="graph0" class="graph" transform="scale(1 1) rotate(0) translate(4 955)">
<title>stations</title>
<polygon fill="#ffffff" stroke="transparent" points="-4,4 -4,-955 553.5,-955 553.5,4 -4,4"/>
<!-- stations -->
<g id="node1" class="node">
<title>stations</title>
<polygon fill="#efefef" stroke="transparent" points="286,-502.5 286,-537.5 481,-537.5 481,-502.5 286,-502.5"/>
<polygon fill="none" stroke="#000000" points="286,-502.5 286,-537.5 481,-537.5 481,-502.5 286,-502.5"/>
<text text-anchor="start" x="303.8645" y="-515.3" font-family="Arial Bold" font-size="18.00" fill="#000000">stations</text>
<text text-anchor="start" x="365.8817" y="-515.3" font-family="Arial" font-size="14.00" fill="#000000"> </text>
<text text-anchor="start" x="369.7723" y="-515.3" font-family="Arial" font-size="14.00" fill="#666666">[BASE TABLE]</text>
<polygon fill="none" stroke="#000000" points="286,-472.5 286,-502.5 481,-502.5 481,-472.5 286,-472.5"/>
<text text-anchor="start" x="293" y="-483.9" font-family="Arial" font-size="14.00" fill="#000000">id </text>
<text text-anchor="start" x="307.7798" y="-483.9" font-family="Arial" font-size="14.00" fill="#666666">[bigint unsigned]</text>
<polygon fill="none" stroke="#000000" points="286,-442.5 286,-472.5 481,-472.5 481,-442.5 286,-442.5"/>
<text text-anchor="start" x="292.864" y="-453.9" font-family="Arial" font-size="14.00" fill="#000000">train_line_id </text>
<text text-anchor="start" x="372.2104" y="-453.9" font-family="Arial" font-size="14.00" fill="#666666">[bigint unsigned]</text>
<polygon fill="none" stroke="#000000" points="286,-412.5 286,-442.5 481,-442.5 481,-412.5 286,-412.5"/>
<text text-anchor="start" x="293" y="-423.9" font-family="Arial" font-size="14.00" fill="#000000">station_name </text>
<text text-anchor="start" x="380.9172" y="-423.9" font-family="Arial" font-size="14.00" fill="#666666">[varchar(64)]</text>
<polygon fill="none" stroke="#000000" points="286,-382.5 286,-412.5 481,-412.5 481,-382.5 286,-382.5"/>
<text text-anchor="start" x="293" y="-393.9" font-family="Arial" font-size="14.00" fill="#000000">name_short </text>
<text text-anchor="start" x="370.798" y="-393.9" font-family="Arial" font-size="14.00" fill="#666666">[varchar(16)]</text>
<polygon fill="none" stroke="#000000" points="286,-352.5 286,-382.5 481,-382.5 481,-352.5 286,-352.5"/>
<text text-anchor="start" x="293" y="-363.9" font-family="Arial" font-size="14.00" fill="#000000">sta_location </text>
<text text-anchor="start" x="371.5806" y="-363.9" font-family="Arial" font-size="14.00" fill="#666666">[double]</text>
<polygon fill="none" stroke="#000000" stroke-width="3" points="284,-351.5 284,-539.5 482,-539.5 482,-351.5 284,-351.5"/>
</g>
<!-- train_lines -->
<g id="node3" class="node">
<title>train_lines</title>
<polygon fill="#efefef" stroke="transparent" points="287,-192.5 287,-227.5 480,-227.5 480,-192.5 287,-192.5"/>
<polygon fill="none" stroke="#000000" points="287,-192.5 287,-227.5 480,-227.5 480,-192.5 287,-192.5"/>
<text text-anchor="start" x="293.8691" y="-205.3" font-family="Arial Bold" font-size="18.00" fill="#000000">train_lines</text>
<text text-anchor="start" x="375.8771" y="-205.3" font-family="Arial" font-size="14.00" fill="#000000"> </text>
<text text-anchor="start" x="379.7677" y="-205.3" font-family="Arial" font-size="14.00" fill="#666666">[BASE TABLE]</text>
<polygon fill="none" stroke="#000000" points="287,-162.5 287,-192.5 480,-192.5 480,-162.5 287,-162.5"/>
<text text-anchor="start" x="294" y="-173.9" font-family="Arial" font-size="14.00" fill="#000000">id </text>
<text text-anchor="start" x="308.7798" y="-173.9" font-family="Arial" font-size="14.00" fill="#666666">[bigint unsigned]</text>
<polygon fill="none" stroke="#000000" points="287,-132.5 287,-162.5 480,-162.5 480,-132.5 287,-132.5"/>
<text text-anchor="start" x="294" y="-143.9" font-family="Arial" font-size="14.00" fill="#000000">line_name </text>
<text text-anchor="start" x="362.46" y="-143.9" font-family="Arial" font-size="14.00" fill="#666666">[varchar(255)]</text>
<polygon fill="none" stroke="#000000" points="287,-102.5 287,-132.5 480,-132.5 480,-102.5 287,-102.5"/>
<text text-anchor="start" x="294" y="-113.9" font-family="Arial" font-size="14.00" fill="#000000">created_at </text>
<text text-anchor="start" x="364.028" y="-113.9" font-family="Arial" font-size="14.00" fill="#666666">[date]</text>
<polygon fill="none" stroke="#000000" points="287,-72.5 287,-102.5 480,-102.5 480,-72.5 287,-72.5"/>
<text text-anchor="start" x="294" y="-83.9" font-family="Arial" font-size="14.00" fill="#000000">effected_at </text>
<text text-anchor="start" x="367.1486" y="-83.9" font-family="Arial" font-size="14.00" fill="#666666">[date]</text>
<polygon fill="none" stroke="#000000" points="287,-42.5 287,-72.5 480,-72.5 480,-42.5 287,-42.5"/>
<text text-anchor="start" x="294" y="-53.9" font-family="Arial" font-size="14.00" fill="#000000">line_description </text>
<text text-anchor="start" x="395.129" y="-53.9" font-family="Arial" font-size="14.00" fill="#666666">[text]</text>
</g>
<!-- stations&#45;&gt;train_lines -->
<g id="edge2" class="edge">
<title>stations:train_line_id&#45;&gt;train_lines:id</title>
<path fill="none" stroke="#000000" d="M275.7288,-456.839C161.7104,-441.8652 166.0791,-177.5 287,-177.5"/>
<polygon fill="#000000" stroke="#000000" points="276.0206,-456.8577 285.711,-461.9907 281.0103,-457.1788 286,-457.5 286,-457.5 286,-457.5 281.0103,-457.1788 286.289,-453.0093 276.0206,-456.8577 276.0206,-456.8577"/>
<text text-anchor="start" x="10.832" y="-467.5" font-family="Arial" font-size="10.00" fill="#000000">FOREIGN KEY (train_line_id) REFERENCES train_lines (id)</text>
</g>
<!-- station_stop_pos -->
<g id="node2" class="node">
<title>station_stop_pos</title>
<polygon fill="#efefef" stroke="transparent" points="260,-872.5 260,-907.5 507,-907.5 507,-872.5 260,-872.5"/>
<polygon fill="none" stroke="#000000" points="260,-872.5 260,-907.5 507,-907.5 507,-872.5 260,-872.5"/>
<text text-anchor="start" x="266.8448" y="-885.3" font-family="Arial Bold" font-size="18.00" fill="#000000">station_stop_pos</text>
<text text-anchor="start" x="402.9014" y="-885.3" font-family="Arial" font-size="14.00" fill="#000000"> </text>
<text text-anchor="start" x="406.792" y="-885.3" font-family="Arial" font-size="14.00" fill="#666666">[BASE TABLE]</text>
<polygon fill="none" stroke="#000000" points="260,-842.5 260,-872.5 507,-872.5 507,-842.5 260,-842.5"/>
<text text-anchor="start" x="267" y="-853.9" font-family="Arial" font-size="14.00" fill="#000000">id </text>
<text text-anchor="start" x="281.7798" y="-853.9" font-family="Arial" font-size="14.00" fill="#666666">[bigint unsigned]</text>
<polygon fill="none" stroke="#000000" points="260,-812.5 260,-842.5 507,-842.5 507,-812.5 260,-812.5"/>
<text text-anchor="start" x="267" y="-823.9" font-family="Arial" font-size="14.00" fill="#000000">station_id </text>
<text text-anchor="start" x="330.798" y="-823.9" font-family="Arial" font-size="14.00" fill="#666666">[bigint unsigned]</text>
<polygon fill="none" stroke="#000000" points="260,-782.5 260,-812.5 507,-812.5 507,-782.5 260,-782.5"/>
<text text-anchor="start" x="267" y="-793.9" font-family="Arial" font-size="14.00" fill="#000000">pos_name </text>
<text text-anchor="start" x="336.2468" y="-793.9" font-family="Arial" font-size="14.00" fill="#666666">[varchar(64)]</text>
<polygon fill="none" stroke="#000000" points="260,-752.5 260,-782.5 507,-782.5 507,-752.5 260,-752.5"/>
<text text-anchor="start" x="267" y="-763.9" font-family="Arial" font-size="14.00" fill="#000000">track_name_short </text>
<text text-anchor="start" x="382.9144" y="-763.9" font-family="Arial" font-size="14.00" fill="#666666">[varchar(16)]</text>
<polygon fill="none" stroke="#000000" points="260,-722.5 260,-752.5 507,-752.5 507,-722.5 260,-722.5"/>
<text text-anchor="start" x="267" y="-733.9" font-family="Arial" font-size="14.00" fill="#000000">stop_pos_location </text>
<text text-anchor="start" x="383.711" y="-733.9" font-family="Arial" font-size="14.00" fill="#666666">[double]</text>
<polygon fill="none" stroke="#000000" points="260,-692.5 260,-722.5 507,-722.5 507,-692.5 260,-692.5"/>
<text text-anchor="start" x="267" y="-703.9" font-family="Arial" font-size="14.00" fill="#000000">run_in_limit </text>
<text text-anchor="start" x="342.4418" y="-703.9" font-family="Arial" font-size="14.00" fill="#666666">[smallint]</text>
<polygon fill="none" stroke="#000000" points="260,-662.5 260,-692.5 507,-692.5 507,-662.5 260,-662.5"/>
<text text-anchor="start" x="267" y="-673.9" font-family="Arial" font-size="14.00" fill="#000000">run_out_limit </text>
<text text-anchor="start" x="351.0084" y="-673.9" font-family="Arial" font-size="14.00" fill="#666666">[smallint]</text>
</g>
<!-- station_stop_pos&#45;&gt;stations -->
<g id="edge1" class="edge">
<title>station_stop_pos:station_id&#45;&gt;stations:id</title>
<path fill="none" stroke="#000000" d="M250.0095,-825.3288C186.7707,-796.3721 213.7759,-487.5 286,-487.5"/>
<polygon fill="#000000" stroke="#000000" points="250.2281,-825.3763 259.0443,-831.8974 255.114,-826.4381 260,-827.5 260,-827.5 260,-827.5 255.114,-826.4381 260.9557,-823.1026 250.2281,-825.3763 250.2281,-825.3763"/>
<text text-anchor="start" x="6.938" y="-837.5" font-family="Arial" font-size="10.00" fill="#000000">FOREIGN KEY (station_id) REFERENCES stations (id)</text>
</g>
</g>
</svg>
