<?xml version="1.0" encoding="UTF-8" standalone="no"?>
<!DOCTYPE svg PUBLIC "-//W3C//DTD SVG 1.1//EN"
 "http://www.w3.org/Graphics/SVG/1.1/DTD/svg11.dtd">
<!-- Generated by graphviz version 2.40.1 (20161225.0304)
 -->
<!-- Title: tracks Pages: 1 -->
<svg width="531pt" height="1019pt"
 viewBox="0.00 0.00 530.50 1019.00" xmlns="http://www.w3.org/2000/svg" xmlns:xlink="http://www.w3.org/1999/xlink">
<g id="graph0" class="graph" transform="scale(1 1) rotate(0) translate(4 1015)">
<title>tracks</title>
<polygon fill="#ffffff" stroke="transparent" points="-4,4 -4,-1015 526.5,-1015 526.5,4 -4,4"/>
<!-- tracks -->
<g id="node1" class="node">
<title>tracks</title>
<polygon fill="#efefef" stroke="transparent" points="282,-472.5 282,-507.5 477,-507.5 477,-472.5 282,-472.5"/>
<polygon fill="none" stroke="#000000" points="282,-472.5 282,-507.5 477,-507.5 477,-472.5 282,-472.5"/>
<text text-anchor="start" x="306.8728" y="-485.3" font-family="Arial Bold" font-size="18.00" fill="#000000">tracks</text>
<text text-anchor="start" x="354.8734" y="-485.3" font-family="Arial" font-size="14.00" fill="#000000"> </text>
<text text-anchor="start" x="358.764" y="-485.3" font-family="Arial" font-size="14.00" fill="#666666">[BASE TABLE]</text>
<polygon fill="none" stroke="#000000" points="282,-442.5 282,-472.5 477,-472.5 477,-442.5 282,-442.5"/>
<text text-anchor="start" x="289" y="-453.9" font-family="Arial" font-size="14.00" fill="#000000">id </text>
<text text-anchor="start" x="303.7798" y="-453.9" font-family="Arial" font-size="14.00" fill="#666666">[bigint unsigned]</text>
<polygon fill="none" stroke="#000000" points="282,-412.5 282,-442.5 477,-442.5 477,-412.5 282,-412.5"/>
<text text-anchor="start" x="288.864" y="-423.9" font-family="Arial" font-size="14.00" fill="#000000">train_line_id </text>
<text text-anchor="start" x="368.2104" y="-423.9" font-family="Arial" font-size="14.00" fill="#666666">[bigint unsigned]</text>
<polygon fill="none" stroke="#000000" points="282,-382.5 282,-412.5 477,-412.5 477,-382.5 282,-382.5"/>
<text text-anchor="start" x="289" y="-393.9" font-family="Arial" font-size="14.00" fill="#000000">track_name </text>
<text text-anchor="start" x="366.0154" y="-393.9" font-family="Arial" font-size="14.00" fill="#666666">[varchar(64)]</text>
<polygon fill="none" stroke="#000000" points="282,-352.5 282,-382.5 477,-382.5 477,-352.5 282,-352.5"/>
<text text-anchor="start" x="289" y="-363.9" font-family="Arial" font-size="14.00" fill="#000000">track_description </text>
<text text-anchor="start" x="398.6844" y="-363.9" font-family="Arial" font-size="14.00" fill="#666666">[text]</text>
<polygon fill="none" stroke="#000000" stroke-width="3" points="280,-351.5 280,-509.5 478,-509.5 478,-351.5 280,-351.5"/>
</g>
<!-- train_lines -->
<g id="node3" class="node">
<title>train_lines</title>
<polygon fill="#efefef" stroke="transparent" points="283,-192.5 283,-227.5 476,-227.5 476,-192.5 283,-192.5"/>
<polygon fill="none" stroke="#000000" points="283,-192.5 283,-227.5 476,-227.5 476,-192.5 283,-192.5"/>
<text text-anchor="start" x="289.8691" y="-205.3" font-family="Arial Bold" font-size="18.00" fill="#000000">train_lines</text>
<text text-anchor="start" x="371.8771" y="-205.3" font-family="Arial" font-size="14.00" fill="#000000"> </text>
<text text-anchor="start" x="375.7677" y="-205.3" font-family="Arial" font-size="14.00" fill="#666666">[BASE TABLE]</text>
<polygon fill="none" stroke="#000000" points="283,-162.5 283,-192.5 476,-192.5 476,-162.5 283,-162.5"/>
<text text-anchor="start" x="290" y="-173.9" font-family="Arial" font-size="14.00" fill="#000000">id </text>
<text text-anchor="start" x="304.7798" y="-173.9" font-family="Arial" font-size="14.00" fill="#666666">[bigint unsigned]</text>
<polygon fill="none" stroke="#000000" points="283,-132.5 283,-162.5 476,-162.5 476,-132.5 283,-132.5"/>
<text text-anchor="start" x="290" y="-143.9" font-family="Arial" font-size="14.00" fill="#000000">line_name </text>
<text text-anchor="start" x="358.46" y="-143.9" font-family="Arial" font-size="14.00" fill="#666666">[varchar(255)]</text>
<polygon fill="none" stroke="#000000" points="283,-102.5 283,-132.5 476,-132.5 476,-102.5 283,-102.5"/>
<text text-anchor="start" x="290" y="-113.9" font-family="Arial" font-size="14.00" fill="#000000">created_at </text>
<text text-anchor="start" x="360.028" y="-113.9" font-family="Arial" font-size="14.00" fill="#666666">[date]</text>
<polygon fill="none" stroke="#000000" points="283,-72.5 283,-102.5 476,-102.5 476,-72.5 283,-72.5"/>
<text text-anchor="start" x="290" y="-83.9" font-family="Arial" font-size="14.00" fill="#000000">effected_at </text>
<text text-anchor="start" x="363.1486" y="-83.9" font-family="Arial" font-size="14.00" fill="#666666">[date]</text>
<polygon fill="none" stroke="#000000" points="283,-42.5 283,-72.5 476,-72.5 476,-42.5 283,-42.5"/>
<text text-anchor="start" x="290" y="-53.9" font-family="Arial" font-size="14.00" fill="#000000">line_description </text>
<text text-anchor="start" x="391.129" y="-53.9" font-family="Arial" font-size="14.00" fill="#666666">[text]</text>
</g>
<!-- tracks&#45;&gt;train_lines -->
<g id="edge2" class="edge">
<title>tracks:train_line_id&#45;&gt;train_lines:id</title>
<path fill="none" stroke="#000000" d="M271.9116,-426.7828C171.058,-412.1191 175.3603,-177.5 283,-177.5"/>
<polygon fill="#000000" stroke="#000000" points="272.0252,-426.7908 281.6809,-431.9887 277.0126,-427.1454 282,-427.5 282,-427.5 282,-427.5 277.0126,-427.1454 282.3191,-423.0113 272.0252,-426.7908 272.0252,-426.7908"/>
<text text-anchor="start" x="6.832" y="-437.5" font-family="Arial" font-size="10.00" fill="#000000">FOREIGN KEY (train_line_id) REFERENCES train_lines (id)</text>
</g>
<!-- sta_time -->
<g id="node2" class="node">
<title>sta_time</title>
<polygon fill="#efefef" stroke="transparent" points="282,-932.5 282,-967.5 477,-967.5 477,-932.5 282,-932.5"/>
<polygon fill="none" stroke="#000000" points="282,-932.5 282,-967.5 477,-967.5 477,-932.5 282,-932.5"/>
<text text-anchor="start" x="296.8684" y="-945.3" font-family="Arial Bold" font-size="18.00" fill="#000000">sta_time</text>
<text text-anchor="start" x="364.8778" y="-945.3" font-family="Arial" font-size="14.00" fill="#000000"> </text>
<text text-anchor="start" x="368.7684" y="-945.3" font-family="Arial" font-size="14.00" fill="#666666">[BASE TABLE]</text>
<polygon fill="none" stroke="#000000" points="282,-902.5 282,-932.5 477,-932.5 477,-902.5 282,-902.5"/>
<text text-anchor="start" x="289" y="-913.9" font-family="Arial" font-size="14.00" fill="#000000">id </text>
<text text-anchor="start" x="303.7798" y="-913.9" font-family="Arial" font-size="14.00" fill="#666666">[bigint unsigned]</text>
<polygon fill="none" stroke="#000000" points="282,-872.5 282,-902.5 477,-902.5 477,-872.5 282,-872.5"/>
<text text-anchor="start" x="289" y="-883.9" font-family="Arial" font-size="14.00" fill="#000000">train_id </text>
<text text-anchor="start" x="338.7854" y="-883.9" font-family="Arial" font-size="14.00" fill="#666666">[bigint unsigned]</text>
<polygon fill="none" stroke="#000000" points="282,-842.5 282,-872.5 477,-872.5 477,-842.5 282,-842.5"/>
<text text-anchor="start" x="288.8542" y="-853.9" font-family="Arial" font-size="14.00" fill="#000000">stop_pos_id </text>
<text text-anchor="start" x="368.2202" y="-853.9" font-family="Arial" font-size="14.00" fill="#666666">[bigint unsigned]</text>
<polygon fill="none" stroke="#000000" points="282,-812.5 282,-842.5 477,-842.5 477,-812.5 282,-812.5"/>
<text text-anchor="start" x="289" y="-823.9" font-family="Arial" font-size="14.00" fill="#000000">arr_time </text>
<text text-anchor="start" x="344.2174" y="-823.9" font-family="Arial" font-size="14.00" fill="#666666">[time]</text>
<polygon fill="none" stroke="#000000" points="282,-782.5 282,-812.5 477,-812.5 477,-782.5 282,-782.5"/>
<text text-anchor="start" x="289" y="-793.9" font-family="Arial" font-size="14.00" fill="#000000">dep_time </text>
<text text-anchor="start" x="350.4614" y="-793.9" font-family="Arial" font-size="14.00" fill="#666666">[time]</text>
<polygon fill="none" stroke="#000000" points="282,-752.5 282,-782.5 477,-782.5 477,-752.5 282,-752.5"/>
<text text-anchor="start" x="289" y="-763.9" font-family="Arial" font-size="14.00" fill="#000000">is_pass </text>
<text text-anchor="start" x="340.345" y="-763.9" font-family="Arial" font-size="14.00" fill="#666666">[bit(1)]</text>
<polygon fill="none" stroke="#000000" points="282,-722.5 282,-752.5 477,-752.5 477,-722.5 282,-722.5"/>
<text text-anchor="start" x="289" y="-733.9" font-family="Arial" font-size="14.00" fill="#000000">track_id </text>
<text text-anchor="start" x="341.8962" y="-733.9" font-family="Arial" font-size="14.00" fill="#666666">[bigint unsigned]</text>
<polygon fill="none" stroke="#000000" points="282,-692.5 282,-722.5 477,-722.5 477,-692.5 282,-692.5"/>
<text text-anchor="start" x="289" y="-703.9" font-family="Arial" font-size="14.00" fill="#000000">radio_ch_id </text>
<text text-anchor="start" x="365.2426" y="-703.9" font-family="Arial" font-size="14.00" fill="#666666">[bigint unsigned]</text>
<polygon fill="none" stroke="#000000" points="282,-662.5 282,-692.5 477,-692.5 477,-662.5 282,-662.5"/>
<text text-anchor="start" x="289" y="-673.9" font-family="Arial" font-size="14.00" fill="#000000">sta_color </text>
<text text-anchor="start" x="349.6788" y="-673.9" font-family="Arial" font-size="14.00" fill="#666666">[char(8)]</text>
<polygon fill="none" stroke="#000000" points="282,-632.5 282,-662.5 477,-662.5 477,-632.5 282,-632.5"/>
<text text-anchor="start" x="289" y="-643.9" font-family="Arial" font-size="14.00" fill="#000000">line_color </text>
<text text-anchor="start" x="352.784" y="-643.9" font-family="Arial" font-size="14.00" fill="#666666">[char(8)]</text>
</g>
<!-- sta_time&#45;&gt;tracks -->
<g id="edge1" class="edge">
<title>sta_time:track_id&#45;&gt;tracks:id</title>
<path fill="none" stroke="#000000" d="M272.0259,-734.9069C219.9774,-706.6795 223.3021,-457.5 282,-457.5"/>
<polygon fill="#000000" stroke="#000000" points="272.3217,-734.9837 280.8677,-741.8552 277.1609,-736.2419 282,-737.5 282,-737.5 282,-737.5 277.1609,-736.2419 283.1323,-733.1448 272.3217,-734.9837 272.3217,-734.9837"/>
<text text-anchor="start" x="44.725" y="-747.5" font-family="Arial" font-size="10.00" fill="#000000">FOREIGN KEY (track_id) REFERENCES tracks (id)</text>
</g>
</g>
</svg>
