<?xml version="1.0" encoding="UTF-8" standalone="no"?>
<!DOCTYPE svg PUBLIC "-//W3C//DTD SVG 1.1//EN"
 "http://www.w3.org/Graphics/SVG/1.1/DTD/svg11.dtd">
<!-- Generated by graphviz version 2.40.1 (20161225.0304)
 -->
<!-- Title: train_lines Pages: 1 -->
<svg width="2956pt" height="622pt"
 viewBox="0.00 0.00 2956.00 622.00" xmlns="http://www.w3.org/2000/svg" xmlns:xlink="http://www.w3.org/1999/xlink">
<g id="graph0" class="graph" transform="scale(1 1) rotate(0) translate(4 618)">
<title>train_lines</title>
<polygon fill="#ffffff" stroke="transparent" points="-4,4 -4,-618 2952,-618 2952,4 -4,4"/>
<!-- train_lines -->
<g id="node1" class="node">
<title>train_lines</title>
<polygon fill="#efefef" stroke="transparent" points="1406,-195.5 1406,-230.5 1599,-230.5 1599,-195.5 1406,-195.5"/>
<polygon fill="none" stroke="#000000" points="1406,-195.5 1406,-230.5 1599,-230.5 1599,-195.5 1406,-195.5"/>
<text text-anchor="start" x="1412.8691" y="-208.3" font-family="Arial Bold" font-size="18.00" fill="#000000">train_lines</text>
<text text-anchor="start" x="1494.8771" y="-208.3" font-family="Arial" font-size="14.00" fill="#000000"> </text>
<text text-anchor="start" x="1498.7677" y="-208.3" font-family="Arial" font-size="14.00" fill="#666666">[BASE TABLE]</text>
<polygon fill="none" stroke="#000000" points="1406,-165.5 1406,-195.5 1599,-195.5 1599,-165.5 1406,-165.5"/>
<text text-anchor="start" x="1413" y="-176.9" font-family="Arial" font-size="14.00" fill="#000000">id </text>
<text text-anchor="start" x="1427.7798" y="-176.9" font-family="Arial" font-size="14.00" fill="#666666">[bigint unsigned]</text>
<polygon fill="none" stroke="#000000" points="1406,-135.5 1406,-165.5 1599,-165.5 1599,-135.5 1406,-135.5"/>
<text text-anchor="start" x="1413" y="-146.9" font-family="Arial" font-size="14.00" fill="#000000">line_name </text>
<text text-anchor="start" x="1481.46" y="-146.9" font-family="Arial" font-size="14.00" fill="#666666">[varchar(255)]</text>
<polygon fill="none" stroke="#000000" points="1406,-105.5 1406,-135.5 1599,-135.5 1599,-105.5 1406,-105.5"/>
<text text-anchor="start" x="1413" y="-116.9" font-family="Arial" font-size="14.00" fill="#000000">created_at </text>
<text text-anchor="start" x="1483.028" y="-116.9" font-family="Arial" font-size="14.00" fill="#666666">[date]</text>
<polygon fill="none" stroke="#000000" points="1406,-75.5 1406,-105.5 1599,-105.5 1599,-75.5 1406,-75.5"/>
<text text-anchor="start" x="1413" y="-86.9" font-family="Arial" font-size="14.00" fill="#000000">effected_at </text>
<text text-anchor="start" x="1486.1486" y="-86.9" font-family="Arial" font-size="14.00" fill="#666666">[date]</text>
<polygon fill="none" stroke="#000000" points="1406,-45.5 1406,-75.5 1599,-75.5 1599,-45.5 1406,-45.5"/>
<text text-anchor="start" x="1413" y="-56.9" font-family="Arial" font-size="14.00" fill="#000000">line_description </text>
<text text-anchor="start" x="1514.129" y="-56.9" font-family="Arial" font-size="14.00" fill="#666666">[text]</text>
<polygon fill="none" stroke="#000000" stroke-width="3" points="1404,-44.5 1404,-232.5 1600,-232.5 1600,-44.5 1404,-44.5"/>
</g>
<!-- car_types -->
<g id="node2" class="node">
<title>car_types</title>
<polygon fill="#efefef" stroke="transparent" points="87,-505.5 87,-540.5 282,-540.5 282,-505.5 87,-505.5"/>
<polygon fill="none" stroke="#000000" points="87,-505.5 87,-540.5 282,-540.5 282,-505.5 87,-505.5"/>
<text text-anchor="start" x="96.8635" y="-518.3" font-family="Arial Bold" font-size="18.00" fill="#000000">car_types</text>
<text text-anchor="start" x="174.8827" y="-518.3" font-family="Arial" font-size="14.00" fill="#000000"> </text>
<text text-anchor="start" x="178.7733" y="-518.3" font-family="Arial" font-size="14.00" fill="#666666">[BASE TABLE]</text>
<polygon fill="none" stroke="#000000" points="87,-475.5 87,-505.5 282,-505.5 282,-475.5 87,-475.5"/>
<text text-anchor="start" x="94" y="-486.9" font-family="Arial" font-size="14.00" fill="#000000">id </text>
<text text-anchor="start" x="108.7798" y="-486.9" font-family="Arial" font-size="14.00" fill="#666666">[bigint unsigned]</text>
<polygon fill="none" stroke="#000000" points="87,-445.5 87,-475.5 282,-475.5 282,-445.5 87,-445.5"/>
<text text-anchor="start" x="93.864" y="-456.9" font-family="Arial" font-size="14.00" fill="#000000">train_line_id </text>
<text text-anchor="start" x="173.2104" y="-456.9" font-family="Arial" font-size="14.00" fill="#666666">[bigint unsigned]</text>
<polygon fill="none" stroke="#000000" points="87,-415.5 87,-445.5 282,-445.5 282,-415.5 87,-415.5"/>
<text text-anchor="start" x="94" y="-426.9" font-family="Arial" font-size="14.00" fill="#000000">car_type_name </text>
<text text-anchor="start" x="194.3632" y="-426.9" font-family="Arial" font-size="14.00" fill="#666666">[varchar(64)]</text>
<polygon fill="none" stroke="#000000" points="87,-385.5 87,-415.5 282,-415.5 282,-385.5 87,-385.5"/>
<text text-anchor="start" x="94" y="-396.9" font-family="Arial" font-size="14.00" fill="#000000">car_length </text>
<text text-anchor="start" x="163.244" y="-396.9" font-family="Arial" font-size="14.00" fill="#666666">[int]</text>
</g>
<!-- car_types&#45;&gt;train_lines -->
<g id="edge1" class="edge">
<title>car_types:train_line_id&#45;&gt;train_lines:id</title>
<path fill="none" stroke="#000000" d="M292.181,-459.5944C344.0473,-449.3129 282.8001,-354.1851 334,-313 427.5169,-237.7751 1285.9825,-180.5 1406,-180.5"/>
<polygon fill="#000000" stroke="#000000" points="291.9607,-459.6139 281.6012,-456.0177 286.9803,-460.0569 282,-460.5 282,-460.5 282,-460.5 286.9803,-460.0569 282.3988,-464.9823 291.9607,-459.6139 291.9607,-459.6139"/>
<text text-anchor="start" x="6.832" y="-470.5" font-family="Arial" font-size="10.00" fill="#000000">FOREIGN KEY (train_line_id) REFERENCES train_lines (id)</text>
</g>
<!-- line_tag_relations -->
<g id="node3" class="node">
<title>line_tag_relations</title>
<polygon fill="#efefef" stroke="transparent" points="386,-475.5 386,-510.5 638,-510.5 638,-475.5 386,-475.5"/>
<polygon fill="none" stroke="#000000" points="386,-475.5 386,-510.5 638,-510.5 638,-475.5 386,-475.5"/>
<text text-anchor="start" x="392.8554" y="-488.3" font-family="Arial Bold" font-size="18.00" fill="#000000">line_tag_relations</text>
<text text-anchor="start" x="533.8908" y="-488.3" font-family="Arial" font-size="14.00" fill="#000000"> </text>
<text text-anchor="start" x="537.7814" y="-488.3" font-family="Arial" font-size="14.00" fill="#666666">[BASE TABLE]</text>
<polygon fill="none" stroke="#000000" points="386,-445.5 386,-475.5 638,-475.5 638,-445.5 386,-445.5"/>
<text text-anchor="start" x="393" y="-456.9" font-family="Arial" font-size="14.00" fill="#000000">tag_id </text>
<text text-anchor="start" x="435.0182" y="-456.9" font-family="Arial" font-size="14.00" fill="#666666">[bigint unsigned]</text>
<polygon fill="none" stroke="#000000" points="386,-415.5 386,-445.5 638,-445.5 638,-415.5 386,-415.5"/>
<text text-anchor="start" x="393" y="-426.9" font-family="Arial" font-size="14.00" fill="#000000">train_line_id </text>
<text text-anchor="start" x="472.3464" y="-426.9" font-family="Arial" font-size="14.00" fill="#666666">[bigint unsigned]</text>
</g>
<!-- line_tag_relations&#45;&gt;train_lines -->
<g id="edge2" class="edge">
<title>line_tag_relations:train_line_id&#45;&gt;train_lines:id</title>
<path fill="none" stroke="#000000" d="M648.0201,-429.4516C688.8953,-419.8019 648.1629,-346.0483 690,-313 816.9759,-212.6982 1244.1874,-180.5 1406,-180.5"/>
<polygon fill="#000000" stroke="#000000" points="647.9457,-429.4593 637.5317,-426.0244 642.9729,-429.9796 638,-430.5 638,-430.5 638,-430.5 642.9729,-429.9796 638.4683,-434.9756 647.9457,-429.4593 647.9457,-429.4593"/>
<text text-anchor="start" x="644.832" y="-440.5" font-family="Arial" font-size="10.00" fill="#000000">FOREIGN KEY (train_line_id) REFERENCES train_lines (id)</text>
</g>
<!-- offices -->
<g id="node4" class="node">
<title>offices</title>
<polygon fill="#efefef" stroke="transparent" points="743,-505.5 743,-540.5 938,-540.5 938,-505.5 743,-505.5"/>
<polygon fill="none" stroke="#000000" points="743,-505.5 743,-540.5 938,-540.5 938,-505.5 743,-505.5"/>
<text text-anchor="start" x="765.8676" y="-518.3" font-family="Arial Bold" font-size="18.00" fill="#000000">offices</text>
<text text-anchor="start" x="817.8786" y="-518.3" font-family="Arial" font-size="14.00" fill="#000000"> </text>
<text text-anchor="start" x="821.7692" y="-518.3" font-family="Arial" font-size="14.00" fill="#666666">[BASE TABLE]</text>
<polygon fill="none" stroke="#000000" points="743,-475.5 743,-505.5 938,-505.5 938,-475.5 743,-475.5"/>
<text text-anchor="start" x="750" y="-486.9" font-family="Arial" font-size="14.00" fill="#000000">id </text>
<text text-anchor="start" x="764.7798" y="-486.9" font-family="Arial" font-size="14.00" fill="#666666">[bigint unsigned]</text>
<polygon fill="none" stroke="#000000" points="743,-445.5 743,-475.5 938,-475.5 938,-445.5 743,-445.5"/>
<text text-anchor="start" x="749.864" y="-456.9" font-family="Arial" font-size="14.00" fill="#000000">train_line_id </text>
<text text-anchor="start" x="829.2104" y="-456.9" font-family="Arial" font-size="14.00" fill="#666666">[bigint unsigned]</text>
<polygon fill="none" stroke="#000000" points="743,-415.5 743,-445.5 938,-445.5 938,-415.5 743,-415.5"/>
<text text-anchor="start" x="750" y="-426.9" font-family="Arial" font-size="14.00" fill="#000000">office_name </text>
<text text-anchor="start" x="830.1346" y="-426.9" font-family="Arial" font-size="14.00" fill="#666666">[varchar(64)]</text>
<polygon fill="none" stroke="#000000" points="743,-385.5 743,-415.5 938,-415.5 938,-385.5 743,-385.5"/>
<text text-anchor="start" x="750" y="-396.9" font-family="Arial" font-size="14.00" fill="#000000">office_description </text>
<text text-anchor="start" x="862.8036" y="-396.9" font-family="Arial" font-size="14.00" fill="#666666">[text]</text>
</g>
<!-- offices&#45;&gt;train_lines -->
<g id="edge3" class="edge">
<title>offices:train_line_id&#45;&gt;train_lines:id</title>
<path fill="none" stroke="#000000" d="M948.189,-459.6356C1000.2752,-449.8151 942.0534,-358.7764 989,-313 1058.6156,-245.1196 1308.7679,-180.5 1406,-180.5"/>
<polygon fill="#000000" stroke="#000000" points="947.9642,-459.6545 937.6195,-456.0161 942.9821,-460.0773 938,-460.5 938,-460.5 938,-460.5 942.9821,-460.0773 938.3805,-464.9839 947.9642,-459.6545 947.9642,-459.6545"/>
<text text-anchor="start" x="662.832" y="-470.5" font-family="Arial" font-size="10.00" fill="#000000">FOREIGN KEY (train_line_id) REFERENCES train_lines (id)</text>
</g>
<!-- perm_password -->
<g id="node5" class="node">
<title>perm_password</title>
<polygon fill="#efefef" stroke="transparent" points="1042,-535.5 1042,-570.5 1281,-570.5 1281,-535.5 1042,-535.5"/>
<polygon fill="none" stroke="#000000" points="1042,-535.5 1042,-570.5 1281,-570.5 1281,-535.5 1042,-535.5"/>
<text text-anchor="start" x="1048.866" y="-548.3" font-family="Arial Bold" font-size="18.00" fill="#000000">perm_password</text>
<text text-anchor="start" x="1176.8802" y="-548.3" font-family="Arial" font-size="14.00" fill="#000000"> </text>
<text text-anchor="start" x="1180.7708" y="-548.3" font-family="Arial" font-size="14.00" fill="#666666">[BASE TABLE]</text>
<polygon fill="none" stroke="#000000" points="1042,-505.5 1042,-535.5 1281,-535.5 1281,-505.5 1042,-505.5"/>
<text text-anchor="start" x="1049" y="-516.9" font-family="Arial" font-size="14.00" fill="#000000">train_line_id </text>
<text text-anchor="start" x="1128.3464" y="-516.9" font-family="Arial" font-size="14.00" fill="#666666">[bigint unsigned]</text>
<polygon fill="none" stroke="#000000" points="1042,-475.5 1042,-505.5 1281,-505.5 1281,-475.5 1042,-475.5"/>
<text text-anchor="start" x="1049" y="-486.9" font-family="Arial" font-size="14.00" fill="#000000">pw_hash </text>
<text text-anchor="start" x="1108.9102" y="-486.9" font-family="Arial" font-size="14.00" fill="#666666">[varbinary(64)]</text>
<polygon fill="none" stroke="#000000" points="1042,-445.5 1042,-475.5 1281,-475.5 1281,-445.5 1042,-445.5"/>
<text text-anchor="start" x="1049" y="-456.9" font-family="Arial" font-size="14.00" fill="#000000">expires_at </text>
<text text-anchor="start" x="1117.4614" y="-456.9" font-family="Arial" font-size="14.00" fill="#666666">[date]</text>
<polygon fill="none" stroke="#000000" points="1042,-415.5 1042,-445.5 1281,-445.5 1281,-415.5 1042,-415.5"/>
<text text-anchor="start" x="1049" y="-426.9" font-family="Arial" font-size="14.00" fill="#000000">allow_read </text>
<text text-anchor="start" x="1120.5666" y="-426.9" font-family="Arial" font-size="14.00" fill="#666666">[bit(1)]</text>
<polygon fill="none" stroke="#000000" points="1042,-385.5 1042,-415.5 1281,-415.5 1281,-385.5 1042,-385.5"/>
<text text-anchor="start" x="1049" y="-396.9" font-family="Arial" font-size="14.00" fill="#000000">allow_write </text>
<text text-anchor="start" x="1122.1052" y="-396.9" font-family="Arial" font-size="14.00" fill="#666666">[bit(1)]</text>
<polygon fill="none" stroke="#000000" points="1042,-355.5 1042,-385.5 1281,-385.5 1281,-355.5 1042,-355.5"/>
<text text-anchor="start" x="1049" y="-366.9" font-family="Arial" font-size="14.00" fill="#000000">created_by </text>
<text text-anchor="start" x="1122.1374" y="-366.9" font-family="Arial" font-size="14.00" fill="#666666">[varchar(128)]</text>
</g>
<!-- perm_password&#45;&gt;train_lines -->
<g id="edge4" class="edge">
<title>perm_password:train_line_id&#45;&gt;train_lines:id</title>
<path fill="none" stroke="#000000" d="M1291.3669,-519.9641C1370.1632,-511.2484 1299.575,-398.0262 1333,-313 1357.5986,-250.4264 1338.765,-180.5 1406,-180.5"/>
<polygon fill="#000000" stroke="#000000" points="1290.9867,-519.9837 1280.7676,-516.006 1285.9933,-520.2418 1281,-520.5 1281,-520.5 1281,-520.5 1285.9933,-520.2418 1281.2324,-524.994 1290.9867,-519.9837 1290.9867,-519.9837"/>
<text text-anchor="start" x="1287.832" y="-530.5" font-family="Arial" font-size="10.00" fill="#000000">FOREIGN KEY (train_line_id) REFERENCES train_lines (id)</text>
</g>
<!-- perm_read_line -->
<g id="node6" class="node">
<title>perm_read_line</title>
<polygon fill="#efefef" stroke="transparent" points="1385,-475.5 1385,-510.5 1621,-510.5 1621,-475.5 1385,-475.5"/>
<polygon fill="none" stroke="#000000" points="1385,-475.5 1385,-510.5 1621,-510.5 1621,-475.5 1385,-475.5"/>
<text text-anchor="start" x="1391.8627" y="-488.3" font-family="Arial Bold" font-size="18.00" fill="#000000">perm_read_line</text>
<text text-anchor="start" x="1516.8835" y="-488.3" font-family="Arial" font-size="14.00" fill="#000000"> </text>
<text text-anchor="start" x="1520.7741" y="-488.3" font-family="Arial" font-size="14.00" fill="#666666">[BASE TABLE]</text>
<polygon fill="none" stroke="#000000" points="1385,-445.5 1385,-475.5 1621,-475.5 1621,-445.5 1385,-445.5"/>
<text text-anchor="start" x="1392" y="-456.9" font-family="Arial" font-size="14.00" fill="#000000">train_line_id </text>
<text text-anchor="start" x="1471.3464" y="-456.9" font-family="Arial" font-size="14.00" fill="#666666">[bigint unsigned]</text>
<polygon fill="none" stroke="#000000" points="1385,-415.5 1385,-445.5 1621,-445.5 1621,-415.5 1385,-415.5"/>
<text text-anchor="start" x="1392" y="-426.9" font-family="Arial" font-size="14.00" fill="#000000">user_id </text>
<text text-anchor="start" x="1441.7882" y="-426.9" font-family="Arial" font-size="14.00" fill="#666666">[varchar(128)]</text>
</g>
<!-- perm_read_line&#45;&gt;train_lines -->
<g id="edge5" class="edge">
<title>perm_read_line:train_line_id&#45;&gt;train_lines:id</title>
<path fill="none" stroke="#000000" d="M1374.8481,-458.8832C1349.7523,-449.5866 1366.0119,-402.3292 1385,-373 1441.6519,-285.495 1542.3481,-364.505 1599,-277 1622.3084,-240.9976 1641.8889,-180.5 1599,-180.5"/>
<polygon fill="#000000" stroke="#000000" points="1375.1244,-458.9272 1384.2922,-464.944 1380.0622,-459.7136 1385,-460.5 1385,-460.5 1385,-460.5 1380.0622,-459.7136 1385.7078,-456.056 1375.1244,-458.9272 1375.1244,-458.9272"/>
<text text-anchor="start" x="1391.832" y="-470.5" font-family="Arial" font-size="10.00" fill="#000000">FOREIGN KEY (train_line_id) REFERENCES train_lines (id)</text>
</g>
<!-- perm_write_line -->
<g id="node7" class="node">
<title>perm_write_line</title>
<polygon fill="#efefef" stroke="transparent" points="1725,-475.5 1725,-510.5 1963,-510.5 1963,-475.5 1725,-475.5"/>
<polygon fill="none" stroke="#000000" points="1725,-475.5 1725,-510.5 1963,-510.5 1963,-475.5 1725,-475.5"/>
<text text-anchor="start" x="1731.8736" y="-488.3" font-family="Arial Bold" font-size="18.00" fill="#000000">perm_write_line</text>
<text text-anchor="start" x="1858.8726" y="-488.3" font-family="Arial" font-size="14.00" fill="#000000"> </text>
<text text-anchor="start" x="1862.7632" y="-488.3" font-family="Arial" font-size="14.00" fill="#666666">[BASE TABLE]</text>
<polygon fill="none" stroke="#000000" points="1725,-445.5 1725,-475.5 1963,-475.5 1963,-445.5 1725,-445.5"/>
<text text-anchor="start" x="1732" y="-456.9" font-family="Arial" font-size="14.00" fill="#000000">train_line_id </text>
<text text-anchor="start" x="1811.3464" y="-456.9" font-family="Arial" font-size="14.00" fill="#666666">[bigint unsigned]</text>
<polygon fill="none" stroke="#000000" points="1725,-415.5 1725,-445.5 1963,-445.5 1963,-415.5 1725,-415.5"/>
<text text-anchor="start" x="1732" y="-426.9" font-family="Arial" font-size="14.00" fill="#000000">user_id </text>
<text text-anchor="start" x="1781.7882" y="-426.9" font-family="Arial" font-size="14.00" fill="#666666">[varchar(128)]</text>
</g>
<!-- perm_write_line&#45;&gt;train_lines -->
<g id="edge6" class="edge">
<title>perm_write_line:train_line_id&#45;&gt;train_lines:id</title>
<path fill="none" stroke="#000000" d="M1714.94,-459.8134C1660.1459,-451.6828 1700.0974,-373.0103 1673,-313 1645.2417,-251.526 1666.4506,-180.5 1599,-180.5"/>
<polygon fill="#000000" stroke="#000000" points="1715.0232,-459.8189 1724.6935,-464.9896 1720.0116,-460.1595 1725,-460.5 1725,-460.5 1725,-460.5 1720.0116,-460.1595 1725.3065,-456.0104 1715.0232,-459.8189 1715.0232,-459.8189"/>
<text text-anchor="start" x="1449.832" y="-444.5" font-family="Arial" font-size="10.00" fill="#000000">FOREIGN KEY (train_line_id) REFERENCES train_lines (id)</text>
</g>
<!-- stations -->
<g id="node8" class="node">
<title>stations</title>
<polygon fill="#efefef" stroke="transparent" points="2068,-520.5 2068,-555.5 2263,-555.5 2263,-520.5 2068,-520.5"/>
<polygon fill="none" stroke="#000000" points="2068,-520.5 2068,-555.5 2263,-555.5 2263,-520.5 2068,-520.5"/>
<text text-anchor="start" x="2085.8645" y="-533.3" font-family="Arial Bold" font-size="18.00" fill="#000000">stations</text>
<text text-anchor="start" x="2147.8817" y="-533.3" font-family="Arial" font-size="14.00" fill="#000000"> </text>
<text text-anchor="start" x="2151.7723" y="-533.3" font-family="Arial" font-size="14.00" fill="#666666">[BASE TABLE]</text>
<polygon fill="none" stroke="#000000" points="2068,-490.5 2068,-520.5 2263,-520.5 2263,-490.5 2068,-490.5"/>
<text text-anchor="start" x="2075" y="-501.9" font-family="Arial" font-size="14.00" fill="#000000">id </text>
<text text-anchor="start" x="2089.7798" y="-501.9" font-family="Arial" font-size="14.00" fill="#666666">[bigint unsigned]</text>
<polygon fill="none" stroke="#000000" points="2068,-460.5 2068,-490.5 2263,-490.5 2263,-460.5 2068,-460.5"/>
<text text-anchor="start" x="2074.864" y="-471.9" font-family="Arial" font-size="14.00" fill="#000000">train_line_id </text>
<text text-anchor="start" x="2154.2104" y="-471.9" font-family="Arial" font-size="14.00" fill="#666666">[bigint unsigned]</text>
<polygon fill="none" stroke="#000000" points="2068,-430.5 2068,-460.5 2263,-460.5 2263,-430.5 2068,-430.5"/>
<text text-anchor="start" x="2075" y="-441.9" font-family="Arial" font-size="14.00" fill="#000000">station_name </text>
<text text-anchor="start" x="2162.9172" y="-441.9" font-family="Arial" font-size="14.00" fill="#666666">[varchar(64)]</text>
<polygon fill="none" stroke="#000000" points="2068,-400.5 2068,-430.5 2263,-430.5 2263,-400.5 2068,-400.5"/>
<text text-anchor="start" x="2075" y="-411.9" font-family="Arial" font-size="14.00" fill="#000000">name_short </text>
<text text-anchor="start" x="2152.798" y="-411.9" font-family="Arial" font-size="14.00" fill="#666666">[varchar(16)]</text>
<polygon fill="none" stroke="#000000" points="2068,-370.5 2068,-400.5 2263,-400.5 2263,-370.5 2068,-370.5"/>
<text text-anchor="start" x="2075" y="-381.9" font-family="Arial" font-size="14.00" fill="#000000">sta_location </text>
<text text-anchor="start" x="2153.5806" y="-381.9" font-family="Arial" font-size="14.00" fill="#666666">[double]</text>
</g>
<!-- stations&#45;&gt;train_lines -->
<g id="edge7" class="edge">
<title>stations:train_line_id&#45;&gt;train_lines:id</title>
<path fill="none" stroke="#000000" d="M2057.9322,-474.7397C1999.2284,-464.9906 2066.2702,-363.9164 2015,-313 1946.1591,-244.6342 1696.0204,-180.5 1599,-180.5"/>
<polygon fill="#000000" stroke="#000000" points="2058.0284,-474.7469 2067.6611,-479.9872 2063.0142,-475.1234 2068,-475.5 2068,-475.5 2068,-475.5 2063.0142,-475.1234 2068.3389,-471.0128 2058.0284,-474.7469 2058.0284,-474.7469"/>
<text text-anchor="start" x="1792.832" y="-485.5" font-family="Arial" font-size="10.00" fill="#000000">FOREIGN KEY (train_line_id) REFERENCES train_lines (id)</text>
</g>
<!-- tracks -->
<g id="node9" class="node">
<title>tracks</title>
<polygon fill="#efefef" stroke="transparent" points="2367,-505.5 2367,-540.5 2562,-540.5 2562,-505.5 2367,-505.5"/>
<polygon fill="none" stroke="#000000" points="2367,-505.5 2367,-540.5 2562,-540.5 2562,-505.5 2367,-505.5"/>
<text text-anchor="start" x="2391.8728" y="-518.3" font-family="Arial Bold" font-size="18.00" fill="#000000">tracks</text>
<text text-anchor="start" x="2439.8734" y="-518.3" font-family="Arial" font-size="14.00" fill="#000000"> </text>
<text text-anchor="start" x="2443.764" y="-518.3" font-family="Arial" font-size="14.00" fill="#666666">[BASE TABLE]</text>
<polygon fill="none" stroke="#000000" points="2367,-475.5 2367,-505.5 2562,-505.5 2562,-475.5 2367,-475.5"/>
<text text-anchor="start" x="2374" y="-486.9" font-family="Arial" font-size="14.00" fill="#000000">id </text>
<text text-anchor="start" x="2388.7798" y="-486.9" font-family="Arial" font-size="14.00" fill="#666666">[bigint unsigned]</text>
<polygon fill="none" stroke="#000000" points="2367,-445.5 2367,-475.5 2562,-475.5 2562,-445.5 2367,-445.5"/>
<text text-anchor="start" x="2373.864" y="-456.9" font-family="Arial" font-size="14.00" fill="#000000">train_line_id </text>
<text text-anchor="start" x="2453.2104" y="-456.9" font-family="Arial" font-size="14.00" fill="#666666">[bigint unsigned]</text>
<polygon fill="none" stroke="#000000" points="2367,-415.5 2367,-445.5 2562,-445.5 2562,-415.5 2367,-415.5"/>
<text text-anchor="start" x="2374" y="-426.9" font-family="Arial" font-size="14.00" fill="#000000">track_name </text>
<text text-anchor="start" x="2451.0154" y="-426.9" font-family="Arial" font-size="14.00" fill="#666666">[varchar(64)]</text>
<polygon fill="none" stroke="#000000" points="2367,-385.5 2367,-415.5 2562,-415.5 2562,-385.5 2367,-385.5"/>
<text text-anchor="start" x="2374" y="-396.9" font-family="Arial" font-size="14.00" fill="#000000">track_description </text>
<text text-anchor="start" x="2483.6844" y="-396.9" font-family="Arial" font-size="14.00" fill="#666666">[text]</text>
</g>
<!-- tracks&#45;&gt;train_lines -->
<g id="edge8" class="edge">
<title>tracks:train_line_id&#45;&gt;train_lines:id</title>
<path fill="none" stroke="#000000" d="M2356.8077,-459.608C2304.815,-449.4789 2364.9413,-355.7026 2315,-313 2192.016,-207.8418 1760.8126,-180.5 1599,-180.5"/>
<polygon fill="#000000" stroke="#000000" points="2357.0381,-459.6281 2366.6076,-464.9829 2362.019,-460.064 2367,-460.5 2367,-460.5 2367,-460.5 2362.019,-460.064 2367.3924,-456.0171 2357.0381,-459.6281 2357.0381,-459.6281"/>
<text text-anchor="start" x="2373.832" y="-470.5" font-family="Arial" font-size="10.00" fill="#000000">FOREIGN KEY (train_line_id) REFERENCES train_lines (id)</text>
</g>
<!-- trains -->
<g id="node10" class="node">
<title>trains</title>
<polygon fill="#efefef" stroke="transparent" points="2666,-490.5 2666,-525.5 2861,-525.5 2861,-490.5 2666,-490.5"/>
<polygon fill="none" stroke="#000000" points="2666,-490.5 2666,-525.5 2861,-525.5 2861,-490.5 2666,-490.5"/>
<text text-anchor="start" x="2692.8726" y="-503.3" font-family="Arial Bold" font-size="18.00" fill="#000000">trains</text>
<text text-anchor="start" x="2736.8736" y="-503.3" font-family="Arial" font-size="14.00" fill="#000000"> </text>
<text text-anchor="start" x="2740.7642" y="-503.3" font-family="Arial" font-size="14.00" fill="#666666">[BASE TABLE]</text>
<polygon fill="none" stroke="#000000" points="2666,-460.5 2666,-490.5 2861,-490.5 2861,-460.5 2666,-460.5"/>
<text text-anchor="start" x="2673" y="-471.9" font-family="Arial" font-size="14.00" fill="#000000">id </text>
<text text-anchor="start" x="2687.7798" y="-471.9" font-family="Arial" font-size="14.00" fill="#666666">[bigint unsigned]</text>
<polygon fill="none" stroke="#000000" points="2666,-430.5 2666,-460.5 2861,-460.5 2861,-430.5 2666,-430.5"/>
<text text-anchor="start" x="2672.864" y="-441.9" font-family="Arial" font-size="14.00" fill="#000000">train_line_id </text>
<text text-anchor="start" x="2752.2104" y="-441.9" font-family="Arial" font-size="14.00" fill="#666666">[bigint unsigned]</text>
<polygon fill="none" stroke="#000000" points="2666,-400.5 2666,-430.5 2861,-430.5 2861,-400.5 2666,-400.5"/>
<text text-anchor="start" x="2673" y="-411.9" font-family="Arial" font-size="14.00" fill="#000000">train_number </text>
<text text-anchor="start" x="2759.3478" y="-411.9" font-family="Arial" font-size="14.00" fill="#666666">[varchar(64)]</text>
</g>
<!-- trains&#45;&gt;train_lines -->
<g id="edge9" class="edge">
<title>trains:train_line_id&#45;&gt;train_lines:id</title>
<path fill="none" stroke="#000000" d="M2655.8247,-444.5041C2609.7316,-434.3721 2660.8294,-349.5935 2614,-313 2524.3818,-242.9703 1712.7347,-180.5 1599,-180.5"/>
<polygon fill="#000000" stroke="#000000" points="2656.0476,-444.5258 2665.5616,-449.9786 2661.0238,-445.0129 2666,-445.5 2666,-445.5 2666,-445.5 2661.0238,-445.0129 2666.4384,-441.0214 2656.0476,-444.5258 2656.0476,-444.5258"/>
<text text-anchor="start" x="2672.832" y="-455.5" font-family="Arial" font-size="10.00" fill="#000000">FOREIGN KEY (train_line_id) REFERENCES train_lines (id)</text>
</g>
</g>
</svg>
