<?xml version="1.0" encoding="UTF-8" standalone="no"?>
<!DOCTYPE svg PUBLIC "-//W3C//DTD SVG 1.1//EN"
 "http://www.w3.org/Graphics/SVG/1.1/DTD/svg11.dtd">
<!-- Generated by graphviz version 2.40.1 (20161225.0304)
 -->
<!-- Title: trains Pages: 1 -->
<svg width="674pt" height="989pt"
 viewBox="0.00 0.00 674.00 989.00" xmlns="http://www.w3.org/2000/svg" xmlns:xlink="http://www.w3.org/1999/xlink">
<g id="graph0" class="graph" transform="scale(1 1) rotate(0) translate(4 985)">
<title>trains</title>
<polygon fill="#ffffff" stroke="transparent" points="-4,4 -4,-985 670,-985 670,4 -4,4"/>
<!-- trains -->
<g id="node1" class="node">
<title>trains</title>
<polygon fill="#efefef" stroke="transparent" points="282,-442.5 282,-477.5 477,-477.5 477,-442.5 282,-442.5"/>
<polygon fill="none" stroke="#000000" points="282,-442.5 282,-477.5 477,-477.5 477,-442.5 282,-442.5"/>
<text text-anchor="start" x="308.8726" y="-455.3" font-family="Arial Bold" font-size="18.00" fill="#000000">trains</text>
<text text-anchor="start" x="352.8736" y="-455.3" font-family="Arial" font-size="14.00" fill="#000000"> </text>
<text text-anchor="start" x="356.7642" y="-455.3" font-family="Arial" font-size="14.00" fill="#666666">[BASE TABLE]</text>
<polygon fill="none" stroke="#000000" points="282,-412.5 282,-442.5 477,-442.5 477,-412.5 282,-412.5"/>
<text text-anchor="start" x="289" y="-423.9" font-family="Arial" font-size="14.00" fill="#000000">id </text>
<text text-anchor="start" x="303.7798" y="-423.9" font-family="Arial" font-size="14.00" fill="#666666">[bigint unsigned]</text>
<polygon fill="none" stroke="#000000" points="282,-382.5 282,-412.5 477,-412.5 477,-382.5 282,-382.5"/>
<text text-anchor="start" x="288.864" y="-393.9" font-family="Arial" font-size="14.00" fill="#000000">train_line_id </text>
<text text-anchor="start" x="368.2104" y="-393.9" font-family="Arial" font-size="14.00" fill="#666666">[bigint unsigned]</text>
<polygon fill="none" stroke="#000000" points="282,-352.5 282,-382.5 477,-382.5 477,-352.5 282,-352.5"/>
<text text-anchor="start" x="289" y="-363.9" font-family="Arial" font-size="14.00" fill="#000000">train_number </text>
<text text-anchor="start" x="375.3478" y="-363.9" font-family="Arial" font-size="14.00" fill="#666666">[varchar(64)]</text>
<polygon fill="none" stroke="#000000" stroke-width="3" points="280,-351.5 280,-479.5 478,-479.5 478,-351.5 280,-351.5"/>
</g>
<!-- train_lines -->
<g id="node4" class="node">
<title>train_lines</title>
<polygon fill="#efefef" stroke="transparent" points="283,-192.5 283,-227.5 476,-227.5 476,-192.5 283,-192.5"/>
<polygon fill="none" stroke="#000000" points="283,-192.5 283,-227.5 476,-227.5 476,-192.5 283,-192.5"/>
<text text-anchor="start" x="289.8691" y="-205.3" font-family="Arial Bold" font-size="18.00" fill="#000000">train_lines</text>
<text text-anchor="start" x="371.8771" y="-205.3" font-family="Arial" font-size="14.00" fill="#000000"> </text>
<text text-anchor="start" x="375.7677" y="-205.3" font-family="Arial" font-size="14.00" fill="#666666">[BASE TABLE]</text>
<polygon fill="none" stroke="#000000" points="283,-162.5 283,-192.5 476,-192.5 476,-162.5 283,-162.5"/>
<text text-anchor="start" x="290" y="-173.9" font-family="Arial" font-size="14.00" fill="#000000">id </text>
<text text-anchor="start" x="304.7798" y="-173.9" font-family="Arial" font-size="14.00" fill="#666666">[bigint unsigned]</text>
<polygon fill="none" stroke="#000000" points="283,-132.5 283,-162.5 476,-162.5 476,-132.5 283,-132.5"/>
<text text-anchor="start" x="290" y="-143.9" font-family="Arial" font-size="14.00" fill="#000000">line_name </text>
<text text-anchor="start" x="358.46" y="-143.9" font-family="Arial" font-size="14.00" fill="#666666">[varchar(255)]</text>
<polygon fill="none" stroke="#000000" points="283,-102.5 283,-132.5 476,-132.5 476,-102.5 283,-102.5"/>
<text text-anchor="start" x="290" y="-113.9" font-family="Arial" font-size="14.00" fill="#000000">created_at </text>
<text text-anchor="start" x="360.028" y="-113.9" font-family="Arial" font-size="14.00" fill="#666666">[date]</text>
<polygon fill="none" stroke="#000000" points="283,-72.5 283,-102.5 476,-102.5 476,-72.5 283,-72.5"/>
<text text-anchor="start" x="290" y="-83.9" font-family="Arial" font-size="14.00" fill="#000000">effected_at </text>
<text text-anchor="start" x="363.1486" y="-83.9" font-family="Arial" font-size="14.00" fill="#666666">[date]</text>
<polygon fill="none" stroke="#000000" points="283,-42.5 283,-72.5 476,-72.5 476,-42.5 283,-42.5"/>
<text text-anchor="start" x="290" y="-53.9" font-family="Arial" font-size="14.00" fill="#000000">line_description </text>
<text text-anchor="start" x="391.129" y="-53.9" font-family="Arial" font-size="14.00" fill="#666666">[text]</text>
</g>
<!-- trains&#45;&gt;train_lines -->
<g id="edge3" class="edge">
<title>trains:train_line_id&#45;&gt;train_lines:id</title>
<path fill="none" stroke="#000000" d="M271.7877,-396.6591C184.4198,-381.8888 188.7542,-177.5 283,-177.5"/>
<polygon fill="#000000" stroke="#000000" points="272.0337,-396.6792 281.6307,-401.9848 277.0169,-397.0896 282,-397.5 282,-397.5 282,-397.5 277.0169,-397.0896 282.3693,-393.0152 272.0337,-396.6792 272.0337,-396.6792"/>
<text text-anchor="start" x="6.832" y="-407.5" font-family="Arial" font-size="10.00" fill="#000000">FOREIGN KEY (train_line_id) REFERENCES train_lines (id)</text>
</g>
<!-- sta_time -->
<g id="node2" class="node">
<title>sta_time</title>
<polygon fill="#efefef" stroke="transparent" points="134,-902.5 134,-937.5 329,-937.5 329,-902.5 134,-902.5"/>
<polygon fill="none" stroke="#000000" points="134,-902.5 134,-937.5 329,-937.5 329,-902.5 134,-902.5"/>
<text text-anchor="start" x="148.8684" y="-915.3" font-family="Arial Bold" font-size="18.00" fill="#000000">sta_time</text>
<text text-anchor="start" x="216.8778" y="-915.3" font-family="Arial" font-size="14.00" fill="#000000"> </text>
<text text-anchor="start" x="220.7684" y="-915.3" font-family="Arial" font-size="14.00" fill="#666666">[BASE TABLE]</text>
<polygon fill="none" stroke="#000000" points="134,-872.5 134,-902.5 329,-902.5 329,-872.5 134,-872.5"/>
<text text-anchor="start" x="141" y="-883.9" font-family="Arial" font-size="14.00" fill="#000000">id </text>
<text text-anchor="start" x="155.7798" y="-883.9" font-family="Arial" font-size="14.00" fill="#666666">[bigint unsigned]</text>
<polygon fill="none" stroke="#000000" points="134,-842.5 134,-872.5 329,-872.5 329,-842.5 134,-842.5"/>
<text text-anchor="start" x="141" y="-853.9" font-family="Arial" font-size="14.00" fill="#000000">train_id </text>
<text text-anchor="start" x="190.7854" y="-853.9" font-family="Arial" font-size="14.00" fill="#666666">[bigint unsigned]</text>
<polygon fill="none" stroke="#000000" points="134,-812.5 134,-842.5 329,-842.5 329,-812.5 134,-812.5"/>
<text text-anchor="start" x="140.8542" y="-823.9" font-family="Arial" font-size="14.00" fill="#000000">stop_pos_id </text>
<text text-anchor="start" x="220.2202" y="-823.9" font-family="Arial" font-size="14.00" fill="#666666">[bigint unsigned]</text>
<polygon fill="none" stroke="#000000" points="134,-782.5 134,-812.5 329,-812.5 329,-782.5 134,-782.5"/>
<text text-anchor="start" x="141" y="-793.9" font-family="Arial" font-size="14.00" fill="#000000">arr_time </text>
<text text-anchor="start" x="196.2174" y="-793.9" font-family="Arial" font-size="14.00" fill="#666666">[time]</text>
<polygon fill="none" stroke="#000000" points="134,-752.5 134,-782.5 329,-782.5 329,-752.5 134,-752.5"/>
<text text-anchor="start" x="141" y="-763.9" font-family="Arial" font-size="14.00" fill="#000000">dep_time </text>
<text text-anchor="start" x="202.4614" y="-763.9" font-family="Arial" font-size="14.00" fill="#666666">[time]</text>
<polygon fill="none" stroke="#000000" points="134,-722.5 134,-752.5 329,-752.5 329,-722.5 134,-722.5"/>
<text text-anchor="start" x="141" y="-733.9" font-family="Arial" font-size="14.00" fill="#000000">is_pass </text>
<text text-anchor="start" x="192.345" y="-733.9" font-family="Arial" font-size="14.00" fill="#666666">[bit(1)]</text>
<polygon fill="none" stroke="#000000" points="134,-692.5 134,-722.5 329,-722.5 329,-692.5 134,-692.5"/>
<text text-anchor="start" x="141" y="-703.9" font-family="Arial" font-size="14.00" fill="#000000">track_id </text>
<text text-anchor="start" x="193.8962" y="-703.9" font-family="Arial" font-size="14.00" fill="#666666">[bigint unsigned]</text>
<polygon fill="none" stroke="#000000" points="134,-662.5 134,-692.5 329,-692.5 329,-662.5 134,-662.5"/>
<text text-anchor="start" x="141" y="-673.9" font-family="Arial" font-size="14.00" fill="#000000">radio_ch_id </text>
<text text-anchor="start" x="217.2426" y="-673.9" font-family="Arial" font-size="14.00" fill="#666666">[bigint unsigned]</text>
<polygon fill="none" stroke="#000000" points="134,-632.5 134,-662.5 329,-662.5 329,-632.5 134,-632.5"/>
<text text-anchor="start" x="141" y="-643.9" font-family="Arial" font-size="14.00" fill="#000000">sta_color </text>
<text text-anchor="start" x="201.6788" y="-643.9" font-family="Arial" font-size="14.00" fill="#666666">[char(8)]</text>
<polygon fill="none" stroke="#000000" points="134,-602.5 134,-632.5 329,-632.5 329,-602.5 134,-602.5"/>
<text text-anchor="start" x="141" y="-613.9" font-family="Arial" font-size="14.00" fill="#000000">line_color </text>
<text text-anchor="start" x="204.784" y="-613.9" font-family="Arial" font-size="14.00" fill="#666666">[char(8)]</text>
</g>
<!-- sta_time&#45;&gt;trains -->
<g id="edge1" class="edge">
<title>sta_time:train_id&#45;&gt;trains:id</title>
<path fill="none" stroke="#000000" d="M338.9407,-855.4309C391.1038,-831.9799 356.6653,-616.0387 329,-560 317.3521,-536.4061 293.6479,-547.5939 282,-524 263.0141,-485.5423 239.1111,-427.5 282,-427.5"/>
<polygon fill="#000000" stroke="#000000" points="338.7902,-855.4621 328.083,-853.0944 333.8951,-856.4811 329,-857.5 329,-857.5 329,-857.5 333.8951,-856.4811 329.917,-861.9056 338.7902,-855.4621 338.7902,-855.4621"/>
<text text-anchor="start" x="335.947" y="-867.5" font-family="Arial" font-size="10.00" fill="#000000">FOREIGN KEY (train_id) REFERENCES trains (id)</text>
</g>
<!-- train_opts -->
<g id="node3" class="node">
<title>train_opts</title>
<polygon fill="#efefef" stroke="transparent" points="433,-812.5 433,-847.5 623,-847.5 623,-812.5 433,-812.5"/>
<polygon fill="none" stroke="#000000" points="433,-812.5 433,-847.5 623,-847.5 623,-812.5 433,-812.5"/>
<text text-anchor="start" x="439.8622" y="-825.3" font-family="Arial Bold" font-size="18.00" fill="#000000">train_opts</text>
<text text-anchor="start" x="518.884" y="-825.3" font-family="Arial" font-size="14.00" fill="#000000"> </text>
<text text-anchor="start" x="522.7746" y="-825.3" font-family="Arial" font-size="14.00" fill="#666666">[BASE TABLE]</text>
<polygon fill="none" stroke="#000000" points="433,-782.5 433,-812.5 623,-812.5 623,-782.5 433,-782.5"/>
<text text-anchor="start" x="440" y="-793.9" font-family="Arial" font-size="14.00" fill="#000000">train_id </text>
<text text-anchor="start" x="489.7854" y="-793.9" font-family="Arial" font-size="14.00" fill="#666666">[bigint unsigned]</text>
<polygon fill="none" stroke="#000000" points="433,-752.5 433,-782.5 623,-782.5 623,-752.5 433,-752.5"/>
<text text-anchor="start" x="440" y="-763.9" font-family="Arial" font-size="14.00" fill="#000000">act_location </text>
<text text-anchor="start" x="518.5806" y="-763.9" font-family="Arial" font-size="14.00" fill="#666666">[double]</text>
<polygon fill="none" stroke="#000000" points="433,-722.5 433,-752.5 623,-752.5 623,-722.5 433,-722.5"/>
<text text-anchor="start" x="440" y="-733.9" font-family="Arial" font-size="14.00" fill="#000000">opt_type </text>
<text text-anchor="start" x="497.5848" y="-733.9" font-family="Arial" font-size="14.00" fill="#666666">[bigint unsigned]</text>
<polygon fill="none" stroke="#000000" points="433,-692.5 433,-722.5 623,-722.5 623,-692.5 433,-692.5"/>
<text text-anchor="start" x="440" y="-703.9" font-family="Arial" font-size="14.00" fill="#000000">opt_value </text>
<text text-anchor="start" x="504.5834" y="-703.9" font-family="Arial" font-size="14.00" fill="#666666">[varchar(255)]</text>
</g>
<!-- train_opts&#45;&gt;trains -->
<g id="edge2" class="edge">
<title>train_opts:train_id&#45;&gt;trains:id</title>
<path fill="none" stroke="#000000" d="M422.7217,-796.0377C355.1164,-774.6433 476.7194,-525.6549 477,-524 484.1708,-481.7148 519.8889,-427.5 477,-427.5"/>
<polygon fill="#000000" stroke="#000000" points="423.0997,-796.0914 432.3661,-801.9551 428.0498,-796.7957 433,-797.5 433,-797.5 433,-797.5 428.0498,-796.7957 433.6339,-793.0449 423.0997,-796.0914 423.0997,-796.0914"/>
<text text-anchor="start" x="379.947" y="-781.5" font-family="Arial" font-size="10.00" fill="#000000">FOREIGN KEY (train_id) REFERENCES trains (id)</text>
</g>
</g>
</svg>
