<?xml version="1.0" encoding="UTF-8" standalone="no"?>
<!DOCTYPE svg PUBLIC "-//W3C//DTD SVG 1.1//EN"
 "http://www.w3.org/Graphics/SVG/1.1/DTD/svg11.dtd">
<!-- Generated by graphviz version 2.40.1 (20161225.0304)
 -->
<!-- Title: train_opt_types Pages: 1 -->
<svg width="555pt" height="502pt"
 viewBox="0.00 0.00 555.00 502.00" xmlns="http://www.w3.org/2000/svg" xmlns:xlink="http://www.w3.org/1999/xlink">
<g id="graph0" class="graph" transform="scale(1 1) rotate(0) translate(4 498)">
<title>train_opt_types</title>
<polygon fill="#ffffff" stroke="transparent" points="-4,4 -4,-498 551,-498 551,4 -4,4"/>
<!-- train_opt_types -->
<g id="node1" class="node">
<title>train_opt_types</title>
<polygon fill="#efefef" stroke="transparent" points="46,-135.5 46,-170.5 280,-170.5 280,-135.5 46,-135.5"/>
<polygon fill="none" stroke="#000000" points="46,-135.5 46,-170.5 280,-170.5 280,-135.5 46,-135.5"/>
<text text-anchor="start" x="52.8518" y="-148.3" font-family="Arial Bold" font-size="18.00" fill="#000000">train_opt_types</text>
<text text-anchor="start" x="175.8944" y="-148.3" font-family="Arial" font-size="14.00" fill="#000000"> </text>
<text text-anchor="start" x="179.785" y="-148.3" font-family="Arial" font-size="14.00" fill="#666666">[BASE TABLE]</text>
<polygon fill="none" stroke="#000000" points="46,-105.5 46,-135.5 280,-135.5 280,-105.5 46,-105.5"/>
<text text-anchor="start" x="53" y="-116.9" font-family="Arial" font-size="14.00" fill="#000000">id </text>
<text text-anchor="start" x="67.7798" y="-116.9" font-family="Arial" font-size="14.00" fill="#666666">[bigint unsigned]</text>
<polygon fill="none" stroke="#000000" points="46,-75.5 46,-105.5 280,-105.5 280,-75.5 46,-75.5"/>
<text text-anchor="start" x="53" y="-86.9" font-family="Arial" font-size="14.00" fill="#000000">disp_name </text>
<text text-anchor="start" x="125.3534" y="-86.9" font-family="Arial" font-size="14.00" fill="#666666">[varchar(64)]</text>
<polygon fill="none" stroke="#000000" points="46,-45.5 46,-75.5 280,-75.5 280,-45.5 46,-45.5"/>
<text text-anchor="start" x="53" y="-56.9" font-family="Arial" font-size="14.00" fill="#000000">opt_description </text>
<text text-anchor="start" x="151.8064" y="-56.9" font-family="Arial" font-size="14.00" fill="#666666">[text]</text>
<polygon fill="none" stroke="#000000" stroke-width="3" points="44.5,-44.5 44.5,-172.5 281.5,-172.5 281.5,-44.5 44.5,-44.5"/>
</g>
<!-- train_opts -->
<g id="node2" class="node">
<title>train_opts</title>
<polygon fill="#efefef" stroke="transparent" points="68,-415.5 68,-450.5 258,-450.5 258,-415.5 68,-415.5"/>
<polygon fill="none" stroke="#000000" points="68,-415.5 68,-450.5 258,-450.5 258,-415.5 68,-415.5"/>
<text text-anchor="start" x="74.8622" y="-428.3" font-family="Arial Bold" font-size="18.00" fill="#000000">train_opts</text>
<text text-anchor="start" x="153.884" y="-428.3" font-family="Arial" font-size="14.00" fill="#000000"> </text>
<text text-anchor="start" x="157.7746" y="-428.3" font-family="Arial" font-size="14.00" fill="#666666">[BASE TABLE]</text>
<polygon fill="none" stroke="#000000" points="68,-385.5 68,-415.5 258,-415.5 258,-385.5 68,-385.5"/>
<text text-anchor="start" x="75" y="-396.9" font-family="Arial" font-size="14.00" fill="#000000">train_id </text>
<text text-anchor="start" x="124.7854" y="-396.9" font-family="Arial" font-size="14.00" fill="#666666">[bigint unsigned]</text>
<polygon fill="none" stroke="#000000" points="68,-355.5 68,-385.5 258,-385.5 258,-355.5 68,-355.5"/>
<text text-anchor="start" x="75" y="-366.9" font-family="Arial" font-size="14.00" fill="#000000">act_location </text>
<text text-anchor="start" x="153.5806" y="-366.9" font-family="Arial" font-size="14.00" fill="#666666">[double]</text>
<polygon fill="none" stroke="#000000" points="68,-325.5 68,-355.5 258,-355.5 258,-325.5 68,-325.5"/>
<text text-anchor="start" x="75" y="-336.9" font-family="Arial" font-size="14.00" fill="#000000">opt_type </text>
<text text-anchor="start" x="132.5848" y="-336.9" font-family="Arial" font-size="14.00" fill="#666666">[bigint unsigned]</text>
<polygon fill="none" stroke="#000000" points="68,-295.5 68,-325.5 258,-325.5 258,-295.5 68,-295.5"/>
<text text-anchor="start" x="75" y="-306.9" font-family="Arial" font-size="14.00" fill="#000000">opt_value </text>
<text text-anchor="start" x="139.5834" y="-306.9" font-family="Arial" font-size="14.00" fill="#666666">[varchar(255)]</text>
</g>
<!-- train_opts&#45;&gt;train_opt_types -->
<g id="edge1" class="edge">
<title>train_opts:opt_type&#45;&gt;train_opt_types:id</title>
<path fill="none" stroke="#000000" d="M267.6816,-337.5564C309.8081,-311.4499 325.774,-120.5 280,-120.5"/>
<polygon fill="#000000" stroke="#000000" points="267.5676,-337.591 256.6909,-336.1946 262.7838,-339.0455 258,-340.5 258,-340.5 258,-340.5 262.7838,-339.0455 259.3091,-344.8054 267.5676,-337.591 267.5676,-337.591"/>
<text text-anchor="start" x="265.2055" y="-350.5" font-family="Arial" font-size="10.00" fill="#000000">FOREIGN KEY (opt_type) REFERENCES train_opt_types (id)</text>
</g>
</g>
</svg>
