<?xml version="1.0" encoding="UTF-8" standalone="no"?>
<!DOCTYPE svg PUBLIC "-//W3C//DTD SVG 1.1//EN"
 "http://www.w3.org/Graphics/SVG/1.1/DTD/svg11.dtd">
<!-- Generated by graphviz version 2.40.1 (20161225.0304)
 -->
<!-- Title: train_opts Pages: 1 -->
<svg width="727pt" height="502pt"
 viewBox="0.00 0.00 727.00 502.00" xmlns="http://www.w3.org/2000/svg" xmlns:xlink="http://www.w3.org/1999/xlink">
<g id="graph0" class="graph" transform="scale(1 1) rotate(0) translate(4 498)">
<title>train_opts</title>
<polygon fill="#ffffff" stroke="transparent" points="-4,4 -4,-498 723,-498 723,4 -4,4"/>
<!-- train_opts -->
<g id="node1" class="node">
<title>train_opts</title>
<polygon fill="#efefef" stroke="transparent" points="240,-412.5 240,-447.5 430,-447.5 430,-412.5 240,-412.5"/>
<polygon fill="none" stroke="#000000" points="240,-412.5 240,-447.5 430,-447.5 430,-412.5 240,-412.5"/>
<text text-anchor="start" x="246.8622" y="-425.3" font-family="Arial Bold" font-size="18.00" fill="#000000">train_opts</text>
<text text-anchor="start" x="325.884" y="-425.3" font-family="Arial" font-size="14.00" fill="#000000"> </text>
<text text-anchor="start" x="329.7746" y="-425.3" font-family="Arial" font-size="14.00" fill="#666666">[BASE TABLE]</text>
<polygon fill="none" stroke="#000000" points="240,-382.5 240,-412.5 430,-412.5 430,-382.5 240,-382.5"/>
<text text-anchor="start" x="247" y="-393.9" font-family="Arial" font-size="14.00" fill="#000000">train_id </text>
<text text-anchor="start" x="296.7854" y="-393.9" font-family="Arial" font-size="14.00" fill="#666666">[bigint unsigned]</text>
<polygon fill="none" stroke="#000000" points="240,-352.5 240,-382.5 430,-382.5 430,-352.5 240,-352.5"/>
<text text-anchor="start" x="247" y="-363.9" font-family="Arial" font-size="14.00" fill="#000000">act_location </text>
<text text-anchor="start" x="325.5806" y="-363.9" font-family="Arial" font-size="14.00" fill="#666666">[double]</text>
<polygon fill="none" stroke="#000000" points="240,-322.5 240,-352.5 430,-352.5 430,-322.5 240,-322.5"/>
<text text-anchor="start" x="247" y="-333.9" font-family="Arial" font-size="14.00" fill="#000000">opt_type </text>
<text text-anchor="start" x="304.5848" y="-333.9" font-family="Arial" font-size="14.00" fill="#666666">[bigint unsigned]</text>
<polygon fill="none" stroke="#000000" points="240,-292.5 240,-322.5 430,-322.5 430,-292.5 240,-292.5"/>
<text text-anchor="start" x="247" y="-303.9" font-family="Arial" font-size="14.00" fill="#000000">opt_value </text>
<text text-anchor="start" x="311.5834" y="-303.9" font-family="Arial" font-size="14.00" fill="#666666">[varchar(255)]</text>
<polygon fill="none" stroke="#000000" stroke-width="3" points="238.5,-291.5 238.5,-449.5 431.5,-449.5 431.5,-291.5 238.5,-291.5"/>
</g>
<!-- trains -->
<g id="node2" class="node">
<title>trains</title>
<polygon fill="#efefef" stroke="transparent" points="78,-132.5 78,-167.5 273,-167.5 273,-132.5 78,-132.5"/>
<polygon fill="none" stroke="#000000" points="78,-132.5 78,-167.5 273,-167.5 273,-132.5 78,-132.5"/>
<text text-anchor="start" x="104.8726" y="-145.3" font-family="Arial Bold" font-size="18.00" fill="#000000">trains</text>
<text text-anchor="start" x="148.8736" y="-145.3" font-family="Arial" font-size="14.00" fill="#000000"> </text>
<text text-anchor="start" x="152.7642" y="-145.3" font-family="Arial" font-size="14.00" fill="#666666">[BASE TABLE]</text>
<polygon fill="none" stroke="#000000" points="78,-102.5 78,-132.5 273,-132.5 273,-102.5 78,-102.5"/>
<text text-anchor="start" x="85" y="-113.9" font-family="Arial" font-size="14.00" fill="#000000">id </text>
<text text-anchor="start" x="99.7798" y="-113.9" font-family="Arial" font-size="14.00" fill="#666666">[bigint unsigned]</text>
<polygon fill="none" stroke="#000000" points="78,-72.5 78,-102.5 273,-102.5 273,-72.5 78,-72.5"/>
<text text-anchor="start" x="84.864" y="-83.9" font-family="Arial" font-size="14.00" fill="#000000">train_line_id </text>
<text text-anchor="start" x="164.2104" y="-83.9" font-family="Arial" font-size="14.00" fill="#666666">[bigint unsigned]</text>
<polygon fill="none" stroke="#000000" points="78,-42.5 78,-72.5 273,-72.5 273,-42.5 78,-42.5"/>
<text text-anchor="start" x="85" y="-53.9" font-family="Arial" font-size="14.00" fill="#000000">train_number </text>
<text text-anchor="start" x="171.3478" y="-53.9" font-family="Arial" font-size="14.00" fill="#666666">[varchar(64)]</text>
</g>
<!-- train_opts&#45;&gt;trains -->
<g id="edge1" class="edge">
<title>train_opts:train_id&#45;&gt;trains:id</title>
<path fill="none" stroke="#000000" d="M229.9878,-396.7276C177.7199,-387.9346 217.0773,-305.9296 240,-247 247.8686,-226.7714 265.1314,-231.2286 273,-211 288.0648,-172.2713 314.5556,-117.5 273,-117.5"/>
<polygon fill="#000000" stroke="#000000" points="230.0296,-396.7308 239.6538,-401.9867 235.0148,-397.1154 240,-397.5 240,-397.5 240,-397.5 235.0148,-397.1154 240.3462,-393.0133 230.0296,-396.7308 230.0296,-396.7308"/>
<text text-anchor="start" x="6.947" y="-407.5" font-family="Arial" font-size="10.00" fill="#000000">FOREIGN KEY (train_id) REFERENCES trains (id)</text>
</g>
<!-- train_opt_types -->
<g id="node3" class="node">
<title>train_opt_types</title>
<polygon fill="#efefef" stroke="transparent" points="377,-132.5 377,-167.5 611,-167.5 611,-132.5 377,-132.5"/>
<polygon fill="none" stroke="#000000" points="377,-132.5 377,-167.5 611,-167.5 611,-132.5 377,-132.5"/>
<text text-anchor="start" x="383.8518" y="-145.3" font-family="Arial Bold" font-size="18.00" fill="#000000">train_opt_types</text>
<text text-anchor="start" x="506.8944" y="-145.3" font-family="Arial" font-size="14.00" fill="#000000"> </text>
<text text-anchor="start" x="510.785" y="-145.3" font-family="Arial" font-size="14.00" fill="#666666">[BASE TABLE]</text>
<polygon fill="none" stroke="#000000" points="377,-102.5 377,-132.5 611,-132.5 611,-102.5 377,-102.5"/>
<text text-anchor="start" x="384" y="-113.9" font-family="Arial" font-size="14.00" fill="#000000">id </text>
<text text-anchor="start" x="398.7798" y="-113.9" font-family="Arial" font-size="14.00" fill="#666666">[bigint unsigned]</text>
<polygon fill="none" stroke="#000000" points="377,-72.5 377,-102.5 611,-102.5 611,-72.5 377,-72.5"/>
<text text-anchor="start" x="384" y="-83.9" font-family="Arial" font-size="14.00" fill="#000000">disp_name </text>
<text text-anchor="start" x="456.3534" y="-83.9" font-family="Arial" font-size="14.00" fill="#666666">[varchar(64)]</text>
<polygon fill="none" stroke="#000000" points="377,-42.5 377,-72.5 611,-72.5 611,-42.5 377,-42.5"/>
<text text-anchor="start" x="384" y="-53.9" font-family="Arial" font-size="14.00" fill="#000000">opt_description </text>
<text text-anchor="start" x="482.8064" y="-53.9" font-family="Arial" font-size="14.00" fill="#666666">[text]</text>
</g>
<!-- train_opts&#45;&gt;train_opt_types -->
<g id="edge2" class="edge">
<title>train_opts:opt_type&#45;&gt;train_opt_types:id</title>
<path fill="none" stroke="#000000" d="M440.0807,-335.997C466.0677,-326.9517 446.9871,-279.0736 430,-247 416.6723,-221.8358 390.3277,-236.1642 377,-211 357.5505,-174.277 335.4444,-117.5 377,-117.5"/>
<polygon fill="#000000" stroke="#000000" points="439.8907,-336.0252 429.3364,-333.0492 434.9453,-336.7626 430,-337.5 430,-337.5 430,-337.5 434.9453,-336.7626 430.6636,-341.9508 439.8907,-336.0252 439.8907,-336.0252"/>
<text text-anchor="start" x="437.2055" y="-347.5" font-family="Arial" font-size="10.00" fill="#000000">FOREIGN KEY (opt_type) REFERENCES train_opt_types (id)</text>
</g>
</g>
</svg>
