<?xml version="1.0" encoding="UTF-8" standalone="no"?>
<!DOCTYPE svg PUBLIC "-//W3C//DTD SVG 1.1//EN"
 "http://www.w3.org/Graphics/SVG/1.1/DTD/svg11.dtd">
<!-- Generated by graphviz version 2.40.1 (20161225.0304)
 -->
<!-- Title: users Pages: 1 -->
<svg width="1016pt" height="502pt"
 viewBox="0.00 0.00 1015.50 502.00" xmlns="http://www.w3.org/2000/svg" xmlns:xlink="http://www.w3.org/1999/xlink">
<g id="graph0" class="graph" transform="scale(1 1) rotate(0) translate(4 498)">
<title>users</title>
<polygon fill="#ffffff" stroke="transparent" points="-4,4 -4,-498 1011.5,-498 1011.5,4 -4,4"/>
<!-- users -->
<g id="node1" class="node">
<title>users</title>
<polygon fill="#efefef" stroke="transparent" points="426.5,-75.5 426.5,-110.5 581.5,-110.5 581.5,-75.5 426.5,-75.5"/>
<polygon fill="none" stroke="#000000" points="426.5,-75.5 426.5,-110.5 581.5,-110.5 581.5,-75.5 426.5,-75.5"/>
<text text-anchor="start" x="433.3708" y="-88.3" font-family="Arial Bold" font-size="18.00" fill="#000000">users</text>
<text text-anchor="start" x="477.3754" y="-88.3" font-family="Arial" font-size="14.00" fill="#000000"> </text>
<text text-anchor="start" x="481.266" y="-88.3" font-family="Arial" font-size="14.00" fill="#666666">[BASE TABLE]</text>
<polygon fill="none" stroke="#000000" points="426.5,-45.5 426.5,-75.5 581.5,-75.5 581.5,-45.5 426.5,-45.5"/>
<text text-anchor="start" x="433.5" y="-56.9" font-family="Arial" font-size="14.00" fill="#000000">id </text>
<text text-anchor="start" x="448.2798" y="-56.9" font-family="Arial" font-size="14.00" fill="#666666">[varchar(128)]</text>
<polygon fill="none" stroke="#000000" stroke-width="3" points="424.5,-44.5 424.5,-112.5 582.5,-112.5 582.5,-44.5 424.5,-44.5"/>
</g>
<!-- perm_password -->
<g id="node2" class="node">
<title>perm_password</title>
<polygon fill="#efefef" stroke="transparent" points="43.5,-415.5 43.5,-450.5 282.5,-450.5 282.5,-415.5 43.5,-415.5"/>
<polygon fill="none" stroke="#000000" points="43.5,-415.5 43.5,-450.5 282.5,-450.5 282.5,-415.5 43.5,-415.5"/>
<text text-anchor="start" x="50.366" y="-428.3" font-family="Arial Bold" font-size="18.00" fill="#000000">perm_password</text>
<text text-anchor="start" x="178.3802" y="-428.3" font-family="Arial" font-size="14.00" fill="#000000"> </text>
<text text-anchor="start" x="182.2708" y="-428.3" font-family="Arial" font-size="14.00" fill="#666666">[BASE TABLE]</text>
<polygon fill="none" stroke="#000000" points="43.5,-385.5 43.5,-415.5 282.5,-415.5 282.5,-385.5 43.5,-385.5"/>
<text text-anchor="start" x="50.5" y="-396.9" font-family="Arial" font-size="14.00" fill="#000000">train_line_id </text>
<text text-anchor="start" x="129.8464" y="-396.9" font-family="Arial" font-size="14.00" fill="#666666">[bigint unsigned]</text>
<polygon fill="none" stroke="#000000" points="43.5,-355.5 43.5,-385.5 282.5,-385.5 282.5,-355.5 43.5,-355.5"/>
<text text-anchor="start" x="50.5" y="-366.9" font-family="Arial" font-size="14.00" fill="#000000">pw_hash </text>
<text text-anchor="start" x="110.4102" y="-366.9" font-family="Arial" font-size="14.00" fill="#666666">[varbinary(64)]</text>
<polygon fill="none" stroke="#000000" points="43.5,-325.5 43.5,-355.5 282.5,-355.5 282.5,-325.5 43.5,-325.5"/>
<text text-anchor="start" x="50.5" y="-336.9" font-family="Arial" font-size="14.00" fill="#000000">expires_at </text>
<text text-anchor="start" x="118.9614" y="-336.9" font-family="Arial" font-size="14.00" fill="#666666">[date]</text>
<polygon fill="none" stroke="#000000" points="43.5,-295.5 43.5,-325.5 282.5,-325.5 282.5,-295.5 43.5,-295.5"/>
<text text-anchor="start" x="50.5" y="-306.9" font-family="Arial" font-size="14.00" fill="#000000">allow_read </text>
<text text-anchor="start" x="122.0666" y="-306.9" font-family="Arial" font-size="14.00" fill="#666666">[bit(1)]</text>
<polygon fill="none" stroke="#000000" points="43.5,-265.5 43.5,-295.5 282.5,-295.5 282.5,-265.5 43.5,-265.5"/>
<text text-anchor="start" x="50.5" y="-276.9" font-family="Arial" font-size="14.00" fill="#000000">allow_write </text>
<text text-anchor="start" x="123.6052" y="-276.9" font-family="Arial" font-size="14.00" fill="#666666">[bit(1)]</text>
<polygon fill="none" stroke="#000000" points="43.5,-235.5 43.5,-265.5 282.5,-265.5 282.5,-235.5 43.5,-235.5"/>
<text text-anchor="start" x="50.5" y="-246.9" font-family="Arial" font-size="14.00" fill="#000000">created_by </text>
<text text-anchor="start" x="123.6374" y="-246.9" font-family="Arial" font-size="14.00" fill="#666666">[varchar(128)]</text>
</g>
<!-- perm_password&#45;&gt;users -->
<g id="edge1" class="edge">
<title>perm_password:created_by&#45;&gt;users:id</title>
<path fill="none" stroke="#000000" d="M291.5453,-245.8033C325.4886,-216.5449 402.4941,-60.5 426.5,-60.5"/>
<polygon fill="#000000" stroke="#000000" points="291.3749,-245.8917 280.4263,-246.5063 286.9375,-248.1959 282.5,-250.5 282.5,-250.5 282.5,-250.5 286.9375,-248.1959 284.5737,-254.4937 291.3749,-245.8917 291.3749,-245.8917"/>
<text text-anchor="start" x="289.106" y="-234.5" font-family="Arial" font-size="10.00" fill="#000000">FOREIGN KEY (created_by) REFERENCES users (id)</text>
</g>
<!-- perm_read_line -->
<g id="node3" class="node">
<title>perm_read_line</title>
<polygon fill="#efefef" stroke="transparent" points="386.5,-355.5 386.5,-390.5 622.5,-390.5 622.5,-355.5 386.5,-355.5"/>
<polygon fill="none" stroke="#000000" points="386.5,-355.5 386.5,-390.5 622.5,-390.5 622.5,-355.5 386.5,-355.5"/>
<text text-anchor="start" x="393.3627" y="-368.3" font-family="Arial Bold" font-size="18.00" fill="#000000">perm_read_line</text>
<text text-anchor="start" x="518.3835" y="-368.3" font-family="Arial" font-size="14.00" fill="#000000"> </text>
<text text-anchor="start" x="522.2741" y="-368.3" font-family="Arial" font-size="14.00" fill="#666666">[BASE TABLE]</text>
<polygon fill="none" stroke="#000000" points="386.5,-325.5 386.5,-355.5 622.5,-355.5 622.5,-325.5 386.5,-325.5"/>
<text text-anchor="start" x="393.5" y="-336.9" font-family="Arial" font-size="14.00" fill="#000000">train_line_id </text>
<text text-anchor="start" x="472.8464" y="-336.9" font-family="Arial" font-size="14.00" fill="#666666">[bigint unsigned]</text>
<polygon fill="none" stroke="#000000" points="386.5,-295.5 386.5,-325.5 622.5,-325.5 622.5,-295.5 386.5,-295.5"/>
<text text-anchor="start" x="393.5" y="-306.9" font-family="Arial" font-size="14.00" fill="#000000">user_id </text>
<text text-anchor="start" x="443.2882" y="-306.9" font-family="Arial" font-size="14.00" fill="#666666">[varchar(128)]</text>
</g>
<!-- perm_read_line&#45;&gt;users -->
<g id="edge2" class="edge">
<title>perm_read_line:user_id&#45;&gt;users:id</title>
<path fill="none" stroke="#000000" d="M504.9457,-285.2981C510.4176,-224.9054 564.7207,-221.7126 581.5,-157 592.2647,-115.484 624.3889,-60.5 581.5,-60.5"/>
<polygon fill="#000000" stroke="#000000" points="504.9366,-285.5095 500.0043,-295.3035 504.7183,-290.5048 504.5,-295.5 504.5,-295.5 504.5,-295.5 504.7183,-290.5048 508.9957,-295.6965 504.9366,-285.5095 504.9366,-285.5095"/>
<text text-anchor="start" x="271.445" y="-305.5" font-family="Arial" font-size="10.00" fill="#000000">FOREIGN KEY (user_id) REFERENCES users (id)</text>
</g>
<!-- perm_write_line -->
<g id="node4" class="node">
<title>perm_write_line</title>
<polygon fill="#efefef" stroke="transparent" points="726.5,-355.5 726.5,-390.5 964.5,-390.5 964.5,-355.5 726.5,-355.5"/>
<polygon fill="none" stroke="#000000" points="726.5,-355.5 726.5,-390.5 964.5,-390.5 964.5,-355.5 726.5,-355.5"/>
<text text-anchor="start" x="733.3736" y="-368.3" font-family="Arial Bold" font-size="18.00" fill="#000000">perm_write_line</text>
<text text-anchor="start" x="860.3726" y="-368.3" font-family="Arial" font-size="14.00" fill="#000000"> </text>
<text text-anchor="start" x="864.2632" y="-368.3" font-family="Arial" font-size="14.00" fill="#666666">[BASE TABLE]</text>
<polygon fill="none" stroke="#000000" points="726.5,-325.5 726.5,-355.5 964.5,-355.5 964.5,-325.5 726.5,-325.5"/>
<text text-anchor="start" x="733.5" y="-336.9" font-family="Arial" font-size="14.00" fill="#000000">train_line_id </text>
<text text-anchor="start" x="812.8464" y="-336.9" font-family="Arial" font-size="14.00" fill="#666666">[bigint unsigned]</text>
<polygon fill="none" stroke="#000000" points="726.5,-295.5 726.5,-325.5 964.5,-325.5 964.5,-295.5 726.5,-295.5"/>
<text text-anchor="start" x="733.5" y="-306.9" font-family="Arial" font-size="14.00" fill="#000000">user_id </text>
<text text-anchor="start" x="783.2882" y="-306.9" font-family="Arial" font-size="14.00" fill="#666666">[varchar(128)]</text>
</g>
<!-- perm_write_line&#45;&gt;users -->
<g id="edge3" class="edge">
<title>perm_write_line:user_id&#45;&gt;users:id</title>
<path fill="none" stroke="#000000" d="M716.2734,-309.6284C673.5316,-301.5776 700.728,-239.4179 674.5,-193 639.1064,-130.361 653.4468,-60.5 581.5,-60.5"/>
<polygon fill="#000000" stroke="#000000" points="716.5361,-309.6507 726.1178,-314.9837 721.5181,-310.0754 726.5,-310.5 726.5,-310.5 726.5,-310.5 721.5181,-310.0754 726.8822,-306.0163 716.5361,-309.6507 716.5361,-309.6507"/>
<text text-anchor="start" x="553.445" y="-294.5" font-family="Arial" font-size="10.00" fill="#000000">FOREIGN KEY (user_id) REFERENCES users (id)</text>
</g>
</g>
</svg>
